%TF.GenerationSoftware,KiCad,Pcbnew,(7.0.0)*%
%TF.CreationDate,2023-03-20T10:58:12+01:00*%
%TF.ProjectId,Z_Brake,5a5f4272-616b-4652-9e6b-696361645f70,rev?*%
%TF.SameCoordinates,Original*%
%TF.FileFunction,Paste,Top*%
%TF.FilePolarity,Positive*%
%FSLAX46Y46*%
G04 Gerber Fmt 4.6, Leading zero omitted, Abs format (unit mm)*
G04 Created by KiCad (PCBNEW (7.0.0)) date 2023-03-20 10:58:12*
%MOMM*%
%LPD*%
G01*
G04 APERTURE LIST*
G04 Aperture macros list*
%AMRoundRect*
0 Rectangle with rounded corners*
0 $1 Rounding radius*
0 $2 $3 $4 $5 $6 $7 $8 $9 X,Y pos of 4 corners*
0 Add a 4 corners polygon primitive as box body*
4,1,4,$2,$3,$4,$5,$6,$7,$8,$9,$2,$3,0*
0 Add four circle primitives for the rounded corners*
1,1,$1+$1,$2,$3*
1,1,$1+$1,$4,$5*
1,1,$1+$1,$6,$7*
1,1,$1+$1,$8,$9*
0 Add four rect primitives between the rounded corners*
20,1,$1+$1,$2,$3,$4,$5,0*
20,1,$1+$1,$4,$5,$6,$7,0*
20,1,$1+$1,$6,$7,$8,$9,0*
20,1,$1+$1,$8,$9,$2,$3,0*%
G04 Aperture macros list end*
%ADD10RoundRect,0.237500X0.300000X0.237500X-0.300000X0.237500X-0.300000X-0.237500X0.300000X-0.237500X0*%
%ADD11RoundRect,0.225000X0.225000X0.375000X-0.225000X0.375000X-0.225000X-0.375000X0.225000X-0.375000X0*%
%ADD12RoundRect,0.237500X-0.237500X0.287500X-0.237500X-0.287500X0.237500X-0.287500X0.237500X0.287500X0*%
%ADD13RoundRect,0.250000X-1.500000X-0.650000X1.500000X-0.650000X1.500000X0.650000X-1.500000X0.650000X0*%
%ADD14R,0.800000X1.900000*%
%ADD15RoundRect,0.237500X0.250000X0.237500X-0.250000X0.237500X-0.250000X-0.237500X0.250000X-0.237500X0*%
%ADD16RoundRect,0.237500X-0.250000X-0.237500X0.250000X-0.237500X0.250000X0.237500X-0.250000X0.237500X0*%
%ADD17RoundRect,0.237500X-0.237500X0.250000X-0.237500X-0.250000X0.237500X-0.250000X0.237500X0.250000X0*%
%ADD18RoundRect,0.237500X0.237500X-0.250000X0.237500X0.250000X-0.237500X0.250000X-0.237500X-0.250000X0*%
%ADD19RoundRect,0.250000X0.350000X0.450000X-0.350000X0.450000X-0.350000X-0.450000X0.350000X-0.450000X0*%
%ADD20R,1.560000X0.650000*%
%ADD21RoundRect,0.250000X-0.650000X1.500000X-0.650000X-1.500000X0.650000X-1.500000X0.650000X1.500000X0*%
%ADD22RoundRect,0.249750X1.250250X-0.305250X1.250250X0.305250X-1.250250X0.305250X-1.250250X-0.305250X0*%
G04 APERTURE END LIST*
D10*
%TO.C,C1*%
X78350000Y-108400000D03*
X76625000Y-108400000D03*
%TD*%
D11*
%TO.C,D3*%
X89150000Y-104750000D03*
X85850000Y-104750000D03*
%TD*%
D12*
%TO.C,D4*%
X58400000Y-111212500D03*
X58400000Y-112962500D03*
%TD*%
D13*
%TO.C,D5*%
X87000000Y-108000000D03*
X92000000Y-108000000D03*
%TD*%
D14*
%TO.C,Q1*%
X82049999Y-107699999D03*
X83949999Y-107699999D03*
X82999999Y-104699999D03*
%TD*%
D15*
%TO.C,R2*%
X74978900Y-110057200D03*
X73153900Y-110057200D03*
%TD*%
D16*
%TO.C,R3*%
X70994900Y-106600000D03*
X72819900Y-106600000D03*
%TD*%
D15*
%TO.C,R4*%
X78400000Y-110050000D03*
X76575000Y-110050000D03*
%TD*%
D17*
%TO.C,R5*%
X80400000Y-104175000D03*
X80400000Y-106000000D03*
%TD*%
D18*
%TO.C,R6*%
X80400000Y-109400000D03*
X80400000Y-107575000D03*
%TD*%
%TO.C,R7*%
X58400000Y-109600000D03*
X58400000Y-107775000D03*
%TD*%
D19*
%TO.C,RV1*%
X92440000Y-112395000D03*
X90440000Y-112395000D03*
%TD*%
%TO.C,RV2*%
X87360000Y-112395000D03*
X85360000Y-112395000D03*
%TD*%
D20*
%TO.C,U1*%
X75849999Y-104849999D03*
X75849999Y-105799999D03*
X75849999Y-106749999D03*
X78549999Y-106749999D03*
X78549999Y-104849999D03*
%TD*%
D21*
%TO.C,D1*%
X68100000Y-107050000D03*
X68100000Y-112050000D03*
%TD*%
D11*
%TO.C,D2*%
X94150000Y-104775000D03*
X90850000Y-104775000D03*
%TD*%
D16*
%TO.C,R1*%
X73153900Y-108407200D03*
X74978900Y-108407200D03*
%TD*%
D22*
%TO.C,K1*%
X99645000Y-101600000D03*
X99645000Y-96520000D03*
X99645000Y-93980000D03*
X99645000Y-91440000D03*
X92355000Y-91440000D03*
X92355000Y-93980000D03*
X92355000Y-96520000D03*
X92355000Y-101600000D03*
%TD*%
%TO.C,K2*%
X88395000Y-101600000D03*
X88395000Y-96520000D03*
X88395000Y-93980000D03*
X88395000Y-91440000D03*
X81105000Y-91440000D03*
X81105000Y-93980000D03*
X81105000Y-96520000D03*
X81105000Y-101600000D03*
%TD*%
D19*
%TO.C,RV4*%
X73500000Y-112900000D03*
X71500000Y-112900000D03*
%TD*%
D22*
%TO.C,K4*%
X65850000Y-101560000D03*
X65850000Y-96480000D03*
X65850000Y-93940000D03*
X65850000Y-91400000D03*
X58560000Y-91400000D03*
X58560000Y-93940000D03*
X58560000Y-96480000D03*
X58560000Y-101560000D03*
%TD*%
D11*
%TO.C,D7*%
X73950000Y-104200000D03*
X70650000Y-104200000D03*
%TD*%
%TO.C,D6*%
X61650000Y-104500000D03*
X58350000Y-104500000D03*
%TD*%
D19*
%TO.C,RV3*%
X77500000Y-112900000D03*
X75500000Y-112900000D03*
%TD*%
D22*
%TO.C,K3*%
X77150000Y-101560000D03*
X77150000Y-96480000D03*
X77150000Y-93940000D03*
X77150000Y-91400000D03*
X69860000Y-91400000D03*
X69860000Y-93940000D03*
X69860000Y-96480000D03*
X69860000Y-101560000D03*
%TD*%
M02*
