%TF.GenerationSoftware,KiCad,Pcbnew,(7.0.0)*%
%TF.CreationDate,2023-03-20T10:58:12+01:00*%
%TF.ProjectId,Z_Brake,5a5f4272-616b-4652-9e6b-696361645f70,rev?*%
%TF.SameCoordinates,Original*%
%TF.FileFunction,Copper,L2,Bot*%
%TF.FilePolarity,Positive*%
%FSLAX46Y46*%
G04 Gerber Fmt 4.6, Leading zero omitted, Abs format (unit mm)*
G04 Created by KiCad (PCBNEW (7.0.0)) date 2023-03-20 10:58:12*
%MOMM*%
%LPD*%
G01*
G04 APERTURE LIST*
%TA.AperFunction,ComponentPad*%
%ADD10C,5.000000*%
%TD*%
%TA.AperFunction,ComponentPad*%
%ADD11R,1.755000X1.755000*%
%TD*%
%TA.AperFunction,ComponentPad*%
%ADD12C,1.755000*%
%TD*%
%TA.AperFunction,ComponentPad*%
%ADD13R,1.690000X1.690000*%
%TD*%
%TA.AperFunction,ComponentPad*%
%ADD14C,1.690000*%
%TD*%
%TA.AperFunction,ViaPad*%
%ADD15C,1.200000*%
%TD*%
%TA.AperFunction,Conductor*%
%ADD16C,1.000000*%
%TD*%
G04 APERTURE END LIST*
D10*
%TO.P,MH1,1,1*%
%TO.N,GND*%
X59055000Y-80010000D03*
%TD*%
%TO.P,MH2,1,1*%
%TO.N,GND*%
X99695000Y-80010000D03*
%TD*%
%TO.P,MH3,1,1*%
%TO.N,GND*%
X59055000Y-120650000D03*
%TD*%
%TO.P,MH4,1,1*%
%TO.N,GND*%
X99695000Y-120650000D03*
%TD*%
D11*
%TO.P,P2,1,Pin_1*%
%TO.N,GND*%
X98499999Y-109539999D03*
D12*
%TO.P,P2,2,Pin_2*%
%TO.N,+24V*%
X98500000Y-107000000D03*
%TD*%
D13*
%TO.P,P1,1,Pin_1*%
%TO.N,Net-(P1-Pin_1)*%
X92709999Y-83944999D03*
D14*
%TO.P,P1,2,Pin_2*%
%TO.N,Net-(P1-Pin_2)*%
X90170000Y-83945000D03*
%TO.P,P1,3,Pin_3*%
%TO.N,Net-(P1-Pin_3)*%
X87630000Y-83945000D03*
%TO.P,P1,4,Pin_4*%
%TO.N,Net-(P1-Pin_4)*%
X85090000Y-83945000D03*
%TD*%
D13*
%TO.P,P3,1,Pin_1*%
%TO.N,Net-(P3-Pin_1)*%
X92709999Y-118234999D03*
D14*
%TO.P,P3,2,Pin_2*%
%TO.N,Net-(P3-Pin_2)*%
X90170000Y-118235000D03*
%TO.P,P3,3,Pin_3*%
%TO.N,Net-(P3-Pin_3)*%
X87630000Y-118235000D03*
%TO.P,P3,4,Pin_4*%
%TO.N,Net-(P3-Pin_4)*%
X85090000Y-118235000D03*
%TD*%
D13*
%TO.P,P4,1,Pin_1*%
%TO.N,Net-(P4-Pin_1)*%
X75249999Y-83999999D03*
D14*
%TO.P,P4,2,Pin_2*%
%TO.N,Net-(P4-Pin_2)*%
X72710000Y-84000000D03*
%TO.P,P4,3,Pin_3*%
%TO.N,Net-(P4-Pin_3)*%
X70170000Y-84000000D03*
%TO.P,P4,4,Pin_4*%
%TO.N,Net-(P4-Pin_4)*%
X67630000Y-84000000D03*
%TD*%
D13*
%TO.P,P5,1,Pin_1*%
%TO.N,Net-(P5-Pin_1)*%
X74809999Y-118259999D03*
D14*
%TO.P,P5,2,Pin_2*%
%TO.N,Net-(P5-Pin_2)*%
X72270000Y-118260000D03*
%TO.P,P5,3,Pin_3*%
%TO.N,Net-(P5-Pin_3)*%
X69730000Y-118260000D03*
%TO.P,P5,4,Pin_4*%
%TO.N,Net-(P5-Pin_4)*%
X67190000Y-118260000D03*
%TD*%
D15*
%TO.N,GND*%
X85400000Y-106200000D03*
X74168000Y-106934000D03*
X69926200Y-111328200D03*
X66250000Y-112050000D03*
X71856600Y-110057200D03*
%TO.N,Net-(P3-Pin_2)*%
X93980000Y-95220000D03*
%TO.N,Net-(P3-Pin_1)*%
X97000000Y-95220500D03*
%TO.N,Net-(P3-Pin_3)*%
X84750000Y-95220500D03*
%TO.N,Net-(P3-Pin_4)*%
X82959003Y-95173725D03*
%TO.N,Net-(P5-Pin_1)*%
X75296400Y-95220500D03*
%TO.N,Net-(P5-Pin_2)*%
X72800000Y-95200000D03*
%TO.N,Net-(P5-Pin_3)*%
X63400000Y-95000000D03*
%TO.N,Net-(P5-Pin_4)*%
X61050000Y-95000000D03*
%TD*%
D16*
%TO.N,Net-(P3-Pin_2)*%
X93980000Y-95420000D02*
X93980000Y-95220000D01*
X90170000Y-99230000D02*
X93980000Y-95420000D01*
X90170000Y-118235000D02*
X90170000Y-99230000D01*
%TO.N,Net-(P3-Pin_1)*%
X93000000Y-117945000D02*
X92710000Y-118235000D01*
X93000000Y-99800000D02*
X93000000Y-117945000D01*
X97000000Y-95220500D02*
X97000000Y-95800000D01*
X97000000Y-95800000D02*
X93000000Y-99800000D01*
%TO.N,Net-(P3-Pin_3)*%
X83820000Y-96150500D02*
X83820000Y-107950000D01*
X84750000Y-95220500D02*
X83820000Y-96150500D01*
X87630000Y-111760000D02*
X87630000Y-118235000D01*
X83820000Y-107950000D02*
X87630000Y-111760000D01*
%TO.N,Net-(P3-Pin_4)*%
X81915000Y-116840000D02*
X83310000Y-118235000D01*
X81915000Y-96217728D02*
X81915000Y-116840000D01*
X82959003Y-95173725D02*
X81915000Y-96217728D01*
X83310000Y-118235000D02*
X85090000Y-118235000D01*
%TO.N,Net-(P5-Pin_1)*%
X75296400Y-95220500D02*
X75296400Y-95696400D01*
X77400000Y-97800000D02*
X77400000Y-115670000D01*
X77400000Y-115670000D02*
X74810000Y-118260000D01*
X75296400Y-95696400D02*
X77400000Y-97800000D01*
%TO.N,Net-(P5-Pin_2)*%
X73156600Y-109518722D02*
X73156600Y-117373400D01*
X72771000Y-109133122D02*
X73156600Y-109518722D01*
X72771000Y-95229000D02*
X72771000Y-109133122D01*
X73156600Y-117373400D02*
X72270000Y-118260000D01*
X72800000Y-95200000D02*
X72771000Y-95229000D01*
%TO.N,Net-(P5-Pin_3)*%
X69730000Y-115930000D02*
X69730000Y-118260000D01*
X63400000Y-95000000D02*
X67550000Y-99150000D01*
X67550000Y-99150000D02*
X67550000Y-113750000D01*
X67550000Y-113750000D02*
X69730000Y-115930000D01*
%TO.N,Net-(P5-Pin_4)*%
X61050000Y-109050000D02*
X67190000Y-115190000D01*
X67190000Y-115190000D02*
X67190000Y-118260000D01*
X61050000Y-95000000D02*
X61050000Y-109050000D01*
%TD*%
%TA.AperFunction,Conductor*%
%TO.N,GND*%
G36*
X97755405Y-77484749D02*
G01*
X97800711Y-77525542D01*
X97821562Y-77582829D01*
X97813077Y-77643200D01*
X97777244Y-77692521D01*
X97768638Y-77699741D01*
X97760827Y-77711250D01*
X97767605Y-77723394D01*
X99695000Y-79650790D01*
X101985306Y-81941095D01*
X101997182Y-81947875D01*
X102006657Y-81942094D01*
X102007930Y-81940385D01*
X102056412Y-81901122D01*
X102117787Y-81889930D01*
X102177007Y-81909552D01*
X102219555Y-81955178D01*
X102235000Y-82015623D01*
X102235000Y-118644377D01*
X102219555Y-118704822D01*
X102177007Y-118750448D01*
X102117787Y-118770070D01*
X102056412Y-118758878D01*
X102007930Y-118719615D01*
X102006658Y-118717907D01*
X101997181Y-118712123D01*
X101985307Y-118718902D01*
X97767605Y-122936604D01*
X97760827Y-122948748D01*
X97768639Y-122960257D01*
X97777245Y-122967479D01*
X97813078Y-123016800D01*
X97821563Y-123077171D01*
X97800711Y-123134459D01*
X97755406Y-123175251D01*
X97696253Y-123190000D01*
X61053746Y-123190000D01*
X60994593Y-123175251D01*
X60949288Y-123134459D01*
X60928436Y-123077171D01*
X60936921Y-123016800D01*
X60972754Y-122967479D01*
X60981359Y-122960257D01*
X60989171Y-122948749D01*
X60982392Y-122936603D01*
X59055000Y-121009210D01*
X58695790Y-120650000D01*
X59419167Y-120650000D01*
X59425939Y-120661729D01*
X61345306Y-122581095D01*
X61357182Y-122587875D01*
X61366655Y-122582095D01*
X61570221Y-122308659D01*
X61574239Y-122302550D01*
X61745768Y-122005453D01*
X61749056Y-121998907D01*
X61884933Y-121683908D01*
X61887436Y-121677029D01*
X61985827Y-121348382D01*
X61987517Y-121341255D01*
X62047089Y-121003403D01*
X62047937Y-120996143D01*
X62067885Y-120653657D01*
X96682115Y-120653657D01*
X96702062Y-120996143D01*
X96702910Y-121003403D01*
X96762482Y-121341255D01*
X96764172Y-121348382D01*
X96862563Y-121677029D01*
X96865066Y-121683908D01*
X97000943Y-121998907D01*
X97004231Y-122005453D01*
X97175760Y-122302550D01*
X97179778Y-122308659D01*
X97383343Y-122582094D01*
X97392817Y-122587875D01*
X97404691Y-122581096D01*
X99324059Y-120661729D01*
X99330831Y-120650000D01*
X99324059Y-120638270D01*
X97404693Y-118718904D01*
X97392817Y-118712124D01*
X97383342Y-118717906D01*
X97179778Y-118991340D01*
X97175760Y-118997449D01*
X97004231Y-119294546D01*
X97000943Y-119301092D01*
X96865066Y-119616091D01*
X96862563Y-119622970D01*
X96764172Y-119951617D01*
X96762482Y-119958744D01*
X96702910Y-120296596D01*
X96702062Y-120303856D01*
X96682115Y-120646343D01*
X96682115Y-120653657D01*
X62067885Y-120653657D01*
X62067885Y-120646343D01*
X62047937Y-120303856D01*
X62047089Y-120296596D01*
X61987517Y-119958744D01*
X61985827Y-119951617D01*
X61887436Y-119622970D01*
X61884933Y-119616091D01*
X61749056Y-119301092D01*
X61745768Y-119294546D01*
X61574239Y-118997449D01*
X61570221Y-118991340D01*
X61366657Y-118717906D01*
X61357181Y-118712123D01*
X61345307Y-118718902D01*
X59425939Y-120638270D01*
X59419167Y-120650000D01*
X58695790Y-120650000D01*
X56764693Y-118718904D01*
X56752817Y-118712124D01*
X56743341Y-118717907D01*
X56742070Y-118719615D01*
X56693588Y-118758878D01*
X56632213Y-118770070D01*
X56572993Y-118750448D01*
X56530445Y-118704822D01*
X56515000Y-118644377D01*
X56515000Y-118351250D01*
X57120827Y-118351250D01*
X57127605Y-118363394D01*
X59043270Y-120279059D01*
X59055000Y-120285831D01*
X59066729Y-120279059D01*
X60982393Y-118363394D01*
X60989171Y-118351250D01*
X60981360Y-118339742D01*
X60857105Y-118235480D01*
X60851235Y-118231110D01*
X60564603Y-118042590D01*
X60558281Y-118038940D01*
X60251696Y-117884967D01*
X60244981Y-117882071D01*
X59922619Y-117764741D01*
X59915596Y-117762638D01*
X59581774Y-117683520D01*
X59574586Y-117682253D01*
X59233840Y-117642425D01*
X59226527Y-117642000D01*
X58883473Y-117642000D01*
X58876159Y-117642425D01*
X58535413Y-117682253D01*
X58528225Y-117683520D01*
X58194403Y-117762638D01*
X58187380Y-117764741D01*
X57865018Y-117882071D01*
X57858303Y-117884967D01*
X57551718Y-118038940D01*
X57545396Y-118042590D01*
X57258764Y-118231110D01*
X57252894Y-118235480D01*
X57128638Y-118339742D01*
X57120827Y-118351250D01*
X56515000Y-118351250D01*
X56515000Y-95000000D01*
X60190793Y-95000000D01*
X60209569Y-95178639D01*
X60211608Y-95184916D01*
X60211609Y-95184918D01*
X60263035Y-95343194D01*
X60263036Y-95343198D01*
X60265075Y-95349471D01*
X60268370Y-95355178D01*
X60268375Y-95355189D01*
X60278619Y-95372931D01*
X60295500Y-95435931D01*
X60295500Y-108985853D01*
X60294170Y-109004115D01*
X60291748Y-109020645D01*
X60291747Y-109020650D01*
X60290685Y-109027906D01*
X60291324Y-109035211D01*
X60291324Y-109035215D01*
X60295021Y-109077468D01*
X60295500Y-109088449D01*
X60295500Y-109093941D01*
X60299116Y-109124892D01*
X60299484Y-109128495D01*
X60302772Y-109166065D01*
X60306057Y-109203612D01*
X60308365Y-109210578D01*
X60309021Y-109213753D01*
X60309101Y-109214251D01*
X60309242Y-109214747D01*
X60309988Y-109217894D01*
X60310840Y-109225184D01*
X60332974Y-109286000D01*
X60336624Y-109296027D01*
X60337824Y-109299480D01*
X60361536Y-109371036D01*
X60365386Y-109377278D01*
X60366753Y-109380209D01*
X60366952Y-109380691D01*
X60367196Y-109381127D01*
X60368657Y-109384036D01*
X60371164Y-109390924D01*
X60408172Y-109447193D01*
X60412601Y-109453926D01*
X60414546Y-109456979D01*
X60454130Y-109521154D01*
X60459324Y-109526348D01*
X60461320Y-109528872D01*
X60461627Y-109529297D01*
X60461963Y-109529664D01*
X60464052Y-109532154D01*
X60468085Y-109538285D01*
X60473423Y-109543321D01*
X60522920Y-109590019D01*
X60525549Y-109592573D01*
X66398595Y-115465619D01*
X66425909Y-115506496D01*
X66435500Y-115554714D01*
X66435500Y-117404380D01*
X66424764Y-117455273D01*
X66394387Y-117497494D01*
X66378285Y-117512172D01*
X66378276Y-117512181D01*
X66373979Y-117516099D01*
X66370474Y-117520739D01*
X66370466Y-117520749D01*
X66254693Y-117674057D01*
X66254687Y-117674066D01*
X66251182Y-117678708D01*
X66248588Y-117683915D01*
X66248585Y-117683922D01*
X66162949Y-117855902D01*
X66162946Y-117855908D01*
X66160355Y-117861113D01*
X66158763Y-117866706D01*
X66158761Y-117866713D01*
X66108720Y-118042590D01*
X66104591Y-118057102D01*
X66085790Y-118260000D01*
X66104591Y-118462898D01*
X66106183Y-118468496D01*
X66106184Y-118468497D01*
X66156226Y-118644377D01*
X66160355Y-118658887D01*
X66162948Y-118664094D01*
X66162949Y-118664097D01*
X66238733Y-118816292D01*
X66251182Y-118841292D01*
X66254690Y-118845938D01*
X66254693Y-118845942D01*
X66370466Y-118999250D01*
X66370470Y-118999254D01*
X66373979Y-119003901D01*
X66378281Y-119007823D01*
X66378284Y-119007826D01*
X66466464Y-119088213D01*
X66524565Y-119141179D01*
X66697811Y-119248448D01*
X66887819Y-119322057D01*
X67088116Y-119359500D01*
X67286059Y-119359500D01*
X67291884Y-119359500D01*
X67492181Y-119322057D01*
X67682189Y-119248448D01*
X67855435Y-119141179D01*
X68006021Y-119003901D01*
X68128818Y-118841292D01*
X68219645Y-118658887D01*
X68275409Y-118462898D01*
X68294210Y-118260000D01*
X68275409Y-118057102D01*
X68219645Y-117861113D01*
X68128818Y-117678708D01*
X68125306Y-117674057D01*
X68009533Y-117520749D01*
X68009530Y-117520745D01*
X68006021Y-117516099D01*
X68001717Y-117512175D01*
X68001714Y-117512172D01*
X67985613Y-117497494D01*
X67955236Y-117455273D01*
X67944500Y-117404380D01*
X67944500Y-115515714D01*
X67958233Y-115458511D01*
X67996439Y-115413778D01*
X68050789Y-115391265D01*
X68109436Y-115395881D01*
X68159595Y-115426619D01*
X68938595Y-116205619D01*
X68965909Y-116246496D01*
X68975500Y-116294714D01*
X68975500Y-117404380D01*
X68964764Y-117455273D01*
X68934387Y-117497494D01*
X68918285Y-117512172D01*
X68918276Y-117512181D01*
X68913979Y-117516099D01*
X68910474Y-117520739D01*
X68910466Y-117520749D01*
X68794693Y-117674057D01*
X68794687Y-117674066D01*
X68791182Y-117678708D01*
X68788588Y-117683915D01*
X68788585Y-117683922D01*
X68702949Y-117855902D01*
X68702946Y-117855908D01*
X68700355Y-117861113D01*
X68698763Y-117866706D01*
X68698761Y-117866713D01*
X68648720Y-118042590D01*
X68644591Y-118057102D01*
X68625790Y-118260000D01*
X68644591Y-118462898D01*
X68646183Y-118468496D01*
X68646184Y-118468497D01*
X68696226Y-118644377D01*
X68700355Y-118658887D01*
X68702948Y-118664094D01*
X68702949Y-118664097D01*
X68778733Y-118816292D01*
X68791182Y-118841292D01*
X68794690Y-118845938D01*
X68794693Y-118845942D01*
X68910466Y-118999250D01*
X68910470Y-118999254D01*
X68913979Y-119003901D01*
X68918281Y-119007823D01*
X68918284Y-119007826D01*
X69006464Y-119088213D01*
X69064565Y-119141179D01*
X69237811Y-119248448D01*
X69427819Y-119322057D01*
X69628116Y-119359500D01*
X69826059Y-119359500D01*
X69831884Y-119359500D01*
X70032181Y-119322057D01*
X70222189Y-119248448D01*
X70395435Y-119141179D01*
X70546021Y-119003901D01*
X70668818Y-118841292D01*
X70759645Y-118658887D01*
X70815409Y-118462898D01*
X70834210Y-118260000D01*
X71165790Y-118260000D01*
X71184591Y-118462898D01*
X71186183Y-118468496D01*
X71186184Y-118468497D01*
X71236226Y-118644377D01*
X71240355Y-118658887D01*
X71242948Y-118664094D01*
X71242949Y-118664097D01*
X71318733Y-118816292D01*
X71331182Y-118841292D01*
X71334690Y-118845938D01*
X71334693Y-118845942D01*
X71450466Y-118999250D01*
X71450470Y-118999254D01*
X71453979Y-119003901D01*
X71458281Y-119007823D01*
X71458284Y-119007826D01*
X71546464Y-119088213D01*
X71604565Y-119141179D01*
X71777811Y-119248448D01*
X71967819Y-119322057D01*
X72168116Y-119359500D01*
X72366059Y-119359500D01*
X72371884Y-119359500D01*
X72572181Y-119322057D01*
X72762189Y-119248448D01*
X72935435Y-119141179D01*
X73086021Y-119003901D01*
X73208818Y-118841292D01*
X73299645Y-118658887D01*
X73355409Y-118462898D01*
X73373810Y-118264312D01*
X73385215Y-118222396D01*
X73410175Y-118186847D01*
X73495407Y-118101615D01*
X73545564Y-118070879D01*
X73604211Y-118066263D01*
X73658561Y-118088776D01*
X73696767Y-118133509D01*
X73710500Y-118190712D01*
X73710500Y-119123877D01*
X73710500Y-119123887D01*
X73710501Y-119130066D01*
X73711707Y-119136132D01*
X73711708Y-119136137D01*
X73722346Y-119189620D01*
X73725266Y-119204301D01*
X73781516Y-119288484D01*
X73865699Y-119344734D01*
X73939933Y-119359500D01*
X75680066Y-119359499D01*
X75754301Y-119344734D01*
X75838484Y-119288484D01*
X75894734Y-119204301D01*
X75909500Y-119130067D01*
X75909499Y-118279712D01*
X75919090Y-118231495D01*
X75946401Y-118190621D01*
X77319116Y-116817906D01*
X81155685Y-116817906D01*
X81156324Y-116825211D01*
X81156324Y-116825215D01*
X81160021Y-116867468D01*
X81160500Y-116878449D01*
X81160500Y-116883941D01*
X81164116Y-116914892D01*
X81164484Y-116918495D01*
X81171057Y-116993612D01*
X81173365Y-117000578D01*
X81174021Y-117003753D01*
X81174101Y-117004251D01*
X81174242Y-117004747D01*
X81174988Y-117007894D01*
X81175840Y-117015184D01*
X81178349Y-117022079D01*
X81178350Y-117022081D01*
X81201624Y-117086027D01*
X81202824Y-117089480D01*
X81226536Y-117161036D01*
X81230386Y-117167278D01*
X81231753Y-117170209D01*
X81231952Y-117170691D01*
X81232196Y-117171127D01*
X81233657Y-117174036D01*
X81236164Y-117180924D01*
X81268760Y-117230485D01*
X81277601Y-117243926D01*
X81279546Y-117246979D01*
X81319130Y-117311154D01*
X81324324Y-117316348D01*
X81326320Y-117318872D01*
X81326627Y-117319297D01*
X81326963Y-117319664D01*
X81329052Y-117322154D01*
X81333085Y-117328285D01*
X81378490Y-117371122D01*
X81387920Y-117380019D01*
X81390549Y-117382573D01*
X82731131Y-118723155D01*
X82743103Y-118737008D01*
X82757461Y-118756294D01*
X82773879Y-118770070D01*
X82795566Y-118788268D01*
X82803670Y-118795694D01*
X82807559Y-118799583D01*
X82810434Y-118801856D01*
X82810436Y-118801858D01*
X82831977Y-118818890D01*
X82834820Y-118821206D01*
X82892573Y-118869667D01*
X82899130Y-118872960D01*
X82901834Y-118874738D01*
X82902248Y-118875037D01*
X82902705Y-118875292D01*
X82905449Y-118876985D01*
X82911209Y-118881539D01*
X82979525Y-118913395D01*
X82982817Y-118914988D01*
X83050189Y-118948824D01*
X83057332Y-118950516D01*
X83060361Y-118951619D01*
X83060846Y-118951820D01*
X83061336Y-118951959D01*
X83064407Y-118952976D01*
X83071060Y-118956079D01*
X83144954Y-118971336D01*
X83148405Y-118972101D01*
X83221812Y-118989500D01*
X83229156Y-118989500D01*
X83232363Y-118989875D01*
X83232878Y-118989958D01*
X83233376Y-118989980D01*
X83236612Y-118990262D01*
X83243794Y-118991746D01*
X83319160Y-118989553D01*
X83322826Y-118989500D01*
X84236792Y-118989500D01*
X84282308Y-118998009D01*
X84321678Y-119022385D01*
X84424565Y-119116179D01*
X84597811Y-119223448D01*
X84787819Y-119297057D01*
X84988116Y-119334500D01*
X85186059Y-119334500D01*
X85191884Y-119334500D01*
X85392181Y-119297057D01*
X85582189Y-119223448D01*
X85755435Y-119116179D01*
X85906021Y-118978901D01*
X86028818Y-118816292D01*
X86119645Y-118633887D01*
X86175409Y-118437898D01*
X86194210Y-118235000D01*
X86175409Y-118032102D01*
X86119645Y-117836113D01*
X86028818Y-117653708D01*
X86025306Y-117649057D01*
X85909533Y-117495749D01*
X85909530Y-117495745D01*
X85906021Y-117491099D01*
X85901717Y-117487176D01*
X85901715Y-117487173D01*
X85783472Y-117379380D01*
X85755435Y-117353821D01*
X85676436Y-117304907D01*
X85587148Y-117249622D01*
X85587144Y-117249620D01*
X85582189Y-117246552D01*
X85576758Y-117244448D01*
X85576754Y-117244446D01*
X85397608Y-117175045D01*
X85397603Y-117175043D01*
X85392181Y-117172943D01*
X85386461Y-117171873D01*
X85386455Y-117171872D01*
X85197612Y-117136570D01*
X85197603Y-117136569D01*
X85191884Y-117135500D01*
X84988116Y-117135500D01*
X84982397Y-117136569D01*
X84982387Y-117136570D01*
X84793544Y-117171872D01*
X84793535Y-117171874D01*
X84787819Y-117172943D01*
X84782398Y-117175042D01*
X84782391Y-117175045D01*
X84603245Y-117244446D01*
X84603237Y-117244449D01*
X84597811Y-117246552D01*
X84592860Y-117249617D01*
X84592851Y-117249622D01*
X84429518Y-117350754D01*
X84424565Y-117353821D01*
X84420266Y-117357739D01*
X84420262Y-117357743D01*
X84321678Y-117447615D01*
X84282308Y-117471991D01*
X84236792Y-117480500D01*
X83674714Y-117480500D01*
X83626496Y-117470909D01*
X83585619Y-117443595D01*
X82706405Y-116564381D01*
X82679091Y-116523504D01*
X82669500Y-116475286D01*
X82669500Y-96582443D01*
X82679091Y-96534225D01*
X82706405Y-96493348D01*
X82850405Y-96349348D01*
X82900564Y-96318610D01*
X82959211Y-96313994D01*
X83013561Y-96336507D01*
X83051767Y-96381240D01*
X83065500Y-96438443D01*
X83065500Y-107885853D01*
X83064170Y-107904115D01*
X83061748Y-107920645D01*
X83061747Y-107920650D01*
X83060685Y-107927906D01*
X83061324Y-107935211D01*
X83061324Y-107935215D01*
X83065021Y-107977468D01*
X83065500Y-107988449D01*
X83065500Y-107993941D01*
X83069116Y-108024892D01*
X83069484Y-108028495D01*
X83075114Y-108092840D01*
X83076057Y-108103612D01*
X83078365Y-108110578D01*
X83079021Y-108113753D01*
X83079101Y-108114251D01*
X83079242Y-108114747D01*
X83079988Y-108117894D01*
X83080840Y-108125184D01*
X83083349Y-108132079D01*
X83083350Y-108132081D01*
X83106624Y-108196027D01*
X83107824Y-108199480D01*
X83131536Y-108271036D01*
X83135386Y-108277278D01*
X83136753Y-108280209D01*
X83136952Y-108280691D01*
X83137196Y-108281127D01*
X83138657Y-108284036D01*
X83141164Y-108290924D01*
X83151610Y-108306807D01*
X83182601Y-108353926D01*
X83184546Y-108356979D01*
X83224130Y-108421154D01*
X83229324Y-108426348D01*
X83231320Y-108428872D01*
X83231627Y-108429297D01*
X83231963Y-108429664D01*
X83234052Y-108432154D01*
X83238085Y-108438285D01*
X83243423Y-108443321D01*
X83292920Y-108490019D01*
X83295549Y-108492573D01*
X86838595Y-112035619D01*
X86865909Y-112076496D01*
X86875500Y-112124714D01*
X86875500Y-117379380D01*
X86864764Y-117430273D01*
X86834387Y-117472494D01*
X86818285Y-117487172D01*
X86818276Y-117487181D01*
X86813979Y-117491099D01*
X86810474Y-117495739D01*
X86810466Y-117495749D01*
X86694693Y-117649057D01*
X86694687Y-117649066D01*
X86691182Y-117653708D01*
X86688588Y-117658915D01*
X86688585Y-117658922D01*
X86602949Y-117830902D01*
X86602946Y-117830908D01*
X86600355Y-117836113D01*
X86598763Y-117841706D01*
X86598761Y-117841713D01*
X86574797Y-117925939D01*
X86544591Y-118032102D01*
X86544054Y-118037894D01*
X86544054Y-118037896D01*
X86540998Y-118070879D01*
X86525790Y-118235000D01*
X86544591Y-118437898D01*
X86600355Y-118633887D01*
X86602948Y-118639094D01*
X86602949Y-118639097D01*
X86688585Y-118811077D01*
X86691182Y-118816292D01*
X86694690Y-118820938D01*
X86694693Y-118820942D01*
X86810466Y-118974250D01*
X86810470Y-118974254D01*
X86813979Y-118978901D01*
X86818281Y-118982823D01*
X86818284Y-118982826D01*
X86845708Y-119007826D01*
X86964565Y-119116179D01*
X87137811Y-119223448D01*
X87327819Y-119297057D01*
X87528116Y-119334500D01*
X87726059Y-119334500D01*
X87731884Y-119334500D01*
X87932181Y-119297057D01*
X88122189Y-119223448D01*
X88295435Y-119116179D01*
X88446021Y-118978901D01*
X88568818Y-118816292D01*
X88659645Y-118633887D01*
X88715409Y-118437898D01*
X88734210Y-118235000D01*
X89065790Y-118235000D01*
X89084591Y-118437898D01*
X89140355Y-118633887D01*
X89142948Y-118639094D01*
X89142949Y-118639097D01*
X89228585Y-118811077D01*
X89231182Y-118816292D01*
X89234690Y-118820938D01*
X89234693Y-118820942D01*
X89350466Y-118974250D01*
X89350470Y-118974254D01*
X89353979Y-118978901D01*
X89358281Y-118982823D01*
X89358284Y-118982826D01*
X89385708Y-119007826D01*
X89504565Y-119116179D01*
X89677811Y-119223448D01*
X89867819Y-119297057D01*
X90068116Y-119334500D01*
X90266059Y-119334500D01*
X90271884Y-119334500D01*
X90472181Y-119297057D01*
X90662189Y-119223448D01*
X90835435Y-119116179D01*
X90854403Y-119098887D01*
X91610500Y-119098887D01*
X91610501Y-119105066D01*
X91611707Y-119111132D01*
X91611708Y-119111137D01*
X91622844Y-119167125D01*
X91625266Y-119179301D01*
X91632162Y-119189621D01*
X91672875Y-119250553D01*
X91681516Y-119263484D01*
X91765699Y-119319734D01*
X91839933Y-119334500D01*
X93580066Y-119334499D01*
X93654301Y-119319734D01*
X93738484Y-119263484D01*
X93794734Y-119179301D01*
X93809500Y-119105067D01*
X93809500Y-118351250D01*
X97760827Y-118351250D01*
X97767605Y-118363394D01*
X99683270Y-120279059D01*
X99695000Y-120285831D01*
X99706729Y-120279059D01*
X101622393Y-118363394D01*
X101629171Y-118351250D01*
X101621360Y-118339742D01*
X101497105Y-118235480D01*
X101491235Y-118231110D01*
X101204603Y-118042590D01*
X101198281Y-118038940D01*
X100891696Y-117884967D01*
X100884981Y-117882071D01*
X100562619Y-117764741D01*
X100555596Y-117762638D01*
X100221774Y-117683520D01*
X100214586Y-117682253D01*
X99873840Y-117642425D01*
X99866527Y-117642000D01*
X99523473Y-117642000D01*
X99516159Y-117642425D01*
X99175413Y-117682253D01*
X99168225Y-117683520D01*
X98834403Y-117762638D01*
X98827380Y-117764741D01*
X98505018Y-117882071D01*
X98498303Y-117884967D01*
X98191718Y-118038940D01*
X98185396Y-118042590D01*
X97898764Y-118231110D01*
X97892894Y-118235480D01*
X97768638Y-118339742D01*
X97760827Y-118351250D01*
X93809500Y-118351250D01*
X93809499Y-117364934D01*
X93794734Y-117290699D01*
X93775735Y-117262265D01*
X93759926Y-117228839D01*
X93754500Y-117192263D01*
X93754500Y-110462723D01*
X97114500Y-110462723D01*
X97114859Y-110469438D01*
X97120162Y-110518757D01*
X97123759Y-110533978D01*
X97168905Y-110655019D01*
X97177454Y-110670675D01*
X97254197Y-110773192D01*
X97266807Y-110785802D01*
X97369324Y-110862545D01*
X97384980Y-110871094D01*
X97506021Y-110916240D01*
X97521242Y-110919837D01*
X97570561Y-110925140D01*
X97577277Y-110925500D01*
X98229410Y-110925500D01*
X98242493Y-110921993D01*
X98246000Y-110908910D01*
X98754000Y-110908910D01*
X98757506Y-110921993D01*
X98770590Y-110925500D01*
X99422723Y-110925500D01*
X99429438Y-110925140D01*
X99478757Y-110919837D01*
X99493978Y-110916240D01*
X99615019Y-110871094D01*
X99630675Y-110862545D01*
X99733192Y-110785802D01*
X99745802Y-110773192D01*
X99822545Y-110670675D01*
X99831094Y-110655019D01*
X99876240Y-110533978D01*
X99879837Y-110518757D01*
X99885140Y-110469438D01*
X99885500Y-110462723D01*
X99885500Y-109810590D01*
X99881993Y-109797506D01*
X99868910Y-109794000D01*
X98770590Y-109794000D01*
X98757506Y-109797506D01*
X98754000Y-109810590D01*
X98754000Y-110908910D01*
X98246000Y-110908910D01*
X98246000Y-109810590D01*
X98242493Y-109797506D01*
X98229410Y-109794000D01*
X97131090Y-109794000D01*
X97118006Y-109797506D01*
X97114500Y-109810590D01*
X97114500Y-110462723D01*
X93754500Y-110462723D01*
X93754500Y-109269410D01*
X97114500Y-109269410D01*
X97118006Y-109282493D01*
X97131090Y-109286000D01*
X99868910Y-109286000D01*
X99881993Y-109282493D01*
X99885500Y-109269410D01*
X99885500Y-108617277D01*
X99885140Y-108610561D01*
X99879837Y-108561242D01*
X99876240Y-108546021D01*
X99831094Y-108424980D01*
X99822545Y-108409324D01*
X99745802Y-108306807D01*
X99733192Y-108294197D01*
X99630675Y-108217454D01*
X99615019Y-108208905D01*
X99493978Y-108163759D01*
X99478757Y-108160162D01*
X99429438Y-108154859D01*
X99422723Y-108154500D01*
X99228587Y-108154500D01*
X99166260Y-108138005D01*
X99120252Y-108092840D01*
X99102609Y-108030829D01*
X99117949Y-107968208D01*
X99162254Y-107921374D01*
X99185105Y-107907226D01*
X99340142Y-107765891D01*
X99466569Y-107598474D01*
X99560081Y-107410678D01*
X99617493Y-107208896D01*
X99636850Y-107000000D01*
X99617493Y-106791104D01*
X99560081Y-106589322D01*
X99466569Y-106401526D01*
X99340142Y-106234109D01*
X99335839Y-106230186D01*
X99335836Y-106230183D01*
X99189407Y-106096696D01*
X99189408Y-106096696D01*
X99185105Y-106092774D01*
X99105310Y-106043367D01*
X99011697Y-105985404D01*
X99011693Y-105985402D01*
X99006738Y-105982334D01*
X98811114Y-105906549D01*
X98805395Y-105905480D01*
X98805392Y-105905479D01*
X98610621Y-105869070D01*
X98610617Y-105869069D01*
X98604895Y-105868000D01*
X98395105Y-105868000D01*
X98389383Y-105869069D01*
X98389378Y-105869070D01*
X98194607Y-105905479D01*
X98194601Y-105905480D01*
X98188886Y-105906549D01*
X98183463Y-105908649D01*
X98183459Y-105908651D01*
X97998697Y-105980228D01*
X97998692Y-105980230D01*
X97993262Y-105982334D01*
X97988311Y-105985399D01*
X97988302Y-105985404D01*
X97819848Y-106089707D01*
X97814895Y-106092774D01*
X97810596Y-106096692D01*
X97810592Y-106096696D01*
X97664163Y-106230183D01*
X97664155Y-106230191D01*
X97659858Y-106234109D01*
X97656353Y-106238749D01*
X97656345Y-106238759D01*
X97536941Y-106396877D01*
X97536937Y-106396882D01*
X97533431Y-106401526D01*
X97530836Y-106406736D01*
X97530833Y-106406742D01*
X97442516Y-106584105D01*
X97442513Y-106584112D01*
X97439919Y-106589322D01*
X97382507Y-106791104D01*
X97363150Y-107000000D01*
X97382507Y-107208896D01*
X97439919Y-107410678D01*
X97533431Y-107598474D01*
X97536941Y-107603122D01*
X97656345Y-107761240D01*
X97656349Y-107761244D01*
X97659858Y-107765891D01*
X97664160Y-107769813D01*
X97664163Y-107769816D01*
X97754280Y-107851968D01*
X97814895Y-107907226D01*
X97837745Y-107921374D01*
X97882051Y-107968208D01*
X97897391Y-108030829D01*
X97879748Y-108092840D01*
X97833740Y-108138005D01*
X97771413Y-108154500D01*
X97577277Y-108154500D01*
X97570561Y-108154859D01*
X97521242Y-108160162D01*
X97506021Y-108163759D01*
X97384980Y-108208905D01*
X97369324Y-108217454D01*
X97266807Y-108294197D01*
X97254197Y-108306807D01*
X97177454Y-108409324D01*
X97168905Y-108424980D01*
X97123759Y-108546021D01*
X97120162Y-108561242D01*
X97114859Y-108610561D01*
X97114500Y-108617277D01*
X97114500Y-109269410D01*
X93754500Y-109269410D01*
X93754500Y-100164714D01*
X93764091Y-100116496D01*
X93791405Y-100075619D01*
X94714660Y-99152364D01*
X97488159Y-96378863D01*
X97502002Y-96366899D01*
X97521294Y-96352539D01*
X97553278Y-96314420D01*
X97560692Y-96306330D01*
X97564583Y-96302441D01*
X97583925Y-96277977D01*
X97586168Y-96275223D01*
X97634667Y-96217427D01*
X97637966Y-96210855D01*
X97639725Y-96208182D01*
X97640038Y-96207748D01*
X97640292Y-96207293D01*
X97641981Y-96204554D01*
X97646539Y-96198791D01*
X97678445Y-96130365D01*
X97679940Y-96127276D01*
X97713824Y-96059811D01*
X97715518Y-96052658D01*
X97716615Y-96049647D01*
X97716819Y-96049154D01*
X97716959Y-96048661D01*
X97717974Y-96045596D01*
X97721079Y-96038940D01*
X97736325Y-95965098D01*
X97737117Y-95961525D01*
X97737310Y-95960713D01*
X97754500Y-95888188D01*
X97754500Y-95880847D01*
X97754875Y-95877639D01*
X97754958Y-95877124D01*
X97754980Y-95876625D01*
X97755262Y-95873388D01*
X97756746Y-95866207D01*
X97754553Y-95790855D01*
X97754500Y-95787190D01*
X97754500Y-95656431D01*
X97771381Y-95593431D01*
X97781624Y-95575689D01*
X97781625Y-95575686D01*
X97784925Y-95569971D01*
X97840431Y-95399139D01*
X97859207Y-95220500D01*
X97840431Y-95041861D01*
X97784925Y-94871029D01*
X97695113Y-94715471D01*
X97574922Y-94581985D01*
X97569578Y-94578102D01*
X97569577Y-94578101D01*
X97463028Y-94500689D01*
X97429604Y-94476405D01*
X97265510Y-94403346D01*
X97259057Y-94401974D01*
X97259053Y-94401973D01*
X97096268Y-94367372D01*
X97096265Y-94367371D01*
X97089812Y-94366000D01*
X96910188Y-94366000D01*
X96903735Y-94367371D01*
X96903731Y-94367372D01*
X96740946Y-94401973D01*
X96740939Y-94401975D01*
X96734490Y-94403346D01*
X96728460Y-94406030D01*
X96728459Y-94406031D01*
X96576427Y-94473720D01*
X96576424Y-94473721D01*
X96570397Y-94476405D01*
X96565056Y-94480285D01*
X96565055Y-94480286D01*
X96430422Y-94578102D01*
X96430419Y-94578103D01*
X96425078Y-94581985D01*
X96420661Y-94586890D01*
X96420656Y-94586895D01*
X96309756Y-94710063D01*
X96304887Y-94715471D01*
X96301588Y-94721184D01*
X96301585Y-94721189D01*
X96218668Y-94864806D01*
X96215075Y-94871029D01*
X96213033Y-94877311D01*
X96213033Y-94877313D01*
X96161772Y-95035081D01*
X96159569Y-95041861D01*
X96140793Y-95220500D01*
X96141483Y-95227065D01*
X96158878Y-95392572D01*
X96158879Y-95392579D01*
X96159569Y-95399139D01*
X96171523Y-95435931D01*
X96178446Y-95457238D01*
X96181130Y-95525587D01*
X96147707Y-95585267D01*
X92511844Y-99221130D01*
X92497996Y-99233099D01*
X92484593Y-99243077D01*
X92484587Y-99243082D01*
X92478706Y-99247461D01*
X92473990Y-99253080D01*
X92473989Y-99253082D01*
X92446727Y-99285570D01*
X92439326Y-99293648D01*
X92438016Y-99294958D01*
X92438002Y-99294973D01*
X92435417Y-99297559D01*
X92433148Y-99300428D01*
X92433144Y-99300433D01*
X92416114Y-99321970D01*
X92413804Y-99324806D01*
X92370046Y-99376955D01*
X92370042Y-99376960D01*
X92365333Y-99382573D01*
X92362044Y-99389119D01*
X92360247Y-99391853D01*
X92359960Y-99392250D01*
X92359716Y-99392688D01*
X92358006Y-99395459D01*
X92353461Y-99401209D01*
X92350363Y-99407851D01*
X92350362Y-99407854D01*
X92321597Y-99469540D01*
X92320018Y-99472800D01*
X92286176Y-99540189D01*
X92284484Y-99547325D01*
X92283373Y-99550378D01*
X92283178Y-99550848D01*
X92283046Y-99551315D01*
X92282017Y-99554417D01*
X92278921Y-99561060D01*
X92277440Y-99568231D01*
X92277436Y-99568244D01*
X92263671Y-99634903D01*
X92262879Y-99638476D01*
X92247192Y-99704667D01*
X92247190Y-99704678D01*
X92245500Y-99711812D01*
X92245500Y-99719146D01*
X92245124Y-99722364D01*
X92245041Y-99722873D01*
X92245020Y-99723376D01*
X92244736Y-99726613D01*
X92243254Y-99733794D01*
X92243467Y-99741120D01*
X92243467Y-99741123D01*
X92245447Y-99809161D01*
X92245500Y-99812826D01*
X92245500Y-117009501D01*
X92228619Y-117072501D01*
X92182500Y-117118620D01*
X92119500Y-117135501D01*
X91839934Y-117135501D01*
X91833868Y-117136707D01*
X91833862Y-117136708D01*
X91777874Y-117147844D01*
X91777871Y-117147844D01*
X91765699Y-117150266D01*
X91755379Y-117157161D01*
X91755378Y-117157162D01*
X91691832Y-117199622D01*
X91691829Y-117199624D01*
X91681516Y-117206516D01*
X91674624Y-117216829D01*
X91674622Y-117216832D01*
X91632161Y-117280379D01*
X91632159Y-117280381D01*
X91625266Y-117290699D01*
X91622845Y-117302867D01*
X91622844Y-117302871D01*
X91611707Y-117358864D01*
X91610500Y-117364933D01*
X91610500Y-117371118D01*
X91610500Y-117371119D01*
X91610500Y-119098877D01*
X91610500Y-119098887D01*
X90854403Y-119098887D01*
X90986021Y-118978901D01*
X91108818Y-118816292D01*
X91199645Y-118633887D01*
X91255409Y-118437898D01*
X91274210Y-118235000D01*
X91255409Y-118032102D01*
X91199645Y-117836113D01*
X91108818Y-117653708D01*
X91105306Y-117649057D01*
X90989533Y-117495749D01*
X90989530Y-117495745D01*
X90986021Y-117491099D01*
X90981717Y-117487175D01*
X90981714Y-117487172D01*
X90965613Y-117472494D01*
X90935236Y-117430273D01*
X90924500Y-117379380D01*
X90924500Y-99594714D01*
X90934091Y-99546496D01*
X90961405Y-99505619D01*
X91815894Y-98651130D01*
X94468159Y-95998863D01*
X94482002Y-95986899D01*
X94501294Y-95972539D01*
X94533278Y-95934420D01*
X94540692Y-95926330D01*
X94544583Y-95922441D01*
X94563925Y-95897977D01*
X94566168Y-95895223D01*
X94614667Y-95837427D01*
X94617966Y-95830855D01*
X94619725Y-95828182D01*
X94620038Y-95827748D01*
X94620292Y-95827293D01*
X94621981Y-95824554D01*
X94626539Y-95818791D01*
X94657967Y-95751391D01*
X94670228Y-95730577D01*
X94670691Y-95729939D01*
X94675113Y-95725029D01*
X94764925Y-95569471D01*
X94820431Y-95398639D01*
X94839207Y-95220000D01*
X94820431Y-95041361D01*
X94764925Y-94870529D01*
X94675113Y-94714971D01*
X94554922Y-94581485D01*
X94549578Y-94577602D01*
X94549577Y-94577601D01*
X94435846Y-94494971D01*
X94409604Y-94475905D01*
X94245510Y-94402846D01*
X94239057Y-94401474D01*
X94239053Y-94401473D01*
X94076268Y-94366872D01*
X94076265Y-94366871D01*
X94069812Y-94365500D01*
X93890188Y-94365500D01*
X93883735Y-94366871D01*
X93883731Y-94366872D01*
X93720946Y-94401473D01*
X93720939Y-94401475D01*
X93714490Y-94402846D01*
X93708460Y-94405530D01*
X93708459Y-94405531D01*
X93556427Y-94473220D01*
X93556424Y-94473221D01*
X93550397Y-94475905D01*
X93545056Y-94479785D01*
X93545055Y-94479786D01*
X93410422Y-94577602D01*
X93410419Y-94577603D01*
X93405078Y-94581485D01*
X93400661Y-94586390D01*
X93400656Y-94586395D01*
X93289306Y-94710063D01*
X93284887Y-94714971D01*
X93281588Y-94720684D01*
X93281585Y-94720689D01*
X93202994Y-94856813D01*
X93195075Y-94870529D01*
X93193033Y-94876811D01*
X93193033Y-94876813D01*
X93143935Y-95027925D01*
X93139569Y-95041361D01*
X93138879Y-95047922D01*
X93138879Y-95047924D01*
X93126374Y-95166891D01*
X93114789Y-95207964D01*
X93090159Y-95242814D01*
X89681844Y-98651130D01*
X89667996Y-98663099D01*
X89654593Y-98673077D01*
X89654587Y-98673082D01*
X89648706Y-98677461D01*
X89643990Y-98683080D01*
X89643989Y-98683082D01*
X89616727Y-98715570D01*
X89609326Y-98723648D01*
X89608016Y-98724958D01*
X89608002Y-98724973D01*
X89605417Y-98727559D01*
X89603148Y-98730428D01*
X89603144Y-98730433D01*
X89586114Y-98751970D01*
X89583804Y-98754806D01*
X89540046Y-98806955D01*
X89540042Y-98806960D01*
X89535333Y-98812573D01*
X89532044Y-98819119D01*
X89530247Y-98821853D01*
X89529960Y-98822250D01*
X89529716Y-98822688D01*
X89528006Y-98825459D01*
X89523461Y-98831209D01*
X89520363Y-98837851D01*
X89520362Y-98837854D01*
X89491597Y-98899540D01*
X89490018Y-98902800D01*
X89456176Y-98970189D01*
X89454484Y-98977325D01*
X89453373Y-98980378D01*
X89453178Y-98980848D01*
X89453046Y-98981315D01*
X89452017Y-98984417D01*
X89448921Y-98991060D01*
X89447440Y-98998231D01*
X89447436Y-98998244D01*
X89433671Y-99064903D01*
X89432879Y-99068476D01*
X89417192Y-99134667D01*
X89417190Y-99134678D01*
X89415500Y-99141812D01*
X89415500Y-99149146D01*
X89415124Y-99152364D01*
X89415041Y-99152873D01*
X89415020Y-99153376D01*
X89414736Y-99156613D01*
X89413254Y-99163794D01*
X89413467Y-99171120D01*
X89413467Y-99171123D01*
X89415447Y-99239161D01*
X89415500Y-99242826D01*
X89415500Y-117379380D01*
X89404764Y-117430273D01*
X89374387Y-117472494D01*
X89358285Y-117487172D01*
X89358276Y-117487181D01*
X89353979Y-117491099D01*
X89350474Y-117495739D01*
X89350466Y-117495749D01*
X89234693Y-117649057D01*
X89234687Y-117649066D01*
X89231182Y-117653708D01*
X89228588Y-117658915D01*
X89228585Y-117658922D01*
X89142949Y-117830902D01*
X89142946Y-117830908D01*
X89140355Y-117836113D01*
X89138763Y-117841706D01*
X89138761Y-117841713D01*
X89114797Y-117925939D01*
X89084591Y-118032102D01*
X89084054Y-118037894D01*
X89084054Y-118037896D01*
X89080998Y-118070879D01*
X89065790Y-118235000D01*
X88734210Y-118235000D01*
X88715409Y-118032102D01*
X88659645Y-117836113D01*
X88568818Y-117653708D01*
X88565306Y-117649057D01*
X88449533Y-117495749D01*
X88449530Y-117495745D01*
X88446021Y-117491099D01*
X88441717Y-117487175D01*
X88441714Y-117487172D01*
X88425613Y-117472494D01*
X88395236Y-117430273D01*
X88384500Y-117379380D01*
X88384500Y-111824147D01*
X88385830Y-111805885D01*
X88389315Y-111782094D01*
X88384979Y-111732532D01*
X88384500Y-111721551D01*
X88384500Y-111719729D01*
X88384500Y-111716059D01*
X88380880Y-111685092D01*
X88380519Y-111681559D01*
X88373943Y-111606388D01*
X88371631Y-111599412D01*
X88370980Y-111596260D01*
X88370897Y-111595745D01*
X88370752Y-111595233D01*
X88370012Y-111592110D01*
X88369160Y-111584816D01*
X88343362Y-111513939D01*
X88342175Y-111510523D01*
X88320771Y-111445928D01*
X88318464Y-111438965D01*
X88314612Y-111432720D01*
X88313248Y-111429795D01*
X88313048Y-111429313D01*
X88312801Y-111428870D01*
X88311345Y-111425971D01*
X88308836Y-111419076D01*
X88267386Y-111356055D01*
X88265483Y-111353068D01*
X88225871Y-111288846D01*
X88220679Y-111283654D01*
X88218673Y-111281117D01*
X88218372Y-111280701D01*
X88218027Y-111280324D01*
X88215945Y-111277843D01*
X88211915Y-111271715D01*
X88157096Y-111219996D01*
X88154467Y-111217442D01*
X86384218Y-109447193D01*
X84611404Y-107674380D01*
X84584091Y-107633504D01*
X84574500Y-107585286D01*
X84574500Y-96515215D01*
X84584091Y-96466997D01*
X84611404Y-96426120D01*
X84701017Y-96336507D01*
X84972027Y-96065495D01*
X85015929Y-96038596D01*
X85015510Y-96037654D01*
X85028777Y-96031747D01*
X85179604Y-95964595D01*
X85324922Y-95859015D01*
X85445113Y-95725529D01*
X85534925Y-95569971D01*
X85590431Y-95399139D01*
X85609207Y-95220500D01*
X85590431Y-95041861D01*
X85534925Y-94871029D01*
X85445113Y-94715471D01*
X85324922Y-94581985D01*
X85319578Y-94578102D01*
X85319577Y-94578101D01*
X85213028Y-94500689D01*
X85179604Y-94476405D01*
X85015510Y-94403346D01*
X85009057Y-94401974D01*
X85009053Y-94401973D01*
X84846268Y-94367372D01*
X84846265Y-94367371D01*
X84839812Y-94366000D01*
X84660188Y-94366000D01*
X84653735Y-94367371D01*
X84653731Y-94367372D01*
X84490946Y-94401973D01*
X84490939Y-94401975D01*
X84484490Y-94403346D01*
X84478460Y-94406030D01*
X84478459Y-94406031D01*
X84326427Y-94473720D01*
X84326424Y-94473721D01*
X84320397Y-94476405D01*
X84315056Y-94480285D01*
X84315055Y-94480286D01*
X84180422Y-94578102D01*
X84180419Y-94578103D01*
X84175078Y-94581985D01*
X84170661Y-94586890D01*
X84170656Y-94586895D01*
X84059756Y-94710063D01*
X84054887Y-94715471D01*
X84051588Y-94721184D01*
X84051585Y-94721189D01*
X83974791Y-94854200D01*
X83935398Y-94896149D01*
X83881462Y-94916207D01*
X83824233Y-94910191D01*
X83775646Y-94879356D01*
X83749504Y-94836188D01*
X83748654Y-94836567D01*
X83745969Y-94830536D01*
X83743928Y-94824254D01*
X83654116Y-94668696D01*
X83533925Y-94535210D01*
X83528581Y-94531327D01*
X83528580Y-94531326D01*
X83452299Y-94475905D01*
X83388607Y-94429630D01*
X83224513Y-94356571D01*
X83218060Y-94355199D01*
X83218056Y-94355198D01*
X83055271Y-94320597D01*
X83055268Y-94320596D01*
X83048815Y-94319225D01*
X82869191Y-94319225D01*
X82862738Y-94320596D01*
X82862734Y-94320597D01*
X82699949Y-94355198D01*
X82699942Y-94355200D01*
X82693493Y-94356571D01*
X82687463Y-94359255D01*
X82687462Y-94359256D01*
X82535430Y-94426945D01*
X82535427Y-94426946D01*
X82529400Y-94429630D01*
X82524059Y-94433510D01*
X82524058Y-94433511D01*
X82389425Y-94531327D01*
X82389422Y-94531328D01*
X82384081Y-94535210D01*
X82379664Y-94540115D01*
X82379659Y-94540120D01*
X82274602Y-94656799D01*
X82263890Y-94668696D01*
X82260591Y-94674409D01*
X82260588Y-94674414D01*
X82204411Y-94771716D01*
X82174078Y-94824254D01*
X82172039Y-94830528D01*
X82172036Y-94830536D01*
X82150999Y-94895283D01*
X82120261Y-94945441D01*
X81426844Y-95638858D01*
X81412996Y-95650827D01*
X81399593Y-95660805D01*
X81399587Y-95660810D01*
X81393706Y-95665189D01*
X81388990Y-95670808D01*
X81388989Y-95670810D01*
X81361727Y-95703298D01*
X81354326Y-95711376D01*
X81353016Y-95712686D01*
X81353002Y-95712701D01*
X81350417Y-95715287D01*
X81348148Y-95718156D01*
X81348144Y-95718161D01*
X81331114Y-95739698D01*
X81328804Y-95742534D01*
X81285046Y-95794683D01*
X81285042Y-95794688D01*
X81280333Y-95800301D01*
X81277044Y-95806847D01*
X81275247Y-95809581D01*
X81274960Y-95809978D01*
X81274716Y-95810416D01*
X81273006Y-95813187D01*
X81268461Y-95818937D01*
X81265363Y-95825579D01*
X81265362Y-95825582D01*
X81236597Y-95887268D01*
X81235018Y-95890528D01*
X81201176Y-95957917D01*
X81199484Y-95965053D01*
X81198373Y-95968106D01*
X81198178Y-95968576D01*
X81198046Y-95969043D01*
X81197017Y-95972145D01*
X81193921Y-95978788D01*
X81192440Y-95985959D01*
X81192436Y-95985972D01*
X81178671Y-96052631D01*
X81177879Y-96056204D01*
X81162192Y-96122395D01*
X81162190Y-96122406D01*
X81160500Y-96129540D01*
X81160500Y-96136874D01*
X81160124Y-96140092D01*
X81160041Y-96140601D01*
X81160020Y-96141104D01*
X81159736Y-96144341D01*
X81158254Y-96151522D01*
X81158467Y-96158848D01*
X81158467Y-96158851D01*
X81160447Y-96226889D01*
X81160500Y-96230554D01*
X81160500Y-116775853D01*
X81159170Y-116794115D01*
X81156748Y-116810645D01*
X81156747Y-116810650D01*
X81155685Y-116817906D01*
X77319116Y-116817906D01*
X77888159Y-116248863D01*
X77902002Y-116236899D01*
X77921294Y-116222539D01*
X77953278Y-116184420D01*
X77960692Y-116176330D01*
X77964583Y-116172441D01*
X77983925Y-116147977D01*
X77986168Y-116145223D01*
X78034667Y-116087427D01*
X78037966Y-116080855D01*
X78039725Y-116078182D01*
X78040038Y-116077748D01*
X78040292Y-116077293D01*
X78041981Y-116074554D01*
X78046539Y-116068791D01*
X78078445Y-116000365D01*
X78079940Y-115997276D01*
X78113824Y-115929811D01*
X78115518Y-115922658D01*
X78116615Y-115919647D01*
X78116819Y-115919153D01*
X78116959Y-115918662D01*
X78117975Y-115915594D01*
X78121079Y-115908940D01*
X78136329Y-115835081D01*
X78137120Y-115831515D01*
X78154500Y-115758188D01*
X78154500Y-115750844D01*
X78154875Y-115747637D01*
X78154958Y-115747122D01*
X78154980Y-115746624D01*
X78155262Y-115743388D01*
X78156746Y-115736206D01*
X78154553Y-115660839D01*
X78154500Y-115657174D01*
X78154500Y-97864147D01*
X78155830Y-97845885D01*
X78159315Y-97822094D01*
X78154979Y-97772532D01*
X78154500Y-97761551D01*
X78154500Y-97759729D01*
X78154500Y-97756059D01*
X78150880Y-97725092D01*
X78150519Y-97721559D01*
X78143943Y-97646388D01*
X78141631Y-97639412D01*
X78140980Y-97636260D01*
X78140897Y-97635745D01*
X78140752Y-97635233D01*
X78140012Y-97632110D01*
X78139160Y-97624816D01*
X78113362Y-97553939D01*
X78112175Y-97550523D01*
X78090771Y-97485928D01*
X78088464Y-97478965D01*
X78084612Y-97472720D01*
X78083248Y-97469795D01*
X78083048Y-97469313D01*
X78082801Y-97468870D01*
X78081345Y-97465971D01*
X78078836Y-97459076D01*
X78037381Y-97396047D01*
X78035439Y-97392998D01*
X77999727Y-97335098D01*
X77999725Y-97335095D01*
X77995871Y-97328847D01*
X77990673Y-97323649D01*
X77988678Y-97321126D01*
X77988372Y-97320702D01*
X77988033Y-97320332D01*
X77985948Y-97317847D01*
X77981915Y-97311715D01*
X77927078Y-97259979D01*
X77924449Y-97257425D01*
X76172236Y-95505212D01*
X76140516Y-95451891D01*
X76138458Y-95399310D01*
X76136831Y-95399139D01*
X76154917Y-95227065D01*
X76155607Y-95220500D01*
X76136831Y-95041861D01*
X76081325Y-94871029D01*
X75991513Y-94715471D01*
X75871322Y-94581985D01*
X75865978Y-94578102D01*
X75865977Y-94578101D01*
X75759428Y-94500689D01*
X75726004Y-94476405D01*
X75561910Y-94403346D01*
X75555457Y-94401974D01*
X75555453Y-94401973D01*
X75392668Y-94367372D01*
X75392665Y-94367371D01*
X75386212Y-94366000D01*
X75206588Y-94366000D01*
X75200135Y-94367371D01*
X75200131Y-94367372D01*
X75037346Y-94401973D01*
X75037339Y-94401975D01*
X75030890Y-94403346D01*
X75024860Y-94406030D01*
X75024859Y-94406031D01*
X74872827Y-94473720D01*
X74872824Y-94473721D01*
X74866797Y-94476405D01*
X74861456Y-94480285D01*
X74861455Y-94480286D01*
X74726822Y-94578102D01*
X74726819Y-94578103D01*
X74721478Y-94581985D01*
X74717061Y-94586890D01*
X74717056Y-94586895D01*
X74606156Y-94710063D01*
X74601287Y-94715471D01*
X74597988Y-94721184D01*
X74597985Y-94721189D01*
X74515068Y-94864806D01*
X74511475Y-94871029D01*
X74509433Y-94877311D01*
X74509433Y-94877313D01*
X74458172Y-95035081D01*
X74455969Y-95041861D01*
X74437193Y-95220500D01*
X74455969Y-95399139D01*
X74458008Y-95405416D01*
X74458009Y-95405418D01*
X74509435Y-95563694D01*
X74509436Y-95563698D01*
X74511475Y-95569971D01*
X74514771Y-95575681D01*
X74514774Y-95575686D01*
X74522193Y-95588535D01*
X74536829Y-95627851D01*
X74537524Y-95659684D01*
X74538362Y-95659709D01*
X74538148Y-95667047D01*
X74537085Y-95674306D01*
X74537724Y-95681611D01*
X74537724Y-95681615D01*
X74541421Y-95723868D01*
X74541900Y-95734849D01*
X74541900Y-95740341D01*
X74545516Y-95771292D01*
X74545884Y-95774895D01*
X74552457Y-95850012D01*
X74554765Y-95856978D01*
X74555421Y-95860153D01*
X74555501Y-95860651D01*
X74555642Y-95861147D01*
X74556388Y-95864294D01*
X74557240Y-95871584D01*
X74559749Y-95878479D01*
X74559750Y-95878481D01*
X74583024Y-95942427D01*
X74584224Y-95945880D01*
X74607936Y-96017436D01*
X74611786Y-96023678D01*
X74613153Y-96026609D01*
X74613352Y-96027091D01*
X74613596Y-96027527D01*
X74615057Y-96030436D01*
X74617564Y-96037324D01*
X74636093Y-96065497D01*
X74659001Y-96100326D01*
X74660946Y-96103379D01*
X74700530Y-96167554D01*
X74705724Y-96172748D01*
X74707720Y-96175272D01*
X74708027Y-96175697D01*
X74708363Y-96176064D01*
X74710452Y-96178554D01*
X74714485Y-96184685D01*
X74749190Y-96217427D01*
X74769320Y-96236419D01*
X74771949Y-96238973D01*
X76608595Y-98075619D01*
X76635909Y-98116496D01*
X76645500Y-98164714D01*
X76645500Y-115305286D01*
X76635909Y-115353504D01*
X76608597Y-115394378D01*
X75227122Y-116775853D01*
X74879379Y-117123596D01*
X74838502Y-117150909D01*
X74790284Y-117160500D01*
X74527092Y-117160500D01*
X74037099Y-117160500D01*
X73974100Y-117143620D01*
X73927981Y-117097501D01*
X73911100Y-117034501D01*
X73911100Y-109582869D01*
X73912430Y-109564607D01*
X73915915Y-109540816D01*
X73911579Y-109491254D01*
X73911100Y-109480273D01*
X73911100Y-109478451D01*
X73911100Y-109474781D01*
X73907480Y-109443814D01*
X73907119Y-109440281D01*
X73900543Y-109365110D01*
X73898231Y-109358134D01*
X73897580Y-109354982D01*
X73897497Y-109354467D01*
X73897352Y-109353955D01*
X73896612Y-109350832D01*
X73895760Y-109343538D01*
X73869962Y-109272661D01*
X73868775Y-109269245D01*
X73856460Y-109232081D01*
X73845064Y-109197687D01*
X73841212Y-109191442D01*
X73839848Y-109188517D01*
X73839648Y-109188035D01*
X73839401Y-109187592D01*
X73837945Y-109184693D01*
X73835436Y-109177798D01*
X73793986Y-109114777D01*
X73792083Y-109111790D01*
X73752471Y-109047568D01*
X73747279Y-109042376D01*
X73745273Y-109039839D01*
X73744972Y-109039423D01*
X73744627Y-109039046D01*
X73742545Y-109036565D01*
X73738515Y-109030437D01*
X73683694Y-108978716D01*
X73681065Y-108976162D01*
X73562405Y-108857502D01*
X73535091Y-108816625D01*
X73525500Y-108768407D01*
X73525500Y-95686160D01*
X73542381Y-95623160D01*
X73576718Y-95563686D01*
X73584925Y-95549471D01*
X73640431Y-95378639D01*
X73659207Y-95200000D01*
X73640431Y-95021361D01*
X73584925Y-94850529D01*
X73495113Y-94694971D01*
X73374922Y-94561485D01*
X73369578Y-94557602D01*
X73369577Y-94557601D01*
X73291244Y-94500689D01*
X73229604Y-94455905D01*
X73065510Y-94382846D01*
X73059057Y-94381474D01*
X73059053Y-94381473D01*
X72896268Y-94346872D01*
X72896265Y-94346871D01*
X72889812Y-94345500D01*
X72710188Y-94345500D01*
X72703735Y-94346871D01*
X72703731Y-94346872D01*
X72540946Y-94381473D01*
X72540939Y-94381475D01*
X72534490Y-94382846D01*
X72528460Y-94385530D01*
X72528459Y-94385531D01*
X72376427Y-94453220D01*
X72376424Y-94453221D01*
X72370397Y-94455905D01*
X72365056Y-94459785D01*
X72365055Y-94459786D01*
X72230422Y-94557602D01*
X72230419Y-94557603D01*
X72225078Y-94561485D01*
X72220661Y-94566390D01*
X72220656Y-94566395D01*
X72109306Y-94690063D01*
X72104887Y-94694971D01*
X72101588Y-94700684D01*
X72101585Y-94700689D01*
X72026618Y-94830536D01*
X72015075Y-94850529D01*
X72013033Y-94856811D01*
X72013033Y-94856813D01*
X71966510Y-95000000D01*
X71959569Y-95021361D01*
X71940793Y-95200000D01*
X71959569Y-95378639D01*
X72002229Y-95509936D01*
X72010333Y-95534876D01*
X72016500Y-95573812D01*
X72016500Y-109068975D01*
X72015170Y-109087237D01*
X72012748Y-109103767D01*
X72012747Y-109103772D01*
X72011685Y-109111028D01*
X72012324Y-109118333D01*
X72012324Y-109118337D01*
X72016021Y-109160590D01*
X72016500Y-109171571D01*
X72016500Y-109177063D01*
X72020116Y-109208014D01*
X72020484Y-109211617D01*
X72020758Y-109214747D01*
X72027057Y-109286734D01*
X72029365Y-109293700D01*
X72030021Y-109296875D01*
X72030101Y-109297373D01*
X72030242Y-109297869D01*
X72030988Y-109301016D01*
X72031840Y-109308306D01*
X72034349Y-109315201D01*
X72034350Y-109315203D01*
X72057624Y-109379149D01*
X72058824Y-109382602D01*
X72082536Y-109454158D01*
X72086386Y-109460400D01*
X72087753Y-109463331D01*
X72087952Y-109463813D01*
X72088196Y-109464249D01*
X72089657Y-109467158D01*
X72092164Y-109474046D01*
X72128311Y-109529006D01*
X72133601Y-109537048D01*
X72135546Y-109540101D01*
X72175130Y-109604276D01*
X72180324Y-109609470D01*
X72182320Y-109611994D01*
X72182627Y-109612419D01*
X72182963Y-109612786D01*
X72185052Y-109615276D01*
X72189085Y-109621407D01*
X72194423Y-109626443D01*
X72243920Y-109673141D01*
X72246549Y-109675695D01*
X72365195Y-109794341D01*
X72392509Y-109835218D01*
X72402100Y-109883436D01*
X72402100Y-117008685D01*
X72392509Y-117056903D01*
X72365195Y-117097780D01*
X72339380Y-117123595D01*
X72298503Y-117150909D01*
X72250285Y-117160500D01*
X72168116Y-117160500D01*
X72162397Y-117161569D01*
X72162387Y-117161570D01*
X71973544Y-117196872D01*
X71973535Y-117196874D01*
X71967819Y-117197943D01*
X71962398Y-117200042D01*
X71962391Y-117200045D01*
X71783245Y-117269446D01*
X71783237Y-117269449D01*
X71777811Y-117271552D01*
X71772860Y-117274617D01*
X71772851Y-117274622D01*
X71626993Y-117364934D01*
X71604565Y-117378821D01*
X71600266Y-117382739D01*
X71600262Y-117382743D01*
X71458284Y-117512173D01*
X71458276Y-117512181D01*
X71453979Y-117516099D01*
X71450474Y-117520739D01*
X71450466Y-117520749D01*
X71334693Y-117674057D01*
X71334687Y-117674066D01*
X71331182Y-117678708D01*
X71328588Y-117683915D01*
X71328585Y-117683922D01*
X71242949Y-117855902D01*
X71242946Y-117855908D01*
X71240355Y-117861113D01*
X71238763Y-117866706D01*
X71238761Y-117866713D01*
X71188720Y-118042590D01*
X71184591Y-118057102D01*
X71165790Y-118260000D01*
X70834210Y-118260000D01*
X70815409Y-118057102D01*
X70759645Y-117861113D01*
X70668818Y-117678708D01*
X70665306Y-117674057D01*
X70549533Y-117520749D01*
X70549530Y-117520745D01*
X70546021Y-117516099D01*
X70541717Y-117512175D01*
X70541714Y-117512172D01*
X70525613Y-117497494D01*
X70495236Y-117455273D01*
X70484500Y-117404380D01*
X70484500Y-115994147D01*
X70485830Y-115975885D01*
X70489315Y-115952094D01*
X70484979Y-115902532D01*
X70484500Y-115891551D01*
X70484500Y-115889729D01*
X70484500Y-115886059D01*
X70480880Y-115855092D01*
X70480519Y-115851559D01*
X70473943Y-115776388D01*
X70471631Y-115769412D01*
X70470980Y-115766260D01*
X70470897Y-115765745D01*
X70470752Y-115765233D01*
X70470012Y-115762110D01*
X70469160Y-115754816D01*
X70443362Y-115683939D01*
X70442175Y-115680523D01*
X70435049Y-115659018D01*
X70418464Y-115608965D01*
X70414612Y-115602720D01*
X70413248Y-115599795D01*
X70413048Y-115599313D01*
X70412801Y-115598870D01*
X70411345Y-115595971D01*
X70408836Y-115589076D01*
X70367381Y-115526047D01*
X70365439Y-115522998D01*
X70329727Y-115465098D01*
X70329725Y-115465095D01*
X70325871Y-115458847D01*
X70320673Y-115453649D01*
X70318678Y-115451126D01*
X70318372Y-115450702D01*
X70318033Y-115450332D01*
X70315948Y-115447847D01*
X70311915Y-115441715D01*
X70282303Y-115413778D01*
X70257078Y-115389979D01*
X70254449Y-115387425D01*
X68341405Y-113474381D01*
X68314091Y-113433504D01*
X68304500Y-113385286D01*
X68304500Y-99214140D01*
X68305830Y-99195879D01*
X68305908Y-99195345D01*
X68309314Y-99172093D01*
X68304979Y-99122539D01*
X68304500Y-99111558D01*
X68304500Y-99109728D01*
X68304500Y-99106059D01*
X68300877Y-99075072D01*
X68300516Y-99071532D01*
X68293943Y-98996388D01*
X68291633Y-98989419D01*
X68290980Y-98986255D01*
X68290898Y-98985750D01*
X68290752Y-98985234D01*
X68290012Y-98982112D01*
X68289160Y-98974816D01*
X68263361Y-98903935D01*
X68262204Y-98900606D01*
X68238464Y-98828964D01*
X68234609Y-98822715D01*
X68233249Y-98819798D01*
X68233046Y-98819309D01*
X68232796Y-98818860D01*
X68231344Y-98815970D01*
X68228836Y-98809076D01*
X68193142Y-98754806D01*
X68187404Y-98746081D01*
X68185436Y-98742991D01*
X68149726Y-98685096D01*
X68149721Y-98685090D01*
X68145870Y-98678846D01*
X68140677Y-98673653D01*
X68138678Y-98671125D01*
X68138373Y-98670704D01*
X68138033Y-98670332D01*
X68135948Y-98667847D01*
X68131915Y-98661715D01*
X68077078Y-98609979D01*
X68074449Y-98607425D01*
X64238740Y-94771716D01*
X64208003Y-94721560D01*
X64184925Y-94650529D01*
X64095113Y-94494971D01*
X63974922Y-94361485D01*
X63969578Y-94357602D01*
X63969577Y-94357601D01*
X63896745Y-94304686D01*
X63829604Y-94255905D01*
X63665510Y-94182846D01*
X63659057Y-94181474D01*
X63659053Y-94181473D01*
X63496268Y-94146872D01*
X63496265Y-94146871D01*
X63489812Y-94145500D01*
X63310188Y-94145500D01*
X63303735Y-94146871D01*
X63303731Y-94146872D01*
X63140946Y-94181473D01*
X63140939Y-94181475D01*
X63134490Y-94182846D01*
X63128460Y-94185530D01*
X63128459Y-94185531D01*
X62976427Y-94253220D01*
X62976424Y-94253221D01*
X62970397Y-94255905D01*
X62965056Y-94259785D01*
X62965055Y-94259786D01*
X62830422Y-94357602D01*
X62830419Y-94357603D01*
X62825078Y-94361485D01*
X62820661Y-94366390D01*
X62820656Y-94366395D01*
X62718109Y-94480286D01*
X62704887Y-94494971D01*
X62701588Y-94500684D01*
X62701585Y-94500689D01*
X62654649Y-94581985D01*
X62615075Y-94650529D01*
X62613033Y-94656811D01*
X62613033Y-94656813D01*
X62594137Y-94714971D01*
X62559569Y-94821361D01*
X62540793Y-95000000D01*
X62559569Y-95178639D01*
X62561608Y-95184916D01*
X62561609Y-95184918D01*
X62569097Y-95207964D01*
X62615075Y-95349471D01*
X62704887Y-95505029D01*
X62825078Y-95638515D01*
X62830420Y-95642396D01*
X62830422Y-95642398D01*
X62869528Y-95670810D01*
X62970396Y-95744095D01*
X63119356Y-95810416D01*
X63134490Y-95817154D01*
X63134070Y-95818095D01*
X63177973Y-95844997D01*
X66758595Y-99425619D01*
X66785909Y-99466496D01*
X66795500Y-99514714D01*
X66795500Y-113424286D01*
X66781767Y-113481489D01*
X66743561Y-113526222D01*
X66689211Y-113548735D01*
X66630564Y-113544119D01*
X66580405Y-113513381D01*
X61841405Y-108774381D01*
X61814091Y-108733504D01*
X61804500Y-108685286D01*
X61804500Y-95435931D01*
X61821381Y-95372931D01*
X61831624Y-95355189D01*
X61831625Y-95355186D01*
X61834925Y-95349471D01*
X61890431Y-95178639D01*
X61909207Y-95000000D01*
X61890431Y-94821361D01*
X61834925Y-94650529D01*
X61745113Y-94494971D01*
X61624922Y-94361485D01*
X61619578Y-94357602D01*
X61619577Y-94357601D01*
X61546745Y-94304686D01*
X61479604Y-94255905D01*
X61315510Y-94182846D01*
X61309057Y-94181474D01*
X61309053Y-94181473D01*
X61146268Y-94146872D01*
X61146265Y-94146871D01*
X61139812Y-94145500D01*
X60960188Y-94145500D01*
X60953735Y-94146871D01*
X60953731Y-94146872D01*
X60790946Y-94181473D01*
X60790939Y-94181475D01*
X60784490Y-94182846D01*
X60778460Y-94185530D01*
X60778459Y-94185531D01*
X60626427Y-94253220D01*
X60626424Y-94253221D01*
X60620397Y-94255905D01*
X60615056Y-94259785D01*
X60615055Y-94259786D01*
X60480422Y-94357602D01*
X60480419Y-94357603D01*
X60475078Y-94361485D01*
X60470661Y-94366390D01*
X60470656Y-94366395D01*
X60368109Y-94480286D01*
X60354887Y-94494971D01*
X60351588Y-94500684D01*
X60351585Y-94500689D01*
X60304649Y-94581985D01*
X60265075Y-94650529D01*
X60263033Y-94656811D01*
X60263033Y-94656813D01*
X60244137Y-94714971D01*
X60209569Y-94821361D01*
X60190793Y-95000000D01*
X56515000Y-95000000D01*
X56515000Y-84000000D01*
X66525790Y-84000000D01*
X66544591Y-84202898D01*
X66600355Y-84398887D01*
X66602948Y-84404094D01*
X66602949Y-84404097D01*
X66688585Y-84576077D01*
X66691182Y-84581292D01*
X66694690Y-84585938D01*
X66694693Y-84585942D01*
X66810466Y-84739250D01*
X66810470Y-84739254D01*
X66813979Y-84743901D01*
X66964565Y-84881179D01*
X67137811Y-84988448D01*
X67327819Y-85062057D01*
X67528116Y-85099500D01*
X67726059Y-85099500D01*
X67731884Y-85099500D01*
X67932181Y-85062057D01*
X68122189Y-84988448D01*
X68295435Y-84881179D01*
X68446021Y-84743901D01*
X68568818Y-84581292D01*
X68659645Y-84398887D01*
X68715409Y-84202898D01*
X68734210Y-84000000D01*
X69065790Y-84000000D01*
X69084591Y-84202898D01*
X69140355Y-84398887D01*
X69142948Y-84404094D01*
X69142949Y-84404097D01*
X69228585Y-84576077D01*
X69231182Y-84581292D01*
X69234690Y-84585938D01*
X69234693Y-84585942D01*
X69350466Y-84739250D01*
X69350470Y-84739254D01*
X69353979Y-84743901D01*
X69504565Y-84881179D01*
X69677811Y-84988448D01*
X69867819Y-85062057D01*
X70068116Y-85099500D01*
X70266059Y-85099500D01*
X70271884Y-85099500D01*
X70472181Y-85062057D01*
X70662189Y-84988448D01*
X70835435Y-84881179D01*
X70986021Y-84743901D01*
X71108818Y-84581292D01*
X71199645Y-84398887D01*
X71255409Y-84202898D01*
X71274210Y-84000000D01*
X71605790Y-84000000D01*
X71624591Y-84202898D01*
X71680355Y-84398887D01*
X71682948Y-84404094D01*
X71682949Y-84404097D01*
X71768585Y-84576077D01*
X71771182Y-84581292D01*
X71774690Y-84585938D01*
X71774693Y-84585942D01*
X71890466Y-84739250D01*
X71890470Y-84739254D01*
X71893979Y-84743901D01*
X72044565Y-84881179D01*
X72217811Y-84988448D01*
X72407819Y-85062057D01*
X72608116Y-85099500D01*
X72806059Y-85099500D01*
X72811884Y-85099500D01*
X73012181Y-85062057D01*
X73202189Y-84988448D01*
X73375435Y-84881179D01*
X73394403Y-84863887D01*
X74150500Y-84863887D01*
X74150501Y-84870066D01*
X74151707Y-84876132D01*
X74151708Y-84876137D01*
X74162844Y-84932125D01*
X74165266Y-84944301D01*
X74172162Y-84954621D01*
X74207913Y-85008127D01*
X74221516Y-85028484D01*
X74305699Y-85084734D01*
X74379933Y-85099500D01*
X76120066Y-85099499D01*
X76194301Y-85084734D01*
X76278484Y-85028484D01*
X76334734Y-84944301D01*
X76349500Y-84870067D01*
X76349499Y-83945000D01*
X83985790Y-83945000D01*
X84004591Y-84147898D01*
X84060355Y-84343887D01*
X84151182Y-84526292D01*
X84154690Y-84530938D01*
X84154693Y-84530942D01*
X84270466Y-84684250D01*
X84270470Y-84684254D01*
X84273979Y-84688901D01*
X84424565Y-84826179D01*
X84597811Y-84933448D01*
X84787819Y-85007057D01*
X84988116Y-85044500D01*
X85186059Y-85044500D01*
X85191884Y-85044500D01*
X85392181Y-85007057D01*
X85582189Y-84933448D01*
X85755435Y-84826179D01*
X85906021Y-84688901D01*
X86028818Y-84526292D01*
X86119645Y-84343887D01*
X86175409Y-84147898D01*
X86194210Y-83945000D01*
X86525790Y-83945000D01*
X86544591Y-84147898D01*
X86600355Y-84343887D01*
X86691182Y-84526292D01*
X86694690Y-84530938D01*
X86694693Y-84530942D01*
X86810466Y-84684250D01*
X86810470Y-84684254D01*
X86813979Y-84688901D01*
X86964565Y-84826179D01*
X87137811Y-84933448D01*
X87327819Y-85007057D01*
X87528116Y-85044500D01*
X87726059Y-85044500D01*
X87731884Y-85044500D01*
X87932181Y-85007057D01*
X88122189Y-84933448D01*
X88295435Y-84826179D01*
X88446021Y-84688901D01*
X88568818Y-84526292D01*
X88659645Y-84343887D01*
X88715409Y-84147898D01*
X88734210Y-83945000D01*
X89065790Y-83945000D01*
X89084591Y-84147898D01*
X89140355Y-84343887D01*
X89231182Y-84526292D01*
X89234690Y-84530938D01*
X89234693Y-84530942D01*
X89350466Y-84684250D01*
X89350470Y-84684254D01*
X89353979Y-84688901D01*
X89504565Y-84826179D01*
X89677811Y-84933448D01*
X89867819Y-85007057D01*
X90068116Y-85044500D01*
X90266059Y-85044500D01*
X90271884Y-85044500D01*
X90472181Y-85007057D01*
X90662189Y-84933448D01*
X90835435Y-84826179D01*
X90854403Y-84808887D01*
X91610500Y-84808887D01*
X91610501Y-84815066D01*
X91611707Y-84821132D01*
X91611708Y-84821137D01*
X91622844Y-84877125D01*
X91625266Y-84889301D01*
X91681516Y-84973484D01*
X91765699Y-85029734D01*
X91839933Y-85044500D01*
X93580066Y-85044499D01*
X93654301Y-85029734D01*
X93738484Y-84973484D01*
X93794734Y-84889301D01*
X93809500Y-84815067D01*
X93809499Y-83074934D01*
X93794734Y-83000699D01*
X93738484Y-82916516D01*
X93714516Y-82900501D01*
X93664620Y-82867161D01*
X93664619Y-82867160D01*
X93654301Y-82860266D01*
X93642131Y-82857845D01*
X93642128Y-82857844D01*
X93586135Y-82846707D01*
X93580067Y-82845500D01*
X93573880Y-82845500D01*
X91846122Y-82845500D01*
X91846111Y-82845500D01*
X91839934Y-82845501D01*
X91833868Y-82846707D01*
X91833862Y-82846708D01*
X91777874Y-82857844D01*
X91777871Y-82857844D01*
X91765699Y-82860266D01*
X91755379Y-82867161D01*
X91755378Y-82867162D01*
X91691832Y-82909622D01*
X91691829Y-82909624D01*
X91681516Y-82916516D01*
X91674624Y-82926829D01*
X91674622Y-82926832D01*
X91632161Y-82990379D01*
X91632159Y-82990381D01*
X91625266Y-83000699D01*
X91622845Y-83012867D01*
X91622844Y-83012871D01*
X91611707Y-83068864D01*
X91610500Y-83074933D01*
X91610500Y-83081118D01*
X91610500Y-83081119D01*
X91610500Y-84808877D01*
X91610500Y-84808887D01*
X90854403Y-84808887D01*
X90986021Y-84688901D01*
X91108818Y-84526292D01*
X91199645Y-84343887D01*
X91255409Y-84147898D01*
X91274210Y-83945000D01*
X91255409Y-83742102D01*
X91199645Y-83546113D01*
X91108818Y-83363708D01*
X91031067Y-83260749D01*
X90989533Y-83205749D01*
X90989530Y-83205745D01*
X90986021Y-83201099D01*
X90981717Y-83197176D01*
X90981715Y-83197173D01*
X90840967Y-83068864D01*
X90835435Y-83063821D01*
X90755976Y-83014622D01*
X90667148Y-82959622D01*
X90667144Y-82959620D01*
X90662189Y-82956552D01*
X90656758Y-82954448D01*
X90656754Y-82954446D01*
X90477608Y-82885045D01*
X90477603Y-82885043D01*
X90472181Y-82882943D01*
X90466461Y-82881873D01*
X90466455Y-82881872D01*
X90277612Y-82846570D01*
X90277603Y-82846569D01*
X90271884Y-82845500D01*
X90068116Y-82845500D01*
X90062397Y-82846569D01*
X90062387Y-82846570D01*
X89873544Y-82881872D01*
X89873535Y-82881874D01*
X89867819Y-82882943D01*
X89862398Y-82885042D01*
X89862391Y-82885045D01*
X89683245Y-82954446D01*
X89683237Y-82954449D01*
X89677811Y-82956552D01*
X89672860Y-82959617D01*
X89672851Y-82959622D01*
X89509518Y-83060754D01*
X89504565Y-83063821D01*
X89500266Y-83067739D01*
X89500262Y-83067743D01*
X89358284Y-83197173D01*
X89358276Y-83197181D01*
X89353979Y-83201099D01*
X89350474Y-83205739D01*
X89350466Y-83205749D01*
X89234693Y-83359057D01*
X89234687Y-83359066D01*
X89231182Y-83363708D01*
X89228588Y-83368915D01*
X89228585Y-83368922D01*
X89142949Y-83540902D01*
X89142946Y-83540908D01*
X89140355Y-83546113D01*
X89138763Y-83551706D01*
X89138761Y-83551713D01*
X89086184Y-83736502D01*
X89084591Y-83742102D01*
X89084054Y-83747894D01*
X89084054Y-83747896D01*
X89078958Y-83802896D01*
X89065790Y-83945000D01*
X88734210Y-83945000D01*
X88715409Y-83742102D01*
X88659645Y-83546113D01*
X88568818Y-83363708D01*
X88491067Y-83260749D01*
X88449533Y-83205749D01*
X88449530Y-83205745D01*
X88446021Y-83201099D01*
X88441717Y-83197176D01*
X88441715Y-83197173D01*
X88300967Y-83068864D01*
X88295435Y-83063821D01*
X88215976Y-83014622D01*
X88127148Y-82959622D01*
X88127144Y-82959620D01*
X88122189Y-82956552D01*
X88116758Y-82954448D01*
X88116754Y-82954446D01*
X87937608Y-82885045D01*
X87937603Y-82885043D01*
X87932181Y-82882943D01*
X87926461Y-82881873D01*
X87926455Y-82881872D01*
X87737612Y-82846570D01*
X87737603Y-82846569D01*
X87731884Y-82845500D01*
X87528116Y-82845500D01*
X87522397Y-82846569D01*
X87522387Y-82846570D01*
X87333544Y-82881872D01*
X87333535Y-82881874D01*
X87327819Y-82882943D01*
X87322398Y-82885042D01*
X87322391Y-82885045D01*
X87143245Y-82954446D01*
X87143237Y-82954449D01*
X87137811Y-82956552D01*
X87132860Y-82959617D01*
X87132851Y-82959622D01*
X86969518Y-83060754D01*
X86964565Y-83063821D01*
X86960266Y-83067739D01*
X86960262Y-83067743D01*
X86818284Y-83197173D01*
X86818276Y-83197181D01*
X86813979Y-83201099D01*
X86810474Y-83205739D01*
X86810466Y-83205749D01*
X86694693Y-83359057D01*
X86694687Y-83359066D01*
X86691182Y-83363708D01*
X86688588Y-83368915D01*
X86688585Y-83368922D01*
X86602949Y-83540902D01*
X86602946Y-83540908D01*
X86600355Y-83546113D01*
X86598763Y-83551706D01*
X86598761Y-83551713D01*
X86546184Y-83736502D01*
X86544591Y-83742102D01*
X86544054Y-83747894D01*
X86544054Y-83747896D01*
X86538958Y-83802896D01*
X86525790Y-83945000D01*
X86194210Y-83945000D01*
X86175409Y-83742102D01*
X86119645Y-83546113D01*
X86028818Y-83363708D01*
X85951067Y-83260749D01*
X85909533Y-83205749D01*
X85909530Y-83205745D01*
X85906021Y-83201099D01*
X85901717Y-83197176D01*
X85901715Y-83197173D01*
X85760967Y-83068864D01*
X85755435Y-83063821D01*
X85675976Y-83014622D01*
X85587148Y-82959622D01*
X85587144Y-82959620D01*
X85582189Y-82956552D01*
X85576758Y-82954448D01*
X85576754Y-82954446D01*
X85397608Y-82885045D01*
X85397603Y-82885043D01*
X85392181Y-82882943D01*
X85386461Y-82881873D01*
X85386455Y-82881872D01*
X85197612Y-82846570D01*
X85197603Y-82846569D01*
X85191884Y-82845500D01*
X84988116Y-82845500D01*
X84982397Y-82846569D01*
X84982387Y-82846570D01*
X84793544Y-82881872D01*
X84793535Y-82881874D01*
X84787819Y-82882943D01*
X84782398Y-82885042D01*
X84782391Y-82885045D01*
X84603245Y-82954446D01*
X84603237Y-82954449D01*
X84597811Y-82956552D01*
X84592860Y-82959617D01*
X84592851Y-82959622D01*
X84429518Y-83060754D01*
X84424565Y-83063821D01*
X84420266Y-83067739D01*
X84420262Y-83067743D01*
X84278284Y-83197173D01*
X84278276Y-83197181D01*
X84273979Y-83201099D01*
X84270474Y-83205739D01*
X84270466Y-83205749D01*
X84154693Y-83359057D01*
X84154687Y-83359066D01*
X84151182Y-83363708D01*
X84148588Y-83368915D01*
X84148585Y-83368922D01*
X84062949Y-83540902D01*
X84062946Y-83540908D01*
X84060355Y-83546113D01*
X84058763Y-83551706D01*
X84058761Y-83551713D01*
X84006184Y-83736502D01*
X84004591Y-83742102D01*
X84004054Y-83747894D01*
X84004054Y-83747896D01*
X83998958Y-83802896D01*
X83985790Y-83945000D01*
X76349499Y-83945000D01*
X76349499Y-83129934D01*
X76334734Y-83055699D01*
X76278484Y-82971516D01*
X76252937Y-82954446D01*
X76204620Y-82922161D01*
X76204619Y-82922160D01*
X76194301Y-82915266D01*
X76182131Y-82912845D01*
X76182128Y-82912844D01*
X76126135Y-82901707D01*
X76120067Y-82900500D01*
X76113880Y-82900500D01*
X74386122Y-82900500D01*
X74386111Y-82900500D01*
X74379934Y-82900501D01*
X74373868Y-82901707D01*
X74373862Y-82901708D01*
X74317874Y-82912844D01*
X74317871Y-82912844D01*
X74305699Y-82915266D01*
X74295379Y-82922161D01*
X74295378Y-82922162D01*
X74231832Y-82964622D01*
X74231829Y-82964624D01*
X74221516Y-82971516D01*
X74214624Y-82981829D01*
X74214622Y-82981832D01*
X74172161Y-83045379D01*
X74172159Y-83045381D01*
X74165266Y-83055699D01*
X74162845Y-83067867D01*
X74162844Y-83067871D01*
X74151707Y-83123864D01*
X74150500Y-83129933D01*
X74150500Y-83136118D01*
X74150500Y-83136119D01*
X74150500Y-84863877D01*
X74150500Y-84863887D01*
X73394403Y-84863887D01*
X73526021Y-84743901D01*
X73648818Y-84581292D01*
X73739645Y-84398887D01*
X73795409Y-84202898D01*
X73814210Y-84000000D01*
X73795409Y-83797102D01*
X73739645Y-83601113D01*
X73648818Y-83418708D01*
X73645306Y-83414057D01*
X73529533Y-83260749D01*
X73529530Y-83260745D01*
X73526021Y-83256099D01*
X73521717Y-83252176D01*
X73521715Y-83252173D01*
X73380967Y-83123864D01*
X73375435Y-83118821D01*
X73294748Y-83068862D01*
X73207148Y-83014622D01*
X73207144Y-83014620D01*
X73202189Y-83011552D01*
X73196758Y-83009448D01*
X73196754Y-83009446D01*
X73017608Y-82940045D01*
X73017603Y-82940043D01*
X73012181Y-82937943D01*
X73006461Y-82936873D01*
X73006455Y-82936872D01*
X72817612Y-82901570D01*
X72817603Y-82901569D01*
X72811884Y-82900500D01*
X72608116Y-82900500D01*
X72602397Y-82901569D01*
X72602387Y-82901570D01*
X72413544Y-82936872D01*
X72413535Y-82936874D01*
X72407819Y-82937943D01*
X72402398Y-82940042D01*
X72402391Y-82940045D01*
X72223245Y-83009446D01*
X72223237Y-83009449D01*
X72217811Y-83011552D01*
X72212860Y-83014617D01*
X72212851Y-83014622D01*
X72049518Y-83115754D01*
X72044565Y-83118821D01*
X72040266Y-83122739D01*
X72040262Y-83122743D01*
X71898284Y-83252173D01*
X71898276Y-83252181D01*
X71893979Y-83256099D01*
X71890474Y-83260739D01*
X71890466Y-83260749D01*
X71774693Y-83414057D01*
X71774687Y-83414066D01*
X71771182Y-83418708D01*
X71768588Y-83423915D01*
X71768585Y-83423922D01*
X71682949Y-83595902D01*
X71682946Y-83595908D01*
X71680355Y-83601113D01*
X71678763Y-83606706D01*
X71678761Y-83606713D01*
X71641833Y-83736502D01*
X71624591Y-83797102D01*
X71605790Y-84000000D01*
X71274210Y-84000000D01*
X71255409Y-83797102D01*
X71199645Y-83601113D01*
X71108818Y-83418708D01*
X71105306Y-83414057D01*
X70989533Y-83260749D01*
X70989530Y-83260745D01*
X70986021Y-83256099D01*
X70981717Y-83252176D01*
X70981715Y-83252173D01*
X70840967Y-83123864D01*
X70835435Y-83118821D01*
X70754748Y-83068862D01*
X70667148Y-83014622D01*
X70667144Y-83014620D01*
X70662189Y-83011552D01*
X70656758Y-83009448D01*
X70656754Y-83009446D01*
X70477608Y-82940045D01*
X70477603Y-82940043D01*
X70472181Y-82937943D01*
X70466461Y-82936873D01*
X70466455Y-82936872D01*
X70277612Y-82901570D01*
X70277603Y-82901569D01*
X70271884Y-82900500D01*
X70068116Y-82900500D01*
X70062397Y-82901569D01*
X70062387Y-82901570D01*
X69873544Y-82936872D01*
X69873535Y-82936874D01*
X69867819Y-82937943D01*
X69862398Y-82940042D01*
X69862391Y-82940045D01*
X69683245Y-83009446D01*
X69683237Y-83009449D01*
X69677811Y-83011552D01*
X69672860Y-83014617D01*
X69672851Y-83014622D01*
X69509518Y-83115754D01*
X69504565Y-83118821D01*
X69500266Y-83122739D01*
X69500262Y-83122743D01*
X69358284Y-83252173D01*
X69358276Y-83252181D01*
X69353979Y-83256099D01*
X69350474Y-83260739D01*
X69350466Y-83260749D01*
X69234693Y-83414057D01*
X69234687Y-83414066D01*
X69231182Y-83418708D01*
X69228588Y-83423915D01*
X69228585Y-83423922D01*
X69142949Y-83595902D01*
X69142946Y-83595908D01*
X69140355Y-83601113D01*
X69138763Y-83606706D01*
X69138761Y-83606713D01*
X69101833Y-83736502D01*
X69084591Y-83797102D01*
X69065790Y-84000000D01*
X68734210Y-84000000D01*
X68715409Y-83797102D01*
X68659645Y-83601113D01*
X68568818Y-83418708D01*
X68565306Y-83414057D01*
X68449533Y-83260749D01*
X68449530Y-83260745D01*
X68446021Y-83256099D01*
X68441717Y-83252176D01*
X68441715Y-83252173D01*
X68300967Y-83123864D01*
X68295435Y-83118821D01*
X68214748Y-83068862D01*
X68127148Y-83014622D01*
X68127144Y-83014620D01*
X68122189Y-83011552D01*
X68116758Y-83009448D01*
X68116754Y-83009446D01*
X67937608Y-82940045D01*
X67937603Y-82940043D01*
X67932181Y-82937943D01*
X67926461Y-82936873D01*
X67926455Y-82936872D01*
X67737612Y-82901570D01*
X67737603Y-82901569D01*
X67731884Y-82900500D01*
X67528116Y-82900500D01*
X67522397Y-82901569D01*
X67522387Y-82901570D01*
X67333544Y-82936872D01*
X67333535Y-82936874D01*
X67327819Y-82937943D01*
X67322398Y-82940042D01*
X67322391Y-82940045D01*
X67143245Y-83009446D01*
X67143237Y-83009449D01*
X67137811Y-83011552D01*
X67132860Y-83014617D01*
X67132851Y-83014622D01*
X66969518Y-83115754D01*
X66964565Y-83118821D01*
X66960266Y-83122739D01*
X66960262Y-83122743D01*
X66818284Y-83252173D01*
X66818276Y-83252181D01*
X66813979Y-83256099D01*
X66810474Y-83260739D01*
X66810466Y-83260749D01*
X66694693Y-83414057D01*
X66694687Y-83414066D01*
X66691182Y-83418708D01*
X66688588Y-83423915D01*
X66688585Y-83423922D01*
X66602949Y-83595902D01*
X66602946Y-83595908D01*
X66600355Y-83601113D01*
X66598763Y-83606706D01*
X66598761Y-83606713D01*
X66561833Y-83736502D01*
X66544591Y-83797102D01*
X66525790Y-84000000D01*
X56515000Y-84000000D01*
X56515000Y-82308748D01*
X57120827Y-82308748D01*
X57128638Y-82320256D01*
X57252894Y-82424519D01*
X57258764Y-82428889D01*
X57545396Y-82617409D01*
X57551718Y-82621059D01*
X57858303Y-82775032D01*
X57865018Y-82777928D01*
X58187380Y-82895258D01*
X58194403Y-82897361D01*
X58528225Y-82976479D01*
X58535413Y-82977746D01*
X58876159Y-83017574D01*
X58883473Y-83018000D01*
X59226527Y-83018000D01*
X59233840Y-83017574D01*
X59574586Y-82977746D01*
X59581774Y-82976479D01*
X59915596Y-82897361D01*
X59922619Y-82895258D01*
X60244981Y-82777928D01*
X60251696Y-82775032D01*
X60558281Y-82621059D01*
X60564603Y-82617409D01*
X60851235Y-82428889D01*
X60857105Y-82424519D01*
X60981360Y-82320256D01*
X60989171Y-82308749D01*
X60989170Y-82308748D01*
X97760827Y-82308748D01*
X97768638Y-82320256D01*
X97892894Y-82424519D01*
X97898764Y-82428889D01*
X98185396Y-82617409D01*
X98191718Y-82621059D01*
X98498303Y-82775032D01*
X98505018Y-82777928D01*
X98827380Y-82895258D01*
X98834403Y-82897361D01*
X99168225Y-82976479D01*
X99175413Y-82977746D01*
X99516159Y-83017574D01*
X99523473Y-83018000D01*
X99866527Y-83018000D01*
X99873840Y-83017574D01*
X100214586Y-82977746D01*
X100221774Y-82976479D01*
X100555596Y-82897361D01*
X100562619Y-82895258D01*
X100884981Y-82777928D01*
X100891696Y-82775032D01*
X101198281Y-82621059D01*
X101204603Y-82617409D01*
X101491235Y-82428889D01*
X101497105Y-82424519D01*
X101621360Y-82320256D01*
X101629171Y-82308749D01*
X101622392Y-82296603D01*
X99706728Y-80380939D01*
X99694999Y-80374167D01*
X99683269Y-80380939D01*
X97767605Y-82296604D01*
X97760827Y-82308748D01*
X60989170Y-82308748D01*
X60982392Y-82296603D01*
X59066729Y-80380939D01*
X59055000Y-80374167D01*
X59043270Y-80380939D01*
X57127605Y-82296604D01*
X57120827Y-82308748D01*
X56515000Y-82308748D01*
X56515000Y-82015623D01*
X56530445Y-81955178D01*
X56572993Y-81909552D01*
X56632213Y-81889930D01*
X56693588Y-81901122D01*
X56742070Y-81940385D01*
X56743341Y-81942093D01*
X56752817Y-81947875D01*
X56764691Y-81941096D01*
X58695790Y-80010000D01*
X59419167Y-80010000D01*
X59425939Y-80021729D01*
X61345306Y-81941095D01*
X61357182Y-81947875D01*
X61366655Y-81942095D01*
X61570221Y-81668659D01*
X61574239Y-81662550D01*
X61745768Y-81365453D01*
X61749056Y-81358907D01*
X61884933Y-81043908D01*
X61887436Y-81037029D01*
X61985827Y-80708382D01*
X61987517Y-80701255D01*
X62047089Y-80363403D01*
X62047937Y-80356143D01*
X62067885Y-80013657D01*
X96682115Y-80013657D01*
X96702062Y-80356143D01*
X96702910Y-80363403D01*
X96762482Y-80701255D01*
X96764172Y-80708382D01*
X96862563Y-81037029D01*
X96865066Y-81043908D01*
X97000943Y-81358907D01*
X97004231Y-81365453D01*
X97175760Y-81662550D01*
X97179778Y-81668659D01*
X97383343Y-81942094D01*
X97392817Y-81947875D01*
X97404691Y-81941096D01*
X99324059Y-80021729D01*
X99330831Y-80010000D01*
X99324059Y-79998270D01*
X97404693Y-78078904D01*
X97392817Y-78072124D01*
X97383342Y-78077906D01*
X97179778Y-78351340D01*
X97175760Y-78357449D01*
X97004231Y-78654546D01*
X97000943Y-78661092D01*
X96865066Y-78976091D01*
X96862563Y-78982970D01*
X96764172Y-79311617D01*
X96762482Y-79318744D01*
X96702910Y-79656596D01*
X96702062Y-79663856D01*
X96682115Y-80006343D01*
X96682115Y-80013657D01*
X62067885Y-80013657D01*
X62067885Y-80006343D01*
X62047937Y-79663856D01*
X62047089Y-79656596D01*
X61987517Y-79318744D01*
X61985827Y-79311617D01*
X61887436Y-78982970D01*
X61884933Y-78976091D01*
X61749056Y-78661092D01*
X61745768Y-78654546D01*
X61574239Y-78357449D01*
X61570221Y-78351340D01*
X61366657Y-78077906D01*
X61357181Y-78072123D01*
X61345307Y-78078902D01*
X59425939Y-79998270D01*
X59419167Y-80010000D01*
X58695790Y-80010000D01*
X59055000Y-79650790D01*
X60982394Y-77723393D01*
X60989171Y-77711250D01*
X60981360Y-77699741D01*
X60972755Y-77692521D01*
X60936922Y-77643200D01*
X60928437Y-77582829D01*
X60949288Y-77525542D01*
X60994594Y-77484749D01*
X61053747Y-77470000D01*
X97696252Y-77470000D01*
X97755405Y-77484749D01*
G37*
%TD.AperFunction*%
%TD*%
M02*
