%TF.GenerationSoftware,KiCad,Pcbnew,(7.0.0)*%
%TF.CreationDate,2023-03-20T10:58:12+01:00*%
%TF.ProjectId,Z_Brake,5a5f4272-616b-4652-9e6b-696361645f70,rev?*%
%TF.SameCoordinates,Original*%
%TF.FileFunction,Legend,Bot*%
%TF.FilePolarity,Positive*%
%FSLAX46Y46*%
G04 Gerber Fmt 4.6, Leading zero omitted, Abs format (unit mm)*
G04 Created by KiCad (PCBNEW (7.0.0)) date 2023-03-20 10:58:12*
%MOMM*%
%LPD*%
G01*
G04 APERTURE LIST*
G04 Aperture macros list*
%AMRoundRect*
0 Rectangle with rounded corners*
0 $1 Rounding radius*
0 $2 $3 $4 $5 $6 $7 $8 $9 X,Y pos of 4 corners*
0 Add a 4 corners polygon primitive as box body*
4,1,4,$2,$3,$4,$5,$6,$7,$8,$9,$2,$3,0*
0 Add four circle primitives for the rounded corners*
1,1,$1+$1,$2,$3*
1,1,$1+$1,$4,$5*
1,1,$1+$1,$6,$7*
1,1,$1+$1,$8,$9*
0 Add four rect primitives between the rounded corners*
20,1,$1+$1,$2,$3,$4,$5,0*
20,1,$1+$1,$4,$5,$6,$7,0*
20,1,$1+$1,$6,$7,$8,$9,0*
20,1,$1+$1,$8,$9,$2,$3,0*%
G04 Aperture macros list end*
%ADD10C,0.150000*%
%ADD11C,0.200000*%
%ADD12C,5.200000*%
%ADD13RoundRect,0.100000X-0.877500X0.877500X-0.877500X-0.877500X0.877500X-0.877500X0.877500X0.877500X0*%
%ADD14C,1.955000*%
%ADD15RoundRect,0.100000X-0.845000X-0.845000X0.845000X-0.845000X0.845000X0.845000X-0.845000X0.845000X0*%
%ADD16C,1.890000*%
G04 APERTURE END LIST*
D10*
X89122380Y-89140476D02*
X89217619Y-89092857D01*
X89217619Y-89092857D02*
X89408095Y-89092857D01*
X89408095Y-89092857D02*
X89503333Y-89140476D01*
X89503333Y-89140476D02*
X89598571Y-89235714D01*
X89598571Y-89235714D02*
X89646190Y-89330952D01*
X89646190Y-89330952D02*
X89646190Y-89521428D01*
X89646190Y-89521428D02*
X89598571Y-89616666D01*
X89598571Y-89616666D02*
X89503333Y-89711904D01*
X89503333Y-89711904D02*
X89408095Y-89759523D01*
X89408095Y-89759523D02*
X89217619Y-89759523D01*
X89217619Y-89759523D02*
X89122380Y-89711904D01*
X89312857Y-88759523D02*
X89550952Y-88807142D01*
X89550952Y-88807142D02*
X89789047Y-88950000D01*
X89789047Y-88950000D02*
X89931904Y-89188095D01*
X89931904Y-89188095D02*
X89979523Y-89426190D01*
X89979523Y-89426190D02*
X89931904Y-89664285D01*
X89931904Y-89664285D02*
X89789047Y-89902380D01*
X89789047Y-89902380D02*
X89550952Y-90045238D01*
X89550952Y-90045238D02*
X89312857Y-90092857D01*
X89312857Y-90092857D02*
X89074761Y-90045238D01*
X89074761Y-90045238D02*
X88836666Y-89902380D01*
X88836666Y-89902380D02*
X88693809Y-89664285D01*
X88693809Y-89664285D02*
X88646190Y-89426190D01*
X88646190Y-89426190D02*
X88693809Y-89188095D01*
X88693809Y-89188095D02*
X88836666Y-88950000D01*
X88836666Y-88950000D02*
X89074761Y-88807142D01*
X89074761Y-88807142D02*
X89312857Y-88759523D01*
X87665237Y-88997619D02*
X87617618Y-88950000D01*
X87617618Y-88950000D02*
X87522380Y-88902380D01*
X87522380Y-88902380D02*
X87284285Y-88902380D01*
X87284285Y-88902380D02*
X87189047Y-88950000D01*
X87189047Y-88950000D02*
X87141428Y-88997619D01*
X87141428Y-88997619D02*
X87093809Y-89092857D01*
X87093809Y-89092857D02*
X87093809Y-89188095D01*
X87093809Y-89188095D02*
X87141428Y-89330952D01*
X87141428Y-89330952D02*
X87712856Y-89902380D01*
X87712856Y-89902380D02*
X87093809Y-89902380D01*
X86474761Y-88902380D02*
X86379523Y-88902380D01*
X86379523Y-88902380D02*
X86284285Y-88950000D01*
X86284285Y-88950000D02*
X86236666Y-88997619D01*
X86236666Y-88997619D02*
X86189047Y-89092857D01*
X86189047Y-89092857D02*
X86141428Y-89283333D01*
X86141428Y-89283333D02*
X86141428Y-89521428D01*
X86141428Y-89521428D02*
X86189047Y-89711904D01*
X86189047Y-89711904D02*
X86236666Y-89807142D01*
X86236666Y-89807142D02*
X86284285Y-89854761D01*
X86284285Y-89854761D02*
X86379523Y-89902380D01*
X86379523Y-89902380D02*
X86474761Y-89902380D01*
X86474761Y-89902380D02*
X86569999Y-89854761D01*
X86569999Y-89854761D02*
X86617618Y-89807142D01*
X86617618Y-89807142D02*
X86665237Y-89711904D01*
X86665237Y-89711904D02*
X86712856Y-89521428D01*
X86712856Y-89521428D02*
X86712856Y-89283333D01*
X86712856Y-89283333D02*
X86665237Y-89092857D01*
X86665237Y-89092857D02*
X86617618Y-88997619D01*
X86617618Y-88997619D02*
X86569999Y-88950000D01*
X86569999Y-88950000D02*
X86474761Y-88902380D01*
X85760475Y-88997619D02*
X85712856Y-88950000D01*
X85712856Y-88950000D02*
X85617618Y-88902380D01*
X85617618Y-88902380D02*
X85379523Y-88902380D01*
X85379523Y-88902380D02*
X85284285Y-88950000D01*
X85284285Y-88950000D02*
X85236666Y-88997619D01*
X85236666Y-88997619D02*
X85189047Y-89092857D01*
X85189047Y-89092857D02*
X85189047Y-89188095D01*
X85189047Y-89188095D02*
X85236666Y-89330952D01*
X85236666Y-89330952D02*
X85808094Y-89902380D01*
X85808094Y-89902380D02*
X85189047Y-89902380D01*
X84855713Y-88902380D02*
X84236666Y-88902380D01*
X84236666Y-88902380D02*
X84569999Y-89283333D01*
X84569999Y-89283333D02*
X84427142Y-89283333D01*
X84427142Y-89283333D02*
X84331904Y-89330952D01*
X84331904Y-89330952D02*
X84284285Y-89378571D01*
X84284285Y-89378571D02*
X84236666Y-89473809D01*
X84236666Y-89473809D02*
X84236666Y-89711904D01*
X84236666Y-89711904D02*
X84284285Y-89807142D01*
X84284285Y-89807142D02*
X84331904Y-89854761D01*
X84331904Y-89854761D02*
X84427142Y-89902380D01*
X84427142Y-89902380D02*
X84712856Y-89902380D01*
X84712856Y-89902380D02*
X84808094Y-89854761D01*
X84808094Y-89854761D02*
X84855713Y-89807142D01*
D11*
X99337857Y-90141071D02*
X99337857Y-88641071D01*
X99337857Y-88641071D02*
X98980714Y-88641071D01*
X98980714Y-88641071D02*
X98766428Y-88712500D01*
X98766428Y-88712500D02*
X98623571Y-88855357D01*
X98623571Y-88855357D02*
X98552142Y-88998214D01*
X98552142Y-88998214D02*
X98480714Y-89283928D01*
X98480714Y-89283928D02*
X98480714Y-89498214D01*
X98480714Y-89498214D02*
X98552142Y-89783928D01*
X98552142Y-89783928D02*
X98623571Y-89926785D01*
X98623571Y-89926785D02*
X98766428Y-90069642D01*
X98766428Y-90069642D02*
X98980714Y-90141071D01*
X98980714Y-90141071D02*
X99337857Y-90141071D01*
X97623571Y-90141071D02*
X97766428Y-90069642D01*
X97766428Y-90069642D02*
X97837857Y-89998214D01*
X97837857Y-89998214D02*
X97909285Y-89855357D01*
X97909285Y-89855357D02*
X97909285Y-89426785D01*
X97909285Y-89426785D02*
X97837857Y-89283928D01*
X97837857Y-89283928D02*
X97766428Y-89212500D01*
X97766428Y-89212500D02*
X97623571Y-89141071D01*
X97623571Y-89141071D02*
X97409285Y-89141071D01*
X97409285Y-89141071D02*
X97266428Y-89212500D01*
X97266428Y-89212500D02*
X97195000Y-89283928D01*
X97195000Y-89283928D02*
X97123571Y-89426785D01*
X97123571Y-89426785D02*
X97123571Y-89855357D01*
X97123571Y-89855357D02*
X97195000Y-89998214D01*
X97195000Y-89998214D02*
X97266428Y-90069642D01*
X97266428Y-90069642D02*
X97409285Y-90141071D01*
X97409285Y-90141071D02*
X97623571Y-90141071D01*
X95837857Y-89141071D02*
X95837857Y-90141071D01*
X96480714Y-89141071D02*
X96480714Y-89926785D01*
X96480714Y-89926785D02*
X96409285Y-90069642D01*
X96409285Y-90069642D02*
X96266428Y-90141071D01*
X96266428Y-90141071D02*
X96052142Y-90141071D01*
X96052142Y-90141071D02*
X95909285Y-90069642D01*
X95909285Y-90069642D02*
X95837857Y-89998214D01*
X95123571Y-90141071D02*
X95123571Y-88641071D01*
X95123571Y-89212500D02*
X94980714Y-89141071D01*
X94980714Y-89141071D02*
X94694999Y-89141071D01*
X94694999Y-89141071D02*
X94552142Y-89212500D01*
X94552142Y-89212500D02*
X94480714Y-89283928D01*
X94480714Y-89283928D02*
X94409285Y-89426785D01*
X94409285Y-89426785D02*
X94409285Y-89855357D01*
X94409285Y-89855357D02*
X94480714Y-89998214D01*
X94480714Y-89998214D02*
X94552142Y-90069642D01*
X94552142Y-90069642D02*
X94694999Y-90141071D01*
X94694999Y-90141071D02*
X94980714Y-90141071D01*
X94980714Y-90141071D02*
X95123571Y-90069642D01*
X93552142Y-90141071D02*
X93694999Y-90069642D01*
X93694999Y-90069642D02*
X93766428Y-89926785D01*
X93766428Y-89926785D02*
X93766428Y-88641071D01*
X92409285Y-90069642D02*
X92552142Y-90141071D01*
X92552142Y-90141071D02*
X92837857Y-90141071D01*
X92837857Y-90141071D02*
X92980714Y-90069642D01*
X92980714Y-90069642D02*
X93052142Y-89926785D01*
X93052142Y-89926785D02*
X93052142Y-89355357D01*
X93052142Y-89355357D02*
X92980714Y-89212500D01*
X92980714Y-89212500D02*
X92837857Y-89141071D01*
X92837857Y-89141071D02*
X92552142Y-89141071D01*
X92552142Y-89141071D02*
X92409285Y-89212500D01*
X92409285Y-89212500D02*
X92337857Y-89355357D01*
X92337857Y-89355357D02*
X92337857Y-89498214D01*
X92337857Y-89498214D02*
X93052142Y-89641071D01*
X99480714Y-91071071D02*
X98480714Y-91071071D01*
X98480714Y-91071071D02*
X99480714Y-92571071D01*
X99480714Y-92571071D02*
X98480714Y-92571071D01*
X97009286Y-92571071D02*
X97009286Y-91071071D01*
X97009286Y-91071071D02*
X96509286Y-92142500D01*
X96509286Y-92142500D02*
X96009286Y-91071071D01*
X96009286Y-91071071D02*
X96009286Y-92571071D01*
X95080714Y-92571071D02*
X95223571Y-92499642D01*
X95223571Y-92499642D02*
X95295000Y-92428214D01*
X95295000Y-92428214D02*
X95366428Y-92285357D01*
X95366428Y-92285357D02*
X95366428Y-91856785D01*
X95366428Y-91856785D02*
X95295000Y-91713928D01*
X95295000Y-91713928D02*
X95223571Y-91642500D01*
X95223571Y-91642500D02*
X95080714Y-91571071D01*
X95080714Y-91571071D02*
X94866428Y-91571071D01*
X94866428Y-91571071D02*
X94723571Y-91642500D01*
X94723571Y-91642500D02*
X94652143Y-91713928D01*
X94652143Y-91713928D02*
X94580714Y-91856785D01*
X94580714Y-91856785D02*
X94580714Y-92285357D01*
X94580714Y-92285357D02*
X94652143Y-92428214D01*
X94652143Y-92428214D02*
X94723571Y-92499642D01*
X94723571Y-92499642D02*
X94866428Y-92571071D01*
X94866428Y-92571071D02*
X95080714Y-92571071D01*
X94152142Y-91571071D02*
X93580714Y-91571071D01*
X93937857Y-91071071D02*
X93937857Y-92356785D01*
X93937857Y-92356785D02*
X93866428Y-92499642D01*
X93866428Y-92499642D02*
X93723571Y-92571071D01*
X93723571Y-92571071D02*
X93580714Y-92571071D01*
X92866428Y-92571071D02*
X93009285Y-92499642D01*
X93009285Y-92499642D02*
X93080714Y-92428214D01*
X93080714Y-92428214D02*
X93152142Y-92285357D01*
X93152142Y-92285357D02*
X93152142Y-91856785D01*
X93152142Y-91856785D02*
X93080714Y-91713928D01*
X93080714Y-91713928D02*
X93009285Y-91642500D01*
X93009285Y-91642500D02*
X92866428Y-91571071D01*
X92866428Y-91571071D02*
X92652142Y-91571071D01*
X92652142Y-91571071D02*
X92509285Y-91642500D01*
X92509285Y-91642500D02*
X92437857Y-91713928D01*
X92437857Y-91713928D02*
X92366428Y-91856785D01*
X92366428Y-91856785D02*
X92366428Y-92285357D01*
X92366428Y-92285357D02*
X92437857Y-92428214D01*
X92437857Y-92428214D02*
X92509285Y-92499642D01*
X92509285Y-92499642D02*
X92652142Y-92571071D01*
X92652142Y-92571071D02*
X92866428Y-92571071D01*
X91723571Y-92571071D02*
X91723571Y-91571071D01*
X91723571Y-91856785D02*
X91652142Y-91713928D01*
X91652142Y-91713928D02*
X91580714Y-91642500D01*
X91580714Y-91642500D02*
X91437856Y-91571071D01*
X91437856Y-91571071D02*
X91294999Y-91571071D01*
X89395000Y-91785357D02*
X89180714Y-91856785D01*
X89180714Y-91856785D02*
X89109285Y-91928214D01*
X89109285Y-91928214D02*
X89037857Y-92071071D01*
X89037857Y-92071071D02*
X89037857Y-92285357D01*
X89037857Y-92285357D02*
X89109285Y-92428214D01*
X89109285Y-92428214D02*
X89180714Y-92499642D01*
X89180714Y-92499642D02*
X89323571Y-92571071D01*
X89323571Y-92571071D02*
X89895000Y-92571071D01*
X89895000Y-92571071D02*
X89895000Y-91071071D01*
X89895000Y-91071071D02*
X89395000Y-91071071D01*
X89395000Y-91071071D02*
X89252143Y-91142500D01*
X89252143Y-91142500D02*
X89180714Y-91213928D01*
X89180714Y-91213928D02*
X89109285Y-91356785D01*
X89109285Y-91356785D02*
X89109285Y-91499642D01*
X89109285Y-91499642D02*
X89180714Y-91642500D01*
X89180714Y-91642500D02*
X89252143Y-91713928D01*
X89252143Y-91713928D02*
X89395000Y-91785357D01*
X89395000Y-91785357D02*
X89895000Y-91785357D01*
X88395000Y-92571071D02*
X88395000Y-91571071D01*
X88395000Y-91856785D02*
X88323571Y-91713928D01*
X88323571Y-91713928D02*
X88252143Y-91642500D01*
X88252143Y-91642500D02*
X88109285Y-91571071D01*
X88109285Y-91571071D02*
X87966428Y-91571071D01*
X86823572Y-92571071D02*
X86823572Y-91785357D01*
X86823572Y-91785357D02*
X86895000Y-91642500D01*
X86895000Y-91642500D02*
X87037857Y-91571071D01*
X87037857Y-91571071D02*
X87323572Y-91571071D01*
X87323572Y-91571071D02*
X87466429Y-91642500D01*
X86823572Y-92499642D02*
X86966429Y-92571071D01*
X86966429Y-92571071D02*
X87323572Y-92571071D01*
X87323572Y-92571071D02*
X87466429Y-92499642D01*
X87466429Y-92499642D02*
X87537857Y-92356785D01*
X87537857Y-92356785D02*
X87537857Y-92213928D01*
X87537857Y-92213928D02*
X87466429Y-92071071D01*
X87466429Y-92071071D02*
X87323572Y-91999642D01*
X87323572Y-91999642D02*
X86966429Y-91999642D01*
X86966429Y-91999642D02*
X86823572Y-91928214D01*
X86109286Y-92571071D02*
X86109286Y-91071071D01*
X85966429Y-91999642D02*
X85537857Y-92571071D01*
X85537857Y-91571071D02*
X86109286Y-92142500D01*
X84323571Y-92499642D02*
X84466428Y-92571071D01*
X84466428Y-92571071D02*
X84752143Y-92571071D01*
X84752143Y-92571071D02*
X84895000Y-92499642D01*
X84895000Y-92499642D02*
X84966428Y-92356785D01*
X84966428Y-92356785D02*
X84966428Y-91785357D01*
X84966428Y-91785357D02*
X84895000Y-91642500D01*
X84895000Y-91642500D02*
X84752143Y-91571071D01*
X84752143Y-91571071D02*
X84466428Y-91571071D01*
X84466428Y-91571071D02*
X84323571Y-91642500D01*
X84323571Y-91642500D02*
X84252143Y-91785357D01*
X84252143Y-91785357D02*
X84252143Y-91928214D01*
X84252143Y-91928214D02*
X84966428Y-92071071D01*
D10*
X81819761Y-88952380D02*
X81248333Y-88952380D01*
X81534047Y-89952380D02*
X81534047Y-88952380D01*
X80914999Y-89952380D02*
X80914999Y-88952380D01*
X80486428Y-89952380D02*
X80486428Y-89428571D01*
X80486428Y-89428571D02*
X80534047Y-89333333D01*
X80534047Y-89333333D02*
X80629285Y-89285714D01*
X80629285Y-89285714D02*
X80772142Y-89285714D01*
X80772142Y-89285714D02*
X80867380Y-89333333D01*
X80867380Y-89333333D02*
X80914999Y-89380952D01*
X79867380Y-89952380D02*
X79962618Y-89904761D01*
X79962618Y-89904761D02*
X80010237Y-89857142D01*
X80010237Y-89857142D02*
X80057856Y-89761904D01*
X80057856Y-89761904D02*
X80057856Y-89476190D01*
X80057856Y-89476190D02*
X80010237Y-89380952D01*
X80010237Y-89380952D02*
X79962618Y-89333333D01*
X79962618Y-89333333D02*
X79867380Y-89285714D01*
X79867380Y-89285714D02*
X79724523Y-89285714D01*
X79724523Y-89285714D02*
X79629285Y-89333333D01*
X79629285Y-89333333D02*
X79581666Y-89380952D01*
X79581666Y-89380952D02*
X79534047Y-89476190D01*
X79534047Y-89476190D02*
X79534047Y-89761904D01*
X79534047Y-89761904D02*
X79581666Y-89857142D01*
X79581666Y-89857142D02*
X79629285Y-89904761D01*
X79629285Y-89904761D02*
X79724523Y-89952380D01*
X79724523Y-89952380D02*
X79867380Y-89952380D01*
X79105475Y-89952380D02*
X79105475Y-89285714D01*
X79105475Y-89380952D02*
X79057856Y-89333333D01*
X79057856Y-89333333D02*
X78962618Y-89285714D01*
X78962618Y-89285714D02*
X78819761Y-89285714D01*
X78819761Y-89285714D02*
X78724523Y-89333333D01*
X78724523Y-89333333D02*
X78676904Y-89428571D01*
X78676904Y-89428571D02*
X78676904Y-89952380D01*
X78676904Y-89428571D02*
X78629285Y-89333333D01*
X78629285Y-89333333D02*
X78534047Y-89285714D01*
X78534047Y-89285714D02*
X78391190Y-89285714D01*
X78391190Y-89285714D02*
X78295951Y-89333333D01*
X78295951Y-89333333D02*
X78248332Y-89428571D01*
X78248332Y-89428571D02*
X78248332Y-89952380D01*
X77343571Y-89952380D02*
X77343571Y-89428571D01*
X77343571Y-89428571D02*
X77391190Y-89333333D01*
X77391190Y-89333333D02*
X77486428Y-89285714D01*
X77486428Y-89285714D02*
X77676904Y-89285714D01*
X77676904Y-89285714D02*
X77772142Y-89333333D01*
X77343571Y-89904761D02*
X77438809Y-89952380D01*
X77438809Y-89952380D02*
X77676904Y-89952380D01*
X77676904Y-89952380D02*
X77772142Y-89904761D01*
X77772142Y-89904761D02*
X77819761Y-89809523D01*
X77819761Y-89809523D02*
X77819761Y-89714285D01*
X77819761Y-89714285D02*
X77772142Y-89619047D01*
X77772142Y-89619047D02*
X77676904Y-89571428D01*
X77676904Y-89571428D02*
X77438809Y-89571428D01*
X77438809Y-89571428D02*
X77343571Y-89523809D01*
X76914999Y-89904761D02*
X76819761Y-89952380D01*
X76819761Y-89952380D02*
X76629285Y-89952380D01*
X76629285Y-89952380D02*
X76534047Y-89904761D01*
X76534047Y-89904761D02*
X76486428Y-89809523D01*
X76486428Y-89809523D02*
X76486428Y-89761904D01*
X76486428Y-89761904D02*
X76534047Y-89666666D01*
X76534047Y-89666666D02*
X76629285Y-89619047D01*
X76629285Y-89619047D02*
X76772142Y-89619047D01*
X76772142Y-89619047D02*
X76867380Y-89571428D01*
X76867380Y-89571428D02*
X76914999Y-89476190D01*
X76914999Y-89476190D02*
X76914999Y-89428571D01*
X76914999Y-89428571D02*
X76867380Y-89333333D01*
X76867380Y-89333333D02*
X76772142Y-89285714D01*
X76772142Y-89285714D02*
X76629285Y-89285714D01*
X76629285Y-89285714D02*
X76534047Y-89333333D01*
X75124523Y-89428571D02*
X75457856Y-89428571D01*
X75457856Y-89952380D02*
X75457856Y-88952380D01*
X75457856Y-88952380D02*
X74981666Y-88952380D01*
X74457856Y-89952380D02*
X74553094Y-89904761D01*
X74553094Y-89904761D02*
X74600713Y-89857142D01*
X74600713Y-89857142D02*
X74648332Y-89761904D01*
X74648332Y-89761904D02*
X74648332Y-89476190D01*
X74648332Y-89476190D02*
X74600713Y-89380952D01*
X74600713Y-89380952D02*
X74553094Y-89333333D01*
X74553094Y-89333333D02*
X74457856Y-89285714D01*
X74457856Y-89285714D02*
X74314999Y-89285714D01*
X74314999Y-89285714D02*
X74219761Y-89333333D01*
X74219761Y-89333333D02*
X74172142Y-89380952D01*
X74172142Y-89380952D02*
X74124523Y-89476190D01*
X74124523Y-89476190D02*
X74124523Y-89761904D01*
X74124523Y-89761904D02*
X74172142Y-89857142D01*
X74172142Y-89857142D02*
X74219761Y-89904761D01*
X74219761Y-89904761D02*
X74314999Y-89952380D01*
X74314999Y-89952380D02*
X74457856Y-89952380D01*
X74553094Y-88952380D02*
X74505475Y-89000000D01*
X74505475Y-89000000D02*
X74553094Y-89047619D01*
X74553094Y-89047619D02*
X74600713Y-89000000D01*
X74600713Y-89000000D02*
X74553094Y-88952380D01*
X74553094Y-88952380D02*
X74553094Y-89047619D01*
X74172142Y-88952380D02*
X74124523Y-89000000D01*
X74124523Y-89000000D02*
X74172142Y-89047619D01*
X74172142Y-89047619D02*
X74219761Y-89000000D01*
X74219761Y-89000000D02*
X74172142Y-88952380D01*
X74172142Y-88952380D02*
X74172142Y-89047619D01*
X73695951Y-89952380D02*
X73695951Y-89285714D01*
X73695951Y-89476190D02*
X73648332Y-89380952D01*
X73648332Y-89380952D02*
X73600713Y-89333333D01*
X73600713Y-89333333D02*
X73505475Y-89285714D01*
X73505475Y-89285714D02*
X73410237Y-89285714D01*
X73124522Y-89904761D02*
X73029284Y-89952380D01*
X73029284Y-89952380D02*
X72838808Y-89952380D01*
X72838808Y-89952380D02*
X72743570Y-89904761D01*
X72743570Y-89904761D02*
X72695951Y-89809523D01*
X72695951Y-89809523D02*
X72695951Y-89761904D01*
X72695951Y-89761904D02*
X72743570Y-89666666D01*
X72743570Y-89666666D02*
X72838808Y-89619047D01*
X72838808Y-89619047D02*
X72981665Y-89619047D01*
X72981665Y-89619047D02*
X73076903Y-89571428D01*
X73076903Y-89571428D02*
X73124522Y-89476190D01*
X73124522Y-89476190D02*
X73124522Y-89428571D01*
X73124522Y-89428571D02*
X73076903Y-89333333D01*
X73076903Y-89333333D02*
X72981665Y-89285714D01*
X72981665Y-89285714D02*
X72838808Y-89285714D01*
X72838808Y-89285714D02*
X72743570Y-89333333D01*
X72410236Y-89285714D02*
X72029284Y-89285714D01*
X72267379Y-88952380D02*
X72267379Y-89809523D01*
X72267379Y-89809523D02*
X72219760Y-89904761D01*
X72219760Y-89904761D02*
X72124522Y-89952380D01*
X72124522Y-89952380D02*
X72029284Y-89952380D01*
X71314998Y-89904761D02*
X71410236Y-89952380D01*
X71410236Y-89952380D02*
X71600712Y-89952380D01*
X71600712Y-89952380D02*
X71695950Y-89904761D01*
X71695950Y-89904761D02*
X71743569Y-89809523D01*
X71743569Y-89809523D02*
X71743569Y-89428571D01*
X71743569Y-89428571D02*
X71695950Y-89333333D01*
X71695950Y-89333333D02*
X71600712Y-89285714D01*
X71600712Y-89285714D02*
X71410236Y-89285714D01*
X71410236Y-89285714D02*
X71314998Y-89333333D01*
X71314998Y-89333333D02*
X71267379Y-89428571D01*
X71267379Y-89428571D02*
X71267379Y-89523809D01*
X71267379Y-89523809D02*
X71743569Y-89619047D01*
X70838807Y-89952380D02*
X70838807Y-89285714D01*
X70838807Y-89476190D02*
X70791188Y-89380952D01*
X70791188Y-89380952D02*
X70743569Y-89333333D01*
X70743569Y-89333333D02*
X70648331Y-89285714D01*
X70648331Y-89285714D02*
X70553093Y-89285714D01*
X67842619Y-88904761D02*
X68699761Y-90190476D01*
X65324523Y-89666666D02*
X64848333Y-89666666D01*
X65419761Y-89952380D02*
X65086428Y-88952380D01*
X65086428Y-88952380D02*
X64753095Y-89952380D01*
X63991190Y-89952380D02*
X63991190Y-88952380D01*
X63991190Y-89904761D02*
X64086428Y-89952380D01*
X64086428Y-89952380D02*
X64276904Y-89952380D01*
X64276904Y-89952380D02*
X64372142Y-89904761D01*
X64372142Y-89904761D02*
X64419761Y-89857142D01*
X64419761Y-89857142D02*
X64467380Y-89761904D01*
X64467380Y-89761904D02*
X64467380Y-89476190D01*
X64467380Y-89476190D02*
X64419761Y-89380952D01*
X64419761Y-89380952D02*
X64372142Y-89333333D01*
X64372142Y-89333333D02*
X64276904Y-89285714D01*
X64276904Y-89285714D02*
X64086428Y-89285714D01*
X64086428Y-89285714D02*
X63991190Y-89333333D01*
X63086428Y-89952380D02*
X63086428Y-89428571D01*
X63086428Y-89428571D02*
X63134047Y-89333333D01*
X63134047Y-89333333D02*
X63229285Y-89285714D01*
X63229285Y-89285714D02*
X63419761Y-89285714D01*
X63419761Y-89285714D02*
X63514999Y-89333333D01*
X63086428Y-89904761D02*
X63181666Y-89952380D01*
X63181666Y-89952380D02*
X63419761Y-89952380D01*
X63419761Y-89952380D02*
X63514999Y-89904761D01*
X63514999Y-89904761D02*
X63562618Y-89809523D01*
X63562618Y-89809523D02*
X63562618Y-89714285D01*
X63562618Y-89714285D02*
X63514999Y-89619047D01*
X63514999Y-89619047D02*
X63419761Y-89571428D01*
X63419761Y-89571428D02*
X63181666Y-89571428D01*
X63181666Y-89571428D02*
X63086428Y-89523809D01*
X62610237Y-89952380D02*
X62610237Y-89285714D01*
X62610237Y-89380952D02*
X62562618Y-89333333D01*
X62562618Y-89333333D02*
X62467380Y-89285714D01*
X62467380Y-89285714D02*
X62324523Y-89285714D01*
X62324523Y-89285714D02*
X62229285Y-89333333D01*
X62229285Y-89333333D02*
X62181666Y-89428571D01*
X62181666Y-89428571D02*
X62181666Y-89952380D01*
X62181666Y-89428571D02*
X62134047Y-89333333D01*
X62134047Y-89333333D02*
X62038809Y-89285714D01*
X62038809Y-89285714D02*
X61895952Y-89285714D01*
X61895952Y-89285714D02*
X61800713Y-89333333D01*
X61800713Y-89333333D02*
X61753094Y-89428571D01*
X61753094Y-89428571D02*
X61753094Y-89952380D01*
X60676904Y-89952380D02*
X60676904Y-88952380D01*
X60676904Y-89428571D02*
X60105476Y-89428571D01*
X60105476Y-89952380D02*
X60105476Y-88952380D01*
X59200714Y-89952380D02*
X59200714Y-89428571D01*
X59200714Y-89428571D02*
X59248333Y-89333333D01*
X59248333Y-89333333D02*
X59343571Y-89285714D01*
X59343571Y-89285714D02*
X59534047Y-89285714D01*
X59534047Y-89285714D02*
X59629285Y-89333333D01*
X59200714Y-89904761D02*
X59295952Y-89952380D01*
X59295952Y-89952380D02*
X59534047Y-89952380D01*
X59534047Y-89952380D02*
X59629285Y-89904761D01*
X59629285Y-89904761D02*
X59676904Y-89809523D01*
X59676904Y-89809523D02*
X59676904Y-89714285D01*
X59676904Y-89714285D02*
X59629285Y-89619047D01*
X59629285Y-89619047D02*
X59534047Y-89571428D01*
X59534047Y-89571428D02*
X59295952Y-89571428D01*
X59295952Y-89571428D02*
X59200714Y-89523809D01*
X58724523Y-89952380D02*
X58724523Y-89285714D01*
X58724523Y-88952380D02*
X58772142Y-89000000D01*
X58772142Y-89000000D02*
X58724523Y-89047619D01*
X58724523Y-89047619D02*
X58676904Y-89000000D01*
X58676904Y-89000000D02*
X58724523Y-88952380D01*
X58724523Y-88952380D02*
X58724523Y-89047619D01*
X58105476Y-89952380D02*
X58200714Y-89904761D01*
X58200714Y-89904761D02*
X58248333Y-89809523D01*
X58248333Y-89809523D02*
X58248333Y-88952380D01*
X57343571Y-89904761D02*
X57438809Y-89952380D01*
X57438809Y-89952380D02*
X57629285Y-89952380D01*
X57629285Y-89952380D02*
X57724523Y-89904761D01*
X57724523Y-89904761D02*
X57772142Y-89809523D01*
X57772142Y-89809523D02*
X57772142Y-89428571D01*
X57772142Y-89428571D02*
X57724523Y-89333333D01*
X57724523Y-89333333D02*
X57629285Y-89285714D01*
X57629285Y-89285714D02*
X57438809Y-89285714D01*
X57438809Y-89285714D02*
X57343571Y-89333333D01*
X57343571Y-89333333D02*
X57295952Y-89428571D01*
X57295952Y-89428571D02*
X57295952Y-89523809D01*
X57295952Y-89523809D02*
X57772142Y-89619047D01*
X81772142Y-91775714D02*
X81534047Y-92442380D01*
X81534047Y-92442380D02*
X81295952Y-91775714D01*
X80391190Y-92442380D02*
X80962618Y-92442380D01*
X80676904Y-92442380D02*
X80676904Y-91442380D01*
X80676904Y-91442380D02*
X80772142Y-91585238D01*
X80772142Y-91585238D02*
X80867380Y-91680476D01*
X80867380Y-91680476D02*
X80962618Y-91728095D01*
X79962618Y-92347142D02*
X79914999Y-92394761D01*
X79914999Y-92394761D02*
X79962618Y-92442380D01*
X79962618Y-92442380D02*
X80010237Y-92394761D01*
X80010237Y-92394761D02*
X79962618Y-92347142D01*
X79962618Y-92347142D02*
X79962618Y-92442380D01*
X79295952Y-91442380D02*
X79200714Y-91442380D01*
X79200714Y-91442380D02*
X79105476Y-91490000D01*
X79105476Y-91490000D02*
X79057857Y-91537619D01*
X79057857Y-91537619D02*
X79010238Y-91632857D01*
X79010238Y-91632857D02*
X78962619Y-91823333D01*
X78962619Y-91823333D02*
X78962619Y-92061428D01*
X78962619Y-92061428D02*
X79010238Y-92251904D01*
X79010238Y-92251904D02*
X79057857Y-92347142D01*
X79057857Y-92347142D02*
X79105476Y-92394761D01*
X79105476Y-92394761D02*
X79200714Y-92442380D01*
X79200714Y-92442380D02*
X79295952Y-92442380D01*
X79295952Y-92442380D02*
X79391190Y-92394761D01*
X79391190Y-92394761D02*
X79438809Y-92347142D01*
X79438809Y-92347142D02*
X79486428Y-92251904D01*
X79486428Y-92251904D02*
X79534047Y-92061428D01*
X79534047Y-92061428D02*
X79534047Y-91823333D01*
X79534047Y-91823333D02*
X79486428Y-91632857D01*
X79486428Y-91632857D02*
X79438809Y-91537619D01*
X79438809Y-91537619D02*
X79391190Y-91490000D01*
X79391190Y-91490000D02*
X79295952Y-91442380D01*
X78534047Y-92347142D02*
X78486428Y-92394761D01*
X78486428Y-92394761D02*
X78534047Y-92442380D01*
X78534047Y-92442380D02*
X78581666Y-92394761D01*
X78581666Y-92394761D02*
X78534047Y-92347142D01*
X78534047Y-92347142D02*
X78534047Y-92442380D01*
X77867381Y-91442380D02*
X77772143Y-91442380D01*
X77772143Y-91442380D02*
X77676905Y-91490000D01*
X77676905Y-91490000D02*
X77629286Y-91537619D01*
X77629286Y-91537619D02*
X77581667Y-91632857D01*
X77581667Y-91632857D02*
X77534048Y-91823333D01*
X77534048Y-91823333D02*
X77534048Y-92061428D01*
X77534048Y-92061428D02*
X77581667Y-92251904D01*
X77581667Y-92251904D02*
X77629286Y-92347142D01*
X77629286Y-92347142D02*
X77676905Y-92394761D01*
X77676905Y-92394761D02*
X77772143Y-92442380D01*
X77772143Y-92442380D02*
X77867381Y-92442380D01*
X77867381Y-92442380D02*
X77962619Y-92394761D01*
X77962619Y-92394761D02*
X78010238Y-92347142D01*
X78010238Y-92347142D02*
X78057857Y-92251904D01*
X78057857Y-92251904D02*
X78105476Y-92061428D01*
X78105476Y-92061428D02*
X78105476Y-91823333D01*
X78105476Y-91823333D02*
X78057857Y-91632857D01*
X78057857Y-91632857D02*
X78010238Y-91537619D01*
X78010238Y-91537619D02*
X77962619Y-91490000D01*
X77962619Y-91490000D02*
X77867381Y-91442380D01*
%LPC*%
D12*
%TO.C,MH1*%
X59055000Y-80010000D03*
%TD*%
%TO.C,MH2*%
X99695000Y-80010000D03*
%TD*%
%TO.C,MH3*%
X59055000Y-120650000D03*
%TD*%
%TO.C,MH4*%
X99695000Y-120650000D03*
%TD*%
D13*
%TO.C,P2*%
X98500000Y-109540000D03*
D14*
X98500000Y-107000000D03*
%TD*%
D15*
%TO.C,P1*%
X92710000Y-83945000D03*
D16*
X90170000Y-83945000D03*
X87630000Y-83945000D03*
X85090000Y-83945000D03*
%TD*%
D15*
%TO.C,P3*%
X92710000Y-118235000D03*
D16*
X90170000Y-118235000D03*
X87630000Y-118235000D03*
X85090000Y-118235000D03*
%TD*%
D15*
%TO.C,P4*%
X75250000Y-84000000D03*
D16*
X72710000Y-84000000D03*
X70170000Y-84000000D03*
X67630000Y-84000000D03*
%TD*%
D15*
%TO.C,P5*%
X74810000Y-118260000D03*
D16*
X72270000Y-118260000D03*
X69730000Y-118260000D03*
X67190000Y-118260000D03*
%TD*%
M02*
