%TF.GenerationSoftware,KiCad,Pcbnew,(7.0.0)*%
%TF.CreationDate,2023-03-20T10:58:12+01:00*%
%TF.ProjectId,Z_Brake,5a5f4272-616b-4652-9e6b-696361645f70,rev?*%
%TF.SameCoordinates,Original*%
%TF.FileFunction,Legend,Top*%
%TF.FilePolarity,Positive*%
%FSLAX46Y46*%
G04 Gerber Fmt 4.6, Leading zero omitted, Abs format (unit mm)*
G04 Created by KiCad (PCBNEW (7.0.0)) date 2023-03-20 10:58:12*
%MOMM*%
%LPD*%
G01*
G04 APERTURE LIST*
G04 Aperture macros list*
%AMRoundRect*
0 Rectangle with rounded corners*
0 $1 Rounding radius*
0 $2 $3 $4 $5 $6 $7 $8 $9 X,Y pos of 4 corners*
0 Add a 4 corners polygon primitive as box body*
4,1,4,$2,$3,$4,$5,$6,$7,$8,$9,$2,$3,0*
0 Add four circle primitives for the rounded corners*
1,1,$1+$1,$2,$3*
1,1,$1+$1,$4,$5*
1,1,$1+$1,$6,$7*
1,1,$1+$1,$8,$9*
0 Add four rect primitives between the rounded corners*
20,1,$1+$1,$2,$3,$4,$5,0*
20,1,$1+$1,$4,$5,$6,$7,0*
20,1,$1+$1,$6,$7,$8,$9,0*
20,1,$1+$1,$8,$9,$2,$3,0*%
G04 Aperture macros list end*
%ADD10C,0.150000*%
%ADD11C,0.200000*%
%ADD12C,0.120000*%
%ADD13C,0.127000*%
%ADD14C,0.250000*%
%ADD15RoundRect,0.337500X0.300000X0.237500X-0.300000X0.237500X-0.300000X-0.237500X0.300000X-0.237500X0*%
%ADD16RoundRect,0.325000X0.225000X0.375000X-0.225000X0.375000X-0.225000X-0.375000X0.225000X-0.375000X0*%
%ADD17RoundRect,0.337500X-0.237500X0.287500X-0.237500X-0.287500X0.237500X-0.287500X0.237500X0.287500X0*%
%ADD18RoundRect,0.350000X-1.500000X-0.650000X1.500000X-0.650000X1.500000X0.650000X-1.500000X0.650000X0*%
%ADD19C,5.200000*%
%ADD20RoundRect,0.100000X-0.877500X0.877500X-0.877500X-0.877500X0.877500X-0.877500X0.877500X0.877500X0*%
%ADD21C,1.955000*%
%ADD22RoundRect,0.100000X0.400000X-0.950000X0.400000X0.950000X-0.400000X0.950000X-0.400000X-0.950000X0*%
%ADD23RoundRect,0.337500X0.250000X0.237500X-0.250000X0.237500X-0.250000X-0.237500X0.250000X-0.237500X0*%
%ADD24RoundRect,0.337500X-0.250000X-0.237500X0.250000X-0.237500X0.250000X0.237500X-0.250000X0.237500X0*%
%ADD25RoundRect,0.337500X-0.237500X0.250000X-0.237500X-0.250000X0.237500X-0.250000X0.237500X0.250000X0*%
%ADD26RoundRect,0.337500X0.237500X-0.250000X0.237500X0.250000X-0.237500X0.250000X-0.237500X-0.250000X0*%
%ADD27RoundRect,0.350000X0.350000X0.450000X-0.350000X0.450000X-0.350000X-0.450000X0.350000X-0.450000X0*%
%ADD28RoundRect,0.100000X-0.780000X-0.325000X0.780000X-0.325000X0.780000X0.325000X-0.780000X0.325000X0*%
%ADD29RoundRect,0.100000X-0.845000X-0.845000X0.845000X-0.845000X0.845000X0.845000X-0.845000X0.845000X0*%
%ADD30C,1.890000*%
%ADD31RoundRect,0.350000X-0.650000X1.500000X-0.650000X-1.500000X0.650000X-1.500000X0.650000X1.500000X0*%
%ADD32RoundRect,0.349750X1.250250X-0.305250X1.250250X0.305250X-1.250250X0.305250X-1.250250X-0.305250X0*%
G04 APERTURE END LIST*
D10*
X81280000Y-84455000D02*
X80645000Y-85090000D01*
X81280000Y-118745000D02*
X80645000Y-119380000D01*
X80645000Y-115570000D02*
X80645000Y-119380000D01*
X80010000Y-118745000D02*
X81280000Y-118745000D01*
X80645000Y-119380000D02*
X80010000Y-118745000D01*
X79502000Y-110236000D02*
X79502000Y-109220000D01*
X80010000Y-84455000D02*
X81280000Y-84455000D01*
X80518000Y-114046000D02*
X80518000Y-110744000D01*
X80645000Y-85090000D02*
X80010000Y-84455000D01*
X78740000Y-114300000D02*
X78740000Y-111506000D01*
X80645000Y-81280000D02*
X80645000Y-85090000D01*
X78740000Y-111506000D02*
X77724000Y-111048800D01*
X80518000Y-110744000D02*
X79502000Y-110236000D01*
X86898095Y-78781666D02*
X87374285Y-78781666D01*
X86802857Y-79067380D02*
X87136190Y-78067380D01*
X87136190Y-78067380D02*
X87469523Y-79067380D01*
X88517142Y-78019761D02*
X87660000Y-79305476D01*
X90271428Y-78543571D02*
X90414285Y-78591190D01*
X90414285Y-78591190D02*
X90461904Y-78638809D01*
X90461904Y-78638809D02*
X90509523Y-78734047D01*
X90509523Y-78734047D02*
X90509523Y-78876904D01*
X90509523Y-78876904D02*
X90461904Y-78972142D01*
X90461904Y-78972142D02*
X90414285Y-79019761D01*
X90414285Y-79019761D02*
X90319047Y-79067380D01*
X90319047Y-79067380D02*
X89938095Y-79067380D01*
X89938095Y-79067380D02*
X89938095Y-78067380D01*
X89938095Y-78067380D02*
X90271428Y-78067380D01*
X90271428Y-78067380D02*
X90366666Y-78115000D01*
X90366666Y-78115000D02*
X90414285Y-78162619D01*
X90414285Y-78162619D02*
X90461904Y-78257857D01*
X90461904Y-78257857D02*
X90461904Y-78353095D01*
X90461904Y-78353095D02*
X90414285Y-78448333D01*
X90414285Y-78448333D02*
X90366666Y-78495952D01*
X90366666Y-78495952D02*
X90271428Y-78543571D01*
X90271428Y-78543571D02*
X89938095Y-78543571D01*
X92287619Y-78543571D02*
X92430476Y-78591190D01*
X92430476Y-78591190D02*
X92478095Y-78638809D01*
X92478095Y-78638809D02*
X92525714Y-78734047D01*
X92525714Y-78734047D02*
X92525714Y-78876904D01*
X92525714Y-78876904D02*
X92478095Y-78972142D01*
X92478095Y-78972142D02*
X92430476Y-79019761D01*
X92430476Y-79019761D02*
X92335238Y-79067380D01*
X92335238Y-79067380D02*
X91954286Y-79067380D01*
X91954286Y-79067380D02*
X91954286Y-78067380D01*
X91954286Y-78067380D02*
X92287619Y-78067380D01*
X92287619Y-78067380D02*
X92382857Y-78115000D01*
X92382857Y-78115000D02*
X92430476Y-78162619D01*
X92430476Y-78162619D02*
X92478095Y-78257857D01*
X92478095Y-78257857D02*
X92478095Y-78353095D01*
X92478095Y-78353095D02*
X92430476Y-78448333D01*
X92430476Y-78448333D02*
X92382857Y-78495952D01*
X92382857Y-78495952D02*
X92287619Y-78543571D01*
X92287619Y-78543571D02*
X91954286Y-78543571D01*
X93668571Y-78019761D02*
X92811429Y-79305476D01*
X97262819Y-85965476D02*
X97167580Y-85917857D01*
X97167580Y-85917857D02*
X96977104Y-85917857D01*
X96977104Y-85917857D02*
X96881866Y-85965476D01*
X96881866Y-85965476D02*
X96786628Y-86060714D01*
X96786628Y-86060714D02*
X96739009Y-86155952D01*
X96739009Y-86155952D02*
X96739009Y-86346428D01*
X96739009Y-86346428D02*
X96786628Y-86441666D01*
X96786628Y-86441666D02*
X96881866Y-86536904D01*
X96881866Y-86536904D02*
X96977104Y-86584523D01*
X96977104Y-86584523D02*
X97167580Y-86584523D01*
X97167580Y-86584523D02*
X97262819Y-86536904D01*
X97072342Y-85584523D02*
X96834247Y-85632142D01*
X96834247Y-85632142D02*
X96596152Y-85775000D01*
X96596152Y-85775000D02*
X96453295Y-86013095D01*
X96453295Y-86013095D02*
X96405676Y-86251190D01*
X96405676Y-86251190D02*
X96453295Y-86489285D01*
X96453295Y-86489285D02*
X96596152Y-86727380D01*
X96596152Y-86727380D02*
X96834247Y-86870238D01*
X96834247Y-86870238D02*
X97072342Y-86917857D01*
X97072342Y-86917857D02*
X97310438Y-86870238D01*
X97310438Y-86870238D02*
X97548533Y-86727380D01*
X97548533Y-86727380D02*
X97691390Y-86489285D01*
X97691390Y-86489285D02*
X97739009Y-86251190D01*
X97739009Y-86251190D02*
X97691390Y-86013095D01*
X97691390Y-86013095D02*
X97548533Y-85775000D01*
X97548533Y-85775000D02*
X97310438Y-85632142D01*
X97310438Y-85632142D02*
X97072342Y-85584523D01*
X98719962Y-85822619D02*
X98767581Y-85775000D01*
X98767581Y-85775000D02*
X98862819Y-85727380D01*
X98862819Y-85727380D02*
X99100914Y-85727380D01*
X99100914Y-85727380D02*
X99196152Y-85775000D01*
X99196152Y-85775000D02*
X99243771Y-85822619D01*
X99243771Y-85822619D02*
X99291390Y-85917857D01*
X99291390Y-85917857D02*
X99291390Y-86013095D01*
X99291390Y-86013095D02*
X99243771Y-86155952D01*
X99243771Y-86155952D02*
X98672343Y-86727380D01*
X98672343Y-86727380D02*
X99291390Y-86727380D01*
X99910438Y-85727380D02*
X100005676Y-85727380D01*
X100005676Y-85727380D02*
X100100914Y-85775000D01*
X100100914Y-85775000D02*
X100148533Y-85822619D01*
X100148533Y-85822619D02*
X100196152Y-85917857D01*
X100196152Y-85917857D02*
X100243771Y-86108333D01*
X100243771Y-86108333D02*
X100243771Y-86346428D01*
X100243771Y-86346428D02*
X100196152Y-86536904D01*
X100196152Y-86536904D02*
X100148533Y-86632142D01*
X100148533Y-86632142D02*
X100100914Y-86679761D01*
X100100914Y-86679761D02*
X100005676Y-86727380D01*
X100005676Y-86727380D02*
X99910438Y-86727380D01*
X99910438Y-86727380D02*
X99815200Y-86679761D01*
X99815200Y-86679761D02*
X99767581Y-86632142D01*
X99767581Y-86632142D02*
X99719962Y-86536904D01*
X99719962Y-86536904D02*
X99672343Y-86346428D01*
X99672343Y-86346428D02*
X99672343Y-86108333D01*
X99672343Y-86108333D02*
X99719962Y-85917857D01*
X99719962Y-85917857D02*
X99767581Y-85822619D01*
X99767581Y-85822619D02*
X99815200Y-85775000D01*
X99815200Y-85775000D02*
X99910438Y-85727380D01*
X100624724Y-85822619D02*
X100672343Y-85775000D01*
X100672343Y-85775000D02*
X100767581Y-85727380D01*
X100767581Y-85727380D02*
X101005676Y-85727380D01*
X101005676Y-85727380D02*
X101100914Y-85775000D01*
X101100914Y-85775000D02*
X101148533Y-85822619D01*
X101148533Y-85822619D02*
X101196152Y-85917857D01*
X101196152Y-85917857D02*
X101196152Y-86013095D01*
X101196152Y-86013095D02*
X101148533Y-86155952D01*
X101148533Y-86155952D02*
X100577105Y-86727380D01*
X100577105Y-86727380D02*
X101196152Y-86727380D01*
X101529486Y-85727380D02*
X102148533Y-85727380D01*
X102148533Y-85727380D02*
X101815200Y-86108333D01*
X101815200Y-86108333D02*
X101958057Y-86108333D01*
X101958057Y-86108333D02*
X102053295Y-86155952D01*
X102053295Y-86155952D02*
X102100914Y-86203571D01*
X102100914Y-86203571D02*
X102148533Y-86298809D01*
X102148533Y-86298809D02*
X102148533Y-86536904D01*
X102148533Y-86536904D02*
X102100914Y-86632142D01*
X102100914Y-86632142D02*
X102053295Y-86679761D01*
X102053295Y-86679761D02*
X101958057Y-86727380D01*
X101958057Y-86727380D02*
X101672343Y-86727380D01*
X101672343Y-86727380D02*
X101577105Y-86679761D01*
X101577105Y-86679761D02*
X101529486Y-86632142D01*
X97297857Y-84155714D02*
X97535952Y-84822380D01*
X97535952Y-84822380D02*
X97774047Y-84155714D01*
X98678809Y-84822380D02*
X98107381Y-84822380D01*
X98393095Y-84822380D02*
X98393095Y-83822380D01*
X98393095Y-83822380D02*
X98297857Y-83965238D01*
X98297857Y-83965238D02*
X98202619Y-84060476D01*
X98202619Y-84060476D02*
X98107381Y-84108095D01*
X99107381Y-84727142D02*
X99155000Y-84774761D01*
X99155000Y-84774761D02*
X99107381Y-84822380D01*
X99107381Y-84822380D02*
X99059762Y-84774761D01*
X99059762Y-84774761D02*
X99107381Y-84727142D01*
X99107381Y-84727142D02*
X99107381Y-84822380D01*
X99774047Y-83822380D02*
X99869285Y-83822380D01*
X99869285Y-83822380D02*
X99964523Y-83870000D01*
X99964523Y-83870000D02*
X100012142Y-83917619D01*
X100012142Y-83917619D02*
X100059761Y-84012857D01*
X100059761Y-84012857D02*
X100107380Y-84203333D01*
X100107380Y-84203333D02*
X100107380Y-84441428D01*
X100107380Y-84441428D02*
X100059761Y-84631904D01*
X100059761Y-84631904D02*
X100012142Y-84727142D01*
X100012142Y-84727142D02*
X99964523Y-84774761D01*
X99964523Y-84774761D02*
X99869285Y-84822380D01*
X99869285Y-84822380D02*
X99774047Y-84822380D01*
X99774047Y-84822380D02*
X99678809Y-84774761D01*
X99678809Y-84774761D02*
X99631190Y-84727142D01*
X99631190Y-84727142D02*
X99583571Y-84631904D01*
X99583571Y-84631904D02*
X99535952Y-84441428D01*
X99535952Y-84441428D02*
X99535952Y-84203333D01*
X99535952Y-84203333D02*
X99583571Y-84012857D01*
X99583571Y-84012857D02*
X99631190Y-83917619D01*
X99631190Y-83917619D02*
X99678809Y-83870000D01*
X99678809Y-83870000D02*
X99774047Y-83822380D01*
X100535952Y-84727142D02*
X100583571Y-84774761D01*
X100583571Y-84774761D02*
X100535952Y-84822380D01*
X100535952Y-84822380D02*
X100488333Y-84774761D01*
X100488333Y-84774761D02*
X100535952Y-84727142D01*
X100535952Y-84727142D02*
X100535952Y-84822380D01*
X101202618Y-83822380D02*
X101297856Y-83822380D01*
X101297856Y-83822380D02*
X101393094Y-83870000D01*
X101393094Y-83870000D02*
X101440713Y-83917619D01*
X101440713Y-83917619D02*
X101488332Y-84012857D01*
X101488332Y-84012857D02*
X101535951Y-84203333D01*
X101535951Y-84203333D02*
X101535951Y-84441428D01*
X101535951Y-84441428D02*
X101488332Y-84631904D01*
X101488332Y-84631904D02*
X101440713Y-84727142D01*
X101440713Y-84727142D02*
X101393094Y-84774761D01*
X101393094Y-84774761D02*
X101297856Y-84822380D01*
X101297856Y-84822380D02*
X101202618Y-84822380D01*
X101202618Y-84822380D02*
X101107380Y-84774761D01*
X101107380Y-84774761D02*
X101059761Y-84727142D01*
X101059761Y-84727142D02*
X101012142Y-84631904D01*
X101012142Y-84631904D02*
X100964523Y-84441428D01*
X100964523Y-84441428D02*
X100964523Y-84203333D01*
X100964523Y-84203333D02*
X101012142Y-84012857D01*
X101012142Y-84012857D02*
X101059761Y-83917619D01*
X101059761Y-83917619D02*
X101107380Y-83870000D01*
X101107380Y-83870000D02*
X101202618Y-83822380D01*
X72664628Y-121890571D02*
X72807485Y-121938190D01*
X72807485Y-121938190D02*
X72855104Y-121985809D01*
X72855104Y-121985809D02*
X72902723Y-122081047D01*
X72902723Y-122081047D02*
X72902723Y-122223904D01*
X72902723Y-122223904D02*
X72855104Y-122319142D01*
X72855104Y-122319142D02*
X72807485Y-122366761D01*
X72807485Y-122366761D02*
X72712247Y-122414380D01*
X72712247Y-122414380D02*
X72331295Y-122414380D01*
X72331295Y-122414380D02*
X72331295Y-121414380D01*
X72331295Y-121414380D02*
X72664628Y-121414380D01*
X72664628Y-121414380D02*
X72759866Y-121462000D01*
X72759866Y-121462000D02*
X72807485Y-121509619D01*
X72807485Y-121509619D02*
X72855104Y-121604857D01*
X72855104Y-121604857D02*
X72855104Y-121700095D01*
X72855104Y-121700095D02*
X72807485Y-121795333D01*
X72807485Y-121795333D02*
X72759866Y-121842952D01*
X72759866Y-121842952D02*
X72664628Y-121890571D01*
X72664628Y-121890571D02*
X72331295Y-121890571D01*
X67275105Y-122128666D02*
X67751295Y-122128666D01*
X67179867Y-122414380D02*
X67513200Y-121414380D01*
X67513200Y-121414380D02*
X67846533Y-122414380D01*
X67281905Y-78681666D02*
X67758095Y-78681666D01*
X67186667Y-78967380D02*
X67520000Y-77967380D01*
X67520000Y-77967380D02*
X67853333Y-78967380D01*
X85026428Y-89428571D02*
X84693095Y-89428571D01*
X84693095Y-89952380D02*
X84693095Y-88952380D01*
X84693095Y-88952380D02*
X85169285Y-88952380D01*
X85693095Y-89952380D02*
X85597857Y-89904761D01*
X85597857Y-89904761D02*
X85550238Y-89857142D01*
X85550238Y-89857142D02*
X85502619Y-89761904D01*
X85502619Y-89761904D02*
X85502619Y-89476190D01*
X85502619Y-89476190D02*
X85550238Y-89380952D01*
X85550238Y-89380952D02*
X85597857Y-89333333D01*
X85597857Y-89333333D02*
X85693095Y-89285714D01*
X85693095Y-89285714D02*
X85835952Y-89285714D01*
X85835952Y-89285714D02*
X85931190Y-89333333D01*
X85931190Y-89333333D02*
X85978809Y-89380952D01*
X85978809Y-89380952D02*
X86026428Y-89476190D01*
X86026428Y-89476190D02*
X86026428Y-89761904D01*
X86026428Y-89761904D02*
X85978809Y-89857142D01*
X85978809Y-89857142D02*
X85931190Y-89904761D01*
X85931190Y-89904761D02*
X85835952Y-89952380D01*
X85835952Y-89952380D02*
X85693095Y-89952380D01*
X85597857Y-88952380D02*
X85645476Y-89000000D01*
X85645476Y-89000000D02*
X85597857Y-89047619D01*
X85597857Y-89047619D02*
X85550238Y-89000000D01*
X85550238Y-89000000D02*
X85597857Y-88952380D01*
X85597857Y-88952380D02*
X85597857Y-89047619D01*
X85978809Y-88952380D02*
X86026428Y-89000000D01*
X86026428Y-89000000D02*
X85978809Y-89047619D01*
X85978809Y-89047619D02*
X85931190Y-89000000D01*
X85931190Y-89000000D02*
X85978809Y-88952380D01*
X85978809Y-88952380D02*
X85978809Y-89047619D01*
X86455000Y-89952380D02*
X86455000Y-89285714D01*
X86455000Y-89476190D02*
X86502619Y-89380952D01*
X86502619Y-89380952D02*
X86550238Y-89333333D01*
X86550238Y-89333333D02*
X86645476Y-89285714D01*
X86645476Y-89285714D02*
X86740714Y-89285714D01*
X87026429Y-89904761D02*
X87121667Y-89952380D01*
X87121667Y-89952380D02*
X87312143Y-89952380D01*
X87312143Y-89952380D02*
X87407381Y-89904761D01*
X87407381Y-89904761D02*
X87455000Y-89809523D01*
X87455000Y-89809523D02*
X87455000Y-89761904D01*
X87455000Y-89761904D02*
X87407381Y-89666666D01*
X87407381Y-89666666D02*
X87312143Y-89619047D01*
X87312143Y-89619047D02*
X87169286Y-89619047D01*
X87169286Y-89619047D02*
X87074048Y-89571428D01*
X87074048Y-89571428D02*
X87026429Y-89476190D01*
X87026429Y-89476190D02*
X87026429Y-89428571D01*
X87026429Y-89428571D02*
X87074048Y-89333333D01*
X87074048Y-89333333D02*
X87169286Y-89285714D01*
X87169286Y-89285714D02*
X87312143Y-89285714D01*
X87312143Y-89285714D02*
X87407381Y-89333333D01*
X87740715Y-89285714D02*
X88121667Y-89285714D01*
X87883572Y-88952380D02*
X87883572Y-89809523D01*
X87883572Y-89809523D02*
X87931191Y-89904761D01*
X87931191Y-89904761D02*
X88026429Y-89952380D01*
X88026429Y-89952380D02*
X88121667Y-89952380D01*
X88835953Y-89904761D02*
X88740715Y-89952380D01*
X88740715Y-89952380D02*
X88550239Y-89952380D01*
X88550239Y-89952380D02*
X88455001Y-89904761D01*
X88455001Y-89904761D02*
X88407382Y-89809523D01*
X88407382Y-89809523D02*
X88407382Y-89428571D01*
X88407382Y-89428571D02*
X88455001Y-89333333D01*
X88455001Y-89333333D02*
X88550239Y-89285714D01*
X88550239Y-89285714D02*
X88740715Y-89285714D01*
X88740715Y-89285714D02*
X88835953Y-89333333D01*
X88835953Y-89333333D02*
X88883572Y-89428571D01*
X88883572Y-89428571D02*
X88883572Y-89523809D01*
X88883572Y-89523809D02*
X88407382Y-89619047D01*
X89312144Y-89952380D02*
X89312144Y-89285714D01*
X89312144Y-89476190D02*
X89359763Y-89380952D01*
X89359763Y-89380952D02*
X89407382Y-89333333D01*
X89407382Y-89333333D02*
X89502620Y-89285714D01*
X89502620Y-89285714D02*
X89597858Y-89285714D01*
X91245477Y-88904761D02*
X90388335Y-90190476D01*
X92178811Y-89952380D02*
X92178811Y-88952380D01*
X92178811Y-89428571D02*
X92750239Y-89428571D01*
X92750239Y-89952380D02*
X92750239Y-88952380D01*
X93655001Y-89952380D02*
X93655001Y-89428571D01*
X93655001Y-89428571D02*
X93607382Y-89333333D01*
X93607382Y-89333333D02*
X93512144Y-89285714D01*
X93512144Y-89285714D02*
X93321668Y-89285714D01*
X93321668Y-89285714D02*
X93226430Y-89333333D01*
X93655001Y-89904761D02*
X93559763Y-89952380D01*
X93559763Y-89952380D02*
X93321668Y-89952380D01*
X93321668Y-89952380D02*
X93226430Y-89904761D01*
X93226430Y-89904761D02*
X93178811Y-89809523D01*
X93178811Y-89809523D02*
X93178811Y-89714285D01*
X93178811Y-89714285D02*
X93226430Y-89619047D01*
X93226430Y-89619047D02*
X93321668Y-89571428D01*
X93321668Y-89571428D02*
X93559763Y-89571428D01*
X93559763Y-89571428D02*
X93655001Y-89523809D01*
X94131192Y-89952380D02*
X94131192Y-89285714D01*
X94131192Y-88952380D02*
X94083573Y-89000000D01*
X94083573Y-89000000D02*
X94131192Y-89047619D01*
X94131192Y-89047619D02*
X94178811Y-89000000D01*
X94178811Y-89000000D02*
X94131192Y-88952380D01*
X94131192Y-88952380D02*
X94131192Y-89047619D01*
X94750239Y-89952380D02*
X94655001Y-89904761D01*
X94655001Y-89904761D02*
X94607382Y-89809523D01*
X94607382Y-89809523D02*
X94607382Y-88952380D01*
X95512144Y-89904761D02*
X95416906Y-89952380D01*
X95416906Y-89952380D02*
X95226430Y-89952380D01*
X95226430Y-89952380D02*
X95131192Y-89904761D01*
X95131192Y-89904761D02*
X95083573Y-89809523D01*
X95083573Y-89809523D02*
X95083573Y-89428571D01*
X95083573Y-89428571D02*
X95131192Y-89333333D01*
X95131192Y-89333333D02*
X95226430Y-89285714D01*
X95226430Y-89285714D02*
X95416906Y-89285714D01*
X95416906Y-89285714D02*
X95512144Y-89333333D01*
X95512144Y-89333333D02*
X95559763Y-89428571D01*
X95559763Y-89428571D02*
X95559763Y-89523809D01*
X95559763Y-89523809D02*
X95083573Y-89619047D01*
X90216028Y-121839771D02*
X90358885Y-121887390D01*
X90358885Y-121887390D02*
X90406504Y-121935009D01*
X90406504Y-121935009D02*
X90454123Y-122030247D01*
X90454123Y-122030247D02*
X90454123Y-122173104D01*
X90454123Y-122173104D02*
X90406504Y-122268342D01*
X90406504Y-122268342D02*
X90358885Y-122315961D01*
X90358885Y-122315961D02*
X90263647Y-122363580D01*
X90263647Y-122363580D02*
X89882695Y-122363580D01*
X89882695Y-122363580D02*
X89882695Y-121363580D01*
X89882695Y-121363580D02*
X90216028Y-121363580D01*
X90216028Y-121363580D02*
X90311266Y-121411200D01*
X90311266Y-121411200D02*
X90358885Y-121458819D01*
X90358885Y-121458819D02*
X90406504Y-121554057D01*
X90406504Y-121554057D02*
X90406504Y-121649295D01*
X90406504Y-121649295D02*
X90358885Y-121744533D01*
X90358885Y-121744533D02*
X90311266Y-121792152D01*
X90311266Y-121792152D02*
X90216028Y-121839771D01*
X90216028Y-121839771D02*
X89882695Y-121839771D01*
X86842695Y-122077866D02*
X87318885Y-122077866D01*
X86747457Y-122363580D02*
X87080790Y-121363580D01*
X87080790Y-121363580D02*
X87414123Y-122363580D01*
X88461742Y-121315961D02*
X87604600Y-122601676D01*
X92232219Y-121839771D02*
X92375076Y-121887390D01*
X92375076Y-121887390D02*
X92422695Y-121935009D01*
X92422695Y-121935009D02*
X92470314Y-122030247D01*
X92470314Y-122030247D02*
X92470314Y-122173104D01*
X92470314Y-122173104D02*
X92422695Y-122268342D01*
X92422695Y-122268342D02*
X92375076Y-122315961D01*
X92375076Y-122315961D02*
X92279838Y-122363580D01*
X92279838Y-122363580D02*
X91898886Y-122363580D01*
X91898886Y-122363580D02*
X91898886Y-121363580D01*
X91898886Y-121363580D02*
X92232219Y-121363580D01*
X92232219Y-121363580D02*
X92327457Y-121411200D01*
X92327457Y-121411200D02*
X92375076Y-121458819D01*
X92375076Y-121458819D02*
X92422695Y-121554057D01*
X92422695Y-121554057D02*
X92422695Y-121649295D01*
X92422695Y-121649295D02*
X92375076Y-121744533D01*
X92375076Y-121744533D02*
X92327457Y-121792152D01*
X92327457Y-121792152D02*
X92232219Y-121839771D01*
X92232219Y-121839771D02*
X91898886Y-121839771D01*
X93613171Y-121315961D02*
X92756029Y-122601676D01*
X72671428Y-78443571D02*
X72814285Y-78491190D01*
X72814285Y-78491190D02*
X72861904Y-78538809D01*
X72861904Y-78538809D02*
X72909523Y-78634047D01*
X72909523Y-78634047D02*
X72909523Y-78776904D01*
X72909523Y-78776904D02*
X72861904Y-78872142D01*
X72861904Y-78872142D02*
X72814285Y-78919761D01*
X72814285Y-78919761D02*
X72719047Y-78967380D01*
X72719047Y-78967380D02*
X72338095Y-78967380D01*
X72338095Y-78967380D02*
X72338095Y-77967380D01*
X72338095Y-77967380D02*
X72671428Y-77967380D01*
X72671428Y-77967380D02*
X72766666Y-78015000D01*
X72766666Y-78015000D02*
X72814285Y-78062619D01*
X72814285Y-78062619D02*
X72861904Y-78157857D01*
X72861904Y-78157857D02*
X72861904Y-78253095D01*
X72861904Y-78253095D02*
X72814285Y-78348333D01*
X72814285Y-78348333D02*
X72766666Y-78395952D01*
X72766666Y-78395952D02*
X72671428Y-78443571D01*
X72671428Y-78443571D02*
X72338095Y-78443571D01*
D11*
X57507142Y-90086071D02*
X57507142Y-88586071D01*
X57507142Y-88586071D02*
X57864285Y-88586071D01*
X57864285Y-88586071D02*
X58078571Y-88657500D01*
X58078571Y-88657500D02*
X58221428Y-88800357D01*
X58221428Y-88800357D02*
X58292857Y-88943214D01*
X58292857Y-88943214D02*
X58364285Y-89228928D01*
X58364285Y-89228928D02*
X58364285Y-89443214D01*
X58364285Y-89443214D02*
X58292857Y-89728928D01*
X58292857Y-89728928D02*
X58221428Y-89871785D01*
X58221428Y-89871785D02*
X58078571Y-90014642D01*
X58078571Y-90014642D02*
X57864285Y-90086071D01*
X57864285Y-90086071D02*
X57507142Y-90086071D01*
X59221428Y-90086071D02*
X59078571Y-90014642D01*
X59078571Y-90014642D02*
X59007142Y-89943214D01*
X59007142Y-89943214D02*
X58935714Y-89800357D01*
X58935714Y-89800357D02*
X58935714Y-89371785D01*
X58935714Y-89371785D02*
X59007142Y-89228928D01*
X59007142Y-89228928D02*
X59078571Y-89157500D01*
X59078571Y-89157500D02*
X59221428Y-89086071D01*
X59221428Y-89086071D02*
X59435714Y-89086071D01*
X59435714Y-89086071D02*
X59578571Y-89157500D01*
X59578571Y-89157500D02*
X59650000Y-89228928D01*
X59650000Y-89228928D02*
X59721428Y-89371785D01*
X59721428Y-89371785D02*
X59721428Y-89800357D01*
X59721428Y-89800357D02*
X59650000Y-89943214D01*
X59650000Y-89943214D02*
X59578571Y-90014642D01*
X59578571Y-90014642D02*
X59435714Y-90086071D01*
X59435714Y-90086071D02*
X59221428Y-90086071D01*
X61007143Y-89086071D02*
X61007143Y-90086071D01*
X60364285Y-89086071D02*
X60364285Y-89871785D01*
X60364285Y-89871785D02*
X60435714Y-90014642D01*
X60435714Y-90014642D02*
X60578571Y-90086071D01*
X60578571Y-90086071D02*
X60792857Y-90086071D01*
X60792857Y-90086071D02*
X60935714Y-90014642D01*
X60935714Y-90014642D02*
X61007143Y-89943214D01*
X61721428Y-90086071D02*
X61721428Y-88586071D01*
X61721428Y-89157500D02*
X61864286Y-89086071D01*
X61864286Y-89086071D02*
X62150000Y-89086071D01*
X62150000Y-89086071D02*
X62292857Y-89157500D01*
X62292857Y-89157500D02*
X62364286Y-89228928D01*
X62364286Y-89228928D02*
X62435714Y-89371785D01*
X62435714Y-89371785D02*
X62435714Y-89800357D01*
X62435714Y-89800357D02*
X62364286Y-89943214D01*
X62364286Y-89943214D02*
X62292857Y-90014642D01*
X62292857Y-90014642D02*
X62150000Y-90086071D01*
X62150000Y-90086071D02*
X61864286Y-90086071D01*
X61864286Y-90086071D02*
X61721428Y-90014642D01*
X63292857Y-90086071D02*
X63150000Y-90014642D01*
X63150000Y-90014642D02*
X63078571Y-89871785D01*
X63078571Y-89871785D02*
X63078571Y-88586071D01*
X64435714Y-90014642D02*
X64292857Y-90086071D01*
X64292857Y-90086071D02*
X64007143Y-90086071D01*
X64007143Y-90086071D02*
X63864285Y-90014642D01*
X63864285Y-90014642D02*
X63792857Y-89871785D01*
X63792857Y-89871785D02*
X63792857Y-89300357D01*
X63792857Y-89300357D02*
X63864285Y-89157500D01*
X63864285Y-89157500D02*
X64007143Y-89086071D01*
X64007143Y-89086071D02*
X64292857Y-89086071D01*
X64292857Y-89086071D02*
X64435714Y-89157500D01*
X64435714Y-89157500D02*
X64507143Y-89300357D01*
X64507143Y-89300357D02*
X64507143Y-89443214D01*
X64507143Y-89443214D02*
X63792857Y-89586071D01*
X65907142Y-88586071D02*
X66907142Y-88586071D01*
X66907142Y-88586071D02*
X65907142Y-90086071D01*
X65907142Y-90086071D02*
X66907142Y-90086071D01*
X68378570Y-90086071D02*
X68378570Y-88586071D01*
X68378570Y-88586071D02*
X68878570Y-89657500D01*
X68878570Y-89657500D02*
X69378570Y-88586071D01*
X69378570Y-88586071D02*
X69378570Y-90086071D01*
X70307142Y-90086071D02*
X70164285Y-90014642D01*
X70164285Y-90014642D02*
X70092856Y-89943214D01*
X70092856Y-89943214D02*
X70021428Y-89800357D01*
X70021428Y-89800357D02*
X70021428Y-89371785D01*
X70021428Y-89371785D02*
X70092856Y-89228928D01*
X70092856Y-89228928D02*
X70164285Y-89157500D01*
X70164285Y-89157500D02*
X70307142Y-89086071D01*
X70307142Y-89086071D02*
X70521428Y-89086071D01*
X70521428Y-89086071D02*
X70664285Y-89157500D01*
X70664285Y-89157500D02*
X70735714Y-89228928D01*
X70735714Y-89228928D02*
X70807142Y-89371785D01*
X70807142Y-89371785D02*
X70807142Y-89800357D01*
X70807142Y-89800357D02*
X70735714Y-89943214D01*
X70735714Y-89943214D02*
X70664285Y-90014642D01*
X70664285Y-90014642D02*
X70521428Y-90086071D01*
X70521428Y-90086071D02*
X70307142Y-90086071D01*
X71235714Y-89086071D02*
X71807142Y-89086071D01*
X71449999Y-88586071D02*
X71449999Y-89871785D01*
X71449999Y-89871785D02*
X71521428Y-90014642D01*
X71521428Y-90014642D02*
X71664285Y-90086071D01*
X71664285Y-90086071D02*
X71807142Y-90086071D01*
X72521428Y-90086071D02*
X72378571Y-90014642D01*
X72378571Y-90014642D02*
X72307142Y-89943214D01*
X72307142Y-89943214D02*
X72235714Y-89800357D01*
X72235714Y-89800357D02*
X72235714Y-89371785D01*
X72235714Y-89371785D02*
X72307142Y-89228928D01*
X72307142Y-89228928D02*
X72378571Y-89157500D01*
X72378571Y-89157500D02*
X72521428Y-89086071D01*
X72521428Y-89086071D02*
X72735714Y-89086071D01*
X72735714Y-89086071D02*
X72878571Y-89157500D01*
X72878571Y-89157500D02*
X72950000Y-89228928D01*
X72950000Y-89228928D02*
X73021428Y-89371785D01*
X73021428Y-89371785D02*
X73021428Y-89800357D01*
X73021428Y-89800357D02*
X72950000Y-89943214D01*
X72950000Y-89943214D02*
X72878571Y-90014642D01*
X72878571Y-90014642D02*
X72735714Y-90086071D01*
X72735714Y-90086071D02*
X72521428Y-90086071D01*
X73664285Y-90086071D02*
X73664285Y-89086071D01*
X73664285Y-89371785D02*
X73735714Y-89228928D01*
X73735714Y-89228928D02*
X73807143Y-89157500D01*
X73807143Y-89157500D02*
X73950000Y-89086071D01*
X73950000Y-89086071D02*
X74092857Y-89086071D01*
X75992856Y-89300357D02*
X76207142Y-89371785D01*
X76207142Y-89371785D02*
X76278571Y-89443214D01*
X76278571Y-89443214D02*
X76349999Y-89586071D01*
X76349999Y-89586071D02*
X76349999Y-89800357D01*
X76349999Y-89800357D02*
X76278571Y-89943214D01*
X76278571Y-89943214D02*
X76207142Y-90014642D01*
X76207142Y-90014642D02*
X76064285Y-90086071D01*
X76064285Y-90086071D02*
X75492856Y-90086071D01*
X75492856Y-90086071D02*
X75492856Y-88586071D01*
X75492856Y-88586071D02*
X75992856Y-88586071D01*
X75992856Y-88586071D02*
X76135714Y-88657500D01*
X76135714Y-88657500D02*
X76207142Y-88728928D01*
X76207142Y-88728928D02*
X76278571Y-88871785D01*
X76278571Y-88871785D02*
X76278571Y-89014642D01*
X76278571Y-89014642D02*
X76207142Y-89157500D01*
X76207142Y-89157500D02*
X76135714Y-89228928D01*
X76135714Y-89228928D02*
X75992856Y-89300357D01*
X75992856Y-89300357D02*
X75492856Y-89300357D01*
X76992856Y-90086071D02*
X76992856Y-89086071D01*
X76992856Y-89371785D02*
X77064285Y-89228928D01*
X77064285Y-89228928D02*
X77135714Y-89157500D01*
X77135714Y-89157500D02*
X77278571Y-89086071D01*
X77278571Y-89086071D02*
X77421428Y-89086071D01*
X78564285Y-90086071D02*
X78564285Y-89300357D01*
X78564285Y-89300357D02*
X78492856Y-89157500D01*
X78492856Y-89157500D02*
X78349999Y-89086071D01*
X78349999Y-89086071D02*
X78064285Y-89086071D01*
X78064285Y-89086071D02*
X77921427Y-89157500D01*
X78564285Y-90014642D02*
X78421427Y-90086071D01*
X78421427Y-90086071D02*
X78064285Y-90086071D01*
X78064285Y-90086071D02*
X77921427Y-90014642D01*
X77921427Y-90014642D02*
X77849999Y-89871785D01*
X77849999Y-89871785D02*
X77849999Y-89728928D01*
X77849999Y-89728928D02*
X77921427Y-89586071D01*
X77921427Y-89586071D02*
X78064285Y-89514642D01*
X78064285Y-89514642D02*
X78421427Y-89514642D01*
X78421427Y-89514642D02*
X78564285Y-89443214D01*
X79278570Y-90086071D02*
X79278570Y-88586071D01*
X79421428Y-89514642D02*
X79849999Y-90086071D01*
X79849999Y-89086071D02*
X79278570Y-89657500D01*
X81064285Y-90014642D02*
X80921428Y-90086071D01*
X80921428Y-90086071D02*
X80635714Y-90086071D01*
X80635714Y-90086071D02*
X80492856Y-90014642D01*
X80492856Y-90014642D02*
X80421428Y-89871785D01*
X80421428Y-89871785D02*
X80421428Y-89300357D01*
X80421428Y-89300357D02*
X80492856Y-89157500D01*
X80492856Y-89157500D02*
X80635714Y-89086071D01*
X80635714Y-89086071D02*
X80921428Y-89086071D01*
X80921428Y-89086071D02*
X81064285Y-89157500D01*
X81064285Y-89157500D02*
X81135714Y-89300357D01*
X81135714Y-89300357D02*
X81135714Y-89443214D01*
X81135714Y-89443214D02*
X80421428Y-89586071D01*
D10*
X74687619Y-78443571D02*
X74830476Y-78491190D01*
X74830476Y-78491190D02*
X74878095Y-78538809D01*
X74878095Y-78538809D02*
X74925714Y-78634047D01*
X74925714Y-78634047D02*
X74925714Y-78776904D01*
X74925714Y-78776904D02*
X74878095Y-78872142D01*
X74878095Y-78872142D02*
X74830476Y-78919761D01*
X74830476Y-78919761D02*
X74735238Y-78967380D01*
X74735238Y-78967380D02*
X74354286Y-78967380D01*
X74354286Y-78967380D02*
X74354286Y-77967380D01*
X74354286Y-77967380D02*
X74687619Y-77967380D01*
X74687619Y-77967380D02*
X74782857Y-78015000D01*
X74782857Y-78015000D02*
X74830476Y-78062619D01*
X74830476Y-78062619D02*
X74878095Y-78157857D01*
X74878095Y-78157857D02*
X74878095Y-78253095D01*
X74878095Y-78253095D02*
X74830476Y-78348333D01*
X74830476Y-78348333D02*
X74782857Y-78395952D01*
X74782857Y-78395952D02*
X74687619Y-78443571D01*
X74687619Y-78443571D02*
X74354286Y-78443571D01*
X76068571Y-77919761D02*
X75211429Y-79205476D01*
X69298095Y-78681666D02*
X69774285Y-78681666D01*
X69202857Y-78967380D02*
X69536190Y-77967380D01*
X69536190Y-77967380D02*
X69869523Y-78967380D01*
X70917142Y-77919761D02*
X70060000Y-79205476D01*
X84881905Y-78781666D02*
X85358095Y-78781666D01*
X84786667Y-79067380D02*
X85120000Y-78067380D01*
X85120000Y-78067380D02*
X85453333Y-79067380D01*
X84826505Y-122077866D02*
X85302695Y-122077866D01*
X84731267Y-122363580D02*
X85064600Y-121363580D01*
X85064600Y-121363580D02*
X85397933Y-122363580D01*
X69291295Y-122128666D02*
X69767485Y-122128666D01*
X69196057Y-122414380D02*
X69529390Y-121414380D01*
X69529390Y-121414380D02*
X69862723Y-122414380D01*
X70910342Y-121366761D02*
X70053200Y-122652476D01*
X74680819Y-121890571D02*
X74823676Y-121938190D01*
X74823676Y-121938190D02*
X74871295Y-121985809D01*
X74871295Y-121985809D02*
X74918914Y-122081047D01*
X74918914Y-122081047D02*
X74918914Y-122223904D01*
X74918914Y-122223904D02*
X74871295Y-122319142D01*
X74871295Y-122319142D02*
X74823676Y-122366761D01*
X74823676Y-122366761D02*
X74728438Y-122414380D01*
X74728438Y-122414380D02*
X74347486Y-122414380D01*
X74347486Y-122414380D02*
X74347486Y-121414380D01*
X74347486Y-121414380D02*
X74680819Y-121414380D01*
X74680819Y-121414380D02*
X74776057Y-121462000D01*
X74776057Y-121462000D02*
X74823676Y-121509619D01*
X74823676Y-121509619D02*
X74871295Y-121604857D01*
X74871295Y-121604857D02*
X74871295Y-121700095D01*
X74871295Y-121700095D02*
X74823676Y-121795333D01*
X74823676Y-121795333D02*
X74776057Y-121842952D01*
X74776057Y-121842952D02*
X74680819Y-121890571D01*
X74680819Y-121890571D02*
X74347486Y-121890571D01*
X76061771Y-121366761D02*
X75204629Y-122652476D01*
%TO.C,C1*%
X72154142Y-108566666D02*
X72201761Y-108614285D01*
X72201761Y-108614285D02*
X72249380Y-108757142D01*
X72249380Y-108757142D02*
X72249380Y-108852380D01*
X72249380Y-108852380D02*
X72201761Y-108995237D01*
X72201761Y-108995237D02*
X72106523Y-109090475D01*
X72106523Y-109090475D02*
X72011285Y-109138094D01*
X72011285Y-109138094D02*
X71820809Y-109185713D01*
X71820809Y-109185713D02*
X71677952Y-109185713D01*
X71677952Y-109185713D02*
X71487476Y-109138094D01*
X71487476Y-109138094D02*
X71392238Y-109090475D01*
X71392238Y-109090475D02*
X71297000Y-108995237D01*
X71297000Y-108995237D02*
X71249380Y-108852380D01*
X71249380Y-108852380D02*
X71249380Y-108757142D01*
X71249380Y-108757142D02*
X71297000Y-108614285D01*
X71297000Y-108614285D02*
X71344619Y-108566666D01*
X72249380Y-107614285D02*
X72249380Y-108185713D01*
X72249380Y-107899999D02*
X71249380Y-107899999D01*
X71249380Y-107899999D02*
X71392238Y-107995237D01*
X71392238Y-107995237D02*
X71487476Y-108090475D01*
X71487476Y-108090475D02*
X71535095Y-108185713D01*
%TO.C,D3*%
X83843905Y-104151780D02*
X83843905Y-103151780D01*
X83843905Y-103151780D02*
X84082000Y-103151780D01*
X84082000Y-103151780D02*
X84224857Y-103199400D01*
X84224857Y-103199400D02*
X84320095Y-103294638D01*
X84320095Y-103294638D02*
X84367714Y-103389876D01*
X84367714Y-103389876D02*
X84415333Y-103580352D01*
X84415333Y-103580352D02*
X84415333Y-103723209D01*
X84415333Y-103723209D02*
X84367714Y-103913685D01*
X84367714Y-103913685D02*
X84320095Y-104008923D01*
X84320095Y-104008923D02*
X84224857Y-104104161D01*
X84224857Y-104104161D02*
X84082000Y-104151780D01*
X84082000Y-104151780D02*
X83843905Y-104151780D01*
X84748667Y-103151780D02*
X85367714Y-103151780D01*
X85367714Y-103151780D02*
X85034381Y-103532733D01*
X85034381Y-103532733D02*
X85177238Y-103532733D01*
X85177238Y-103532733D02*
X85272476Y-103580352D01*
X85272476Y-103580352D02*
X85320095Y-103627971D01*
X85320095Y-103627971D02*
X85367714Y-103723209D01*
X85367714Y-103723209D02*
X85367714Y-103961304D01*
X85367714Y-103961304D02*
X85320095Y-104056542D01*
X85320095Y-104056542D02*
X85272476Y-104104161D01*
X85272476Y-104104161D02*
X85177238Y-104151780D01*
X85177238Y-104151780D02*
X84891524Y-104151780D01*
X84891524Y-104151780D02*
X84796286Y-104104161D01*
X84796286Y-104104161D02*
X84748667Y-104056542D01*
%TO.C,D4*%
X57314180Y-112802894D02*
X56314180Y-112802894D01*
X56314180Y-112802894D02*
X56314180Y-112564799D01*
X56314180Y-112564799D02*
X56361800Y-112421942D01*
X56361800Y-112421942D02*
X56457038Y-112326704D01*
X56457038Y-112326704D02*
X56552276Y-112279085D01*
X56552276Y-112279085D02*
X56742752Y-112231466D01*
X56742752Y-112231466D02*
X56885609Y-112231466D01*
X56885609Y-112231466D02*
X57076085Y-112279085D01*
X57076085Y-112279085D02*
X57171323Y-112326704D01*
X57171323Y-112326704D02*
X57266561Y-112421942D01*
X57266561Y-112421942D02*
X57314180Y-112564799D01*
X57314180Y-112564799D02*
X57314180Y-112802894D01*
X56647514Y-111374323D02*
X57314180Y-111374323D01*
X56266561Y-111612418D02*
X56980847Y-111850513D01*
X56980847Y-111850513D02*
X56980847Y-111231466D01*
%TO.C,D5*%
X95414180Y-108738894D02*
X94414180Y-108738894D01*
X94414180Y-108738894D02*
X94414180Y-108500799D01*
X94414180Y-108500799D02*
X94461800Y-108357942D01*
X94461800Y-108357942D02*
X94557038Y-108262704D01*
X94557038Y-108262704D02*
X94652276Y-108215085D01*
X94652276Y-108215085D02*
X94842752Y-108167466D01*
X94842752Y-108167466D02*
X94985609Y-108167466D01*
X94985609Y-108167466D02*
X95176085Y-108215085D01*
X95176085Y-108215085D02*
X95271323Y-108262704D01*
X95271323Y-108262704D02*
X95366561Y-108357942D01*
X95366561Y-108357942D02*
X95414180Y-108500799D01*
X95414180Y-108500799D02*
X95414180Y-108738894D01*
X94414180Y-107262704D02*
X94414180Y-107738894D01*
X94414180Y-107738894D02*
X94890371Y-107786513D01*
X94890371Y-107786513D02*
X94842752Y-107738894D01*
X94842752Y-107738894D02*
X94795133Y-107643656D01*
X94795133Y-107643656D02*
X94795133Y-107405561D01*
X94795133Y-107405561D02*
X94842752Y-107310323D01*
X94842752Y-107310323D02*
X94890371Y-107262704D01*
X94890371Y-107262704D02*
X94985609Y-107215085D01*
X94985609Y-107215085D02*
X95223704Y-107215085D01*
X95223704Y-107215085D02*
X95318942Y-107262704D01*
X95318942Y-107262704D02*
X95366561Y-107310323D01*
X95366561Y-107310323D02*
X95414180Y-107405561D01*
X95414180Y-107405561D02*
X95414180Y-107643656D01*
X95414180Y-107643656D02*
X95366561Y-107738894D01*
X95366561Y-107738894D02*
X95318942Y-107786513D01*
%TO.C,Q1*%
X83774619Y-110077238D02*
X83727000Y-110172476D01*
X83727000Y-110172476D02*
X83631761Y-110267714D01*
X83631761Y-110267714D02*
X83488904Y-110410571D01*
X83488904Y-110410571D02*
X83441285Y-110505809D01*
X83441285Y-110505809D02*
X83441285Y-110601047D01*
X83679380Y-110553428D02*
X83631761Y-110648666D01*
X83631761Y-110648666D02*
X83536523Y-110743904D01*
X83536523Y-110743904D02*
X83346047Y-110791523D01*
X83346047Y-110791523D02*
X83012714Y-110791523D01*
X83012714Y-110791523D02*
X82822238Y-110743904D01*
X82822238Y-110743904D02*
X82727000Y-110648666D01*
X82727000Y-110648666D02*
X82679380Y-110553428D01*
X82679380Y-110553428D02*
X82679380Y-110362952D01*
X82679380Y-110362952D02*
X82727000Y-110267714D01*
X82727000Y-110267714D02*
X82822238Y-110172476D01*
X82822238Y-110172476D02*
X83012714Y-110124857D01*
X83012714Y-110124857D02*
X83346047Y-110124857D01*
X83346047Y-110124857D02*
X83536523Y-110172476D01*
X83536523Y-110172476D02*
X83631761Y-110267714D01*
X83631761Y-110267714D02*
X83679380Y-110362952D01*
X83679380Y-110362952D02*
X83679380Y-110553428D01*
X83679380Y-109172476D02*
X83679380Y-109743904D01*
X83679380Y-109458190D02*
X82679380Y-109458190D01*
X82679380Y-109458190D02*
X82822238Y-109553428D01*
X82822238Y-109553428D02*
X82917476Y-109648666D01*
X82917476Y-109648666D02*
X82965095Y-109743904D01*
%TO.C,R2*%
X70979380Y-110351866D02*
X70503190Y-110685199D01*
X70979380Y-110923294D02*
X69979380Y-110923294D01*
X69979380Y-110923294D02*
X69979380Y-110542342D01*
X69979380Y-110542342D02*
X70027000Y-110447104D01*
X70027000Y-110447104D02*
X70074619Y-110399485D01*
X70074619Y-110399485D02*
X70169857Y-110351866D01*
X70169857Y-110351866D02*
X70312714Y-110351866D01*
X70312714Y-110351866D02*
X70407952Y-110399485D01*
X70407952Y-110399485D02*
X70455571Y-110447104D01*
X70455571Y-110447104D02*
X70503190Y-110542342D01*
X70503190Y-110542342D02*
X70503190Y-110923294D01*
X70074619Y-109970913D02*
X70027000Y-109923294D01*
X70027000Y-109923294D02*
X69979380Y-109828056D01*
X69979380Y-109828056D02*
X69979380Y-109589961D01*
X69979380Y-109589961D02*
X70027000Y-109494723D01*
X70027000Y-109494723D02*
X70074619Y-109447104D01*
X70074619Y-109447104D02*
X70169857Y-109399485D01*
X70169857Y-109399485D02*
X70265095Y-109399485D01*
X70265095Y-109399485D02*
X70407952Y-109447104D01*
X70407952Y-109447104D02*
X70979380Y-110018532D01*
X70979380Y-110018532D02*
X70979380Y-109399485D01*
%TO.C,R3*%
X68540980Y-108777066D02*
X68064790Y-109110399D01*
X68540980Y-109348494D02*
X67540980Y-109348494D01*
X67540980Y-109348494D02*
X67540980Y-108967542D01*
X67540980Y-108967542D02*
X67588600Y-108872304D01*
X67588600Y-108872304D02*
X67636219Y-108824685D01*
X67636219Y-108824685D02*
X67731457Y-108777066D01*
X67731457Y-108777066D02*
X67874314Y-108777066D01*
X67874314Y-108777066D02*
X67969552Y-108824685D01*
X67969552Y-108824685D02*
X68017171Y-108872304D01*
X68017171Y-108872304D02*
X68064790Y-108967542D01*
X68064790Y-108967542D02*
X68064790Y-109348494D01*
X67540980Y-108443732D02*
X67540980Y-107824685D01*
X67540980Y-107824685D02*
X67921933Y-108158018D01*
X67921933Y-108158018D02*
X67921933Y-108015161D01*
X67921933Y-108015161D02*
X67969552Y-107919923D01*
X67969552Y-107919923D02*
X68017171Y-107872304D01*
X68017171Y-107872304D02*
X68112409Y-107824685D01*
X68112409Y-107824685D02*
X68350504Y-107824685D01*
X68350504Y-107824685D02*
X68445742Y-107872304D01*
X68445742Y-107872304D02*
X68493361Y-107919923D01*
X68493361Y-107919923D02*
X68540980Y-108015161D01*
X68540980Y-108015161D02*
X68540980Y-108300875D01*
X68540980Y-108300875D02*
X68493361Y-108396113D01*
X68493361Y-108396113D02*
X68445742Y-108443732D01*
%TO.C,R4*%
X80174180Y-113831666D02*
X79697990Y-114164999D01*
X80174180Y-114403094D02*
X79174180Y-114403094D01*
X79174180Y-114403094D02*
X79174180Y-114022142D01*
X79174180Y-114022142D02*
X79221800Y-113926904D01*
X79221800Y-113926904D02*
X79269419Y-113879285D01*
X79269419Y-113879285D02*
X79364657Y-113831666D01*
X79364657Y-113831666D02*
X79507514Y-113831666D01*
X79507514Y-113831666D02*
X79602752Y-113879285D01*
X79602752Y-113879285D02*
X79650371Y-113926904D01*
X79650371Y-113926904D02*
X79697990Y-114022142D01*
X79697990Y-114022142D02*
X79697990Y-114403094D01*
X79507514Y-112974523D02*
X80174180Y-112974523D01*
X79126561Y-113212618D02*
X79840847Y-113450713D01*
X79840847Y-113450713D02*
X79840847Y-112831666D01*
%TO.C,R5*%
X82409380Y-104560666D02*
X81933190Y-104893999D01*
X82409380Y-105132094D02*
X81409380Y-105132094D01*
X81409380Y-105132094D02*
X81409380Y-104751142D01*
X81409380Y-104751142D02*
X81457000Y-104655904D01*
X81457000Y-104655904D02*
X81504619Y-104608285D01*
X81504619Y-104608285D02*
X81599857Y-104560666D01*
X81599857Y-104560666D02*
X81742714Y-104560666D01*
X81742714Y-104560666D02*
X81837952Y-104608285D01*
X81837952Y-104608285D02*
X81885571Y-104655904D01*
X81885571Y-104655904D02*
X81933190Y-104751142D01*
X81933190Y-104751142D02*
X81933190Y-105132094D01*
X81409380Y-103655904D02*
X81409380Y-104132094D01*
X81409380Y-104132094D02*
X81885571Y-104179713D01*
X81885571Y-104179713D02*
X81837952Y-104132094D01*
X81837952Y-104132094D02*
X81790333Y-104036856D01*
X81790333Y-104036856D02*
X81790333Y-103798761D01*
X81790333Y-103798761D02*
X81837952Y-103703523D01*
X81837952Y-103703523D02*
X81885571Y-103655904D01*
X81885571Y-103655904D02*
X81980809Y-103608285D01*
X81980809Y-103608285D02*
X82218904Y-103608285D01*
X82218904Y-103608285D02*
X82314142Y-103655904D01*
X82314142Y-103655904D02*
X82361761Y-103703523D01*
X82361761Y-103703523D02*
X82409380Y-103798761D01*
X82409380Y-103798761D02*
X82409380Y-104036856D01*
X82409380Y-104036856D02*
X82361761Y-104132094D01*
X82361761Y-104132094D02*
X82314142Y-104179713D01*
%TO.C,R6*%
X80148780Y-111774266D02*
X79672590Y-112107599D01*
X80148780Y-112345694D02*
X79148780Y-112345694D01*
X79148780Y-112345694D02*
X79148780Y-111964742D01*
X79148780Y-111964742D02*
X79196400Y-111869504D01*
X79196400Y-111869504D02*
X79244019Y-111821885D01*
X79244019Y-111821885D02*
X79339257Y-111774266D01*
X79339257Y-111774266D02*
X79482114Y-111774266D01*
X79482114Y-111774266D02*
X79577352Y-111821885D01*
X79577352Y-111821885D02*
X79624971Y-111869504D01*
X79624971Y-111869504D02*
X79672590Y-111964742D01*
X79672590Y-111964742D02*
X79672590Y-112345694D01*
X79148780Y-110917123D02*
X79148780Y-111107599D01*
X79148780Y-111107599D02*
X79196400Y-111202837D01*
X79196400Y-111202837D02*
X79244019Y-111250456D01*
X79244019Y-111250456D02*
X79386876Y-111345694D01*
X79386876Y-111345694D02*
X79577352Y-111393313D01*
X79577352Y-111393313D02*
X79958304Y-111393313D01*
X79958304Y-111393313D02*
X80053542Y-111345694D01*
X80053542Y-111345694D02*
X80101161Y-111298075D01*
X80101161Y-111298075D02*
X80148780Y-111202837D01*
X80148780Y-111202837D02*
X80148780Y-111012361D01*
X80148780Y-111012361D02*
X80101161Y-110917123D01*
X80101161Y-110917123D02*
X80053542Y-110869504D01*
X80053542Y-110869504D02*
X79958304Y-110821885D01*
X79958304Y-110821885D02*
X79720209Y-110821885D01*
X79720209Y-110821885D02*
X79624971Y-110869504D01*
X79624971Y-110869504D02*
X79577352Y-110917123D01*
X79577352Y-110917123D02*
X79529733Y-111012361D01*
X79529733Y-111012361D02*
X79529733Y-111202837D01*
X79529733Y-111202837D02*
X79577352Y-111298075D01*
X79577352Y-111298075D02*
X79624971Y-111345694D01*
X79624971Y-111345694D02*
X79720209Y-111393313D01*
%TO.C,R7*%
X57337380Y-108854166D02*
X56861190Y-109187499D01*
X57337380Y-109425594D02*
X56337380Y-109425594D01*
X56337380Y-109425594D02*
X56337380Y-109044642D01*
X56337380Y-109044642D02*
X56385000Y-108949404D01*
X56385000Y-108949404D02*
X56432619Y-108901785D01*
X56432619Y-108901785D02*
X56527857Y-108854166D01*
X56527857Y-108854166D02*
X56670714Y-108854166D01*
X56670714Y-108854166D02*
X56765952Y-108901785D01*
X56765952Y-108901785D02*
X56813571Y-108949404D01*
X56813571Y-108949404D02*
X56861190Y-109044642D01*
X56861190Y-109044642D02*
X56861190Y-109425594D01*
X56337380Y-108520832D02*
X56337380Y-107854166D01*
X56337380Y-107854166D02*
X57337380Y-108282737D01*
%TO.C,RV1*%
X90844761Y-110984380D02*
X90511428Y-110508190D01*
X90273333Y-110984380D02*
X90273333Y-109984380D01*
X90273333Y-109984380D02*
X90654285Y-109984380D01*
X90654285Y-109984380D02*
X90749523Y-110032000D01*
X90749523Y-110032000D02*
X90797142Y-110079619D01*
X90797142Y-110079619D02*
X90844761Y-110174857D01*
X90844761Y-110174857D02*
X90844761Y-110317714D01*
X90844761Y-110317714D02*
X90797142Y-110412952D01*
X90797142Y-110412952D02*
X90749523Y-110460571D01*
X90749523Y-110460571D02*
X90654285Y-110508190D01*
X90654285Y-110508190D02*
X90273333Y-110508190D01*
X91130476Y-109984380D02*
X91463809Y-110984380D01*
X91463809Y-110984380D02*
X91797142Y-109984380D01*
X92654285Y-110984380D02*
X92082857Y-110984380D01*
X92368571Y-110984380D02*
X92368571Y-109984380D01*
X92368571Y-109984380D02*
X92273333Y-110127238D01*
X92273333Y-110127238D02*
X92178095Y-110222476D01*
X92178095Y-110222476D02*
X92082857Y-110270095D01*
%TO.C,RV2*%
X85764761Y-110984380D02*
X85431428Y-110508190D01*
X85193333Y-110984380D02*
X85193333Y-109984380D01*
X85193333Y-109984380D02*
X85574285Y-109984380D01*
X85574285Y-109984380D02*
X85669523Y-110032000D01*
X85669523Y-110032000D02*
X85717142Y-110079619D01*
X85717142Y-110079619D02*
X85764761Y-110174857D01*
X85764761Y-110174857D02*
X85764761Y-110317714D01*
X85764761Y-110317714D02*
X85717142Y-110412952D01*
X85717142Y-110412952D02*
X85669523Y-110460571D01*
X85669523Y-110460571D02*
X85574285Y-110508190D01*
X85574285Y-110508190D02*
X85193333Y-110508190D01*
X86050476Y-109984380D02*
X86383809Y-110984380D01*
X86383809Y-110984380D02*
X86717142Y-109984380D01*
X87002857Y-110079619D02*
X87050476Y-110032000D01*
X87050476Y-110032000D02*
X87145714Y-109984380D01*
X87145714Y-109984380D02*
X87383809Y-109984380D01*
X87383809Y-109984380D02*
X87479047Y-110032000D01*
X87479047Y-110032000D02*
X87526666Y-110079619D01*
X87526666Y-110079619D02*
X87574285Y-110174857D01*
X87574285Y-110174857D02*
X87574285Y-110270095D01*
X87574285Y-110270095D02*
X87526666Y-110412952D01*
X87526666Y-110412952D02*
X86955238Y-110984380D01*
X86955238Y-110984380D02*
X87574285Y-110984380D01*
%TO.C,U1*%
X77851095Y-102719980D02*
X77851095Y-103529504D01*
X77851095Y-103529504D02*
X77898714Y-103624742D01*
X77898714Y-103624742D02*
X77946333Y-103672361D01*
X77946333Y-103672361D02*
X78041571Y-103719980D01*
X78041571Y-103719980D02*
X78232047Y-103719980D01*
X78232047Y-103719980D02*
X78327285Y-103672361D01*
X78327285Y-103672361D02*
X78374904Y-103624742D01*
X78374904Y-103624742D02*
X78422523Y-103529504D01*
X78422523Y-103529504D02*
X78422523Y-102719980D01*
X79422523Y-103719980D02*
X78851095Y-103719980D01*
X79136809Y-103719980D02*
X79136809Y-102719980D01*
X79136809Y-102719980D02*
X79041571Y-102862838D01*
X79041571Y-102862838D02*
X78946333Y-102958076D01*
X78946333Y-102958076D02*
X78851095Y-103005695D01*
%TO.C,P1*%
X80502095Y-80885380D02*
X80502095Y-79885380D01*
X80502095Y-79885380D02*
X80883047Y-79885380D01*
X80883047Y-79885380D02*
X80978285Y-79933000D01*
X80978285Y-79933000D02*
X81025904Y-79980619D01*
X81025904Y-79980619D02*
X81073523Y-80075857D01*
X81073523Y-80075857D02*
X81073523Y-80218714D01*
X81073523Y-80218714D02*
X81025904Y-80313952D01*
X81025904Y-80313952D02*
X80978285Y-80361571D01*
X80978285Y-80361571D02*
X80883047Y-80409190D01*
X80883047Y-80409190D02*
X80502095Y-80409190D01*
X82025904Y-80885380D02*
X81454476Y-80885380D01*
X81740190Y-80885380D02*
X81740190Y-79885380D01*
X81740190Y-79885380D02*
X81644952Y-80028238D01*
X81644952Y-80028238D02*
X81549714Y-80123476D01*
X81549714Y-80123476D02*
X81454476Y-80171095D01*
%TO.C,D1*%
X66026380Y-108738894D02*
X65026380Y-108738894D01*
X65026380Y-108738894D02*
X65026380Y-108500799D01*
X65026380Y-108500799D02*
X65074000Y-108357942D01*
X65074000Y-108357942D02*
X65169238Y-108262704D01*
X65169238Y-108262704D02*
X65264476Y-108215085D01*
X65264476Y-108215085D02*
X65454952Y-108167466D01*
X65454952Y-108167466D02*
X65597809Y-108167466D01*
X65597809Y-108167466D02*
X65788285Y-108215085D01*
X65788285Y-108215085D02*
X65883523Y-108262704D01*
X65883523Y-108262704D02*
X65978761Y-108357942D01*
X65978761Y-108357942D02*
X66026380Y-108500799D01*
X66026380Y-108500799D02*
X66026380Y-108738894D01*
X66026380Y-107215085D02*
X66026380Y-107786513D01*
X66026380Y-107500799D02*
X65026380Y-107500799D01*
X65026380Y-107500799D02*
X65169238Y-107596037D01*
X65169238Y-107596037D02*
X65264476Y-107691275D01*
X65264476Y-107691275D02*
X65312095Y-107786513D01*
%TO.C,D2*%
X95019905Y-104126380D02*
X95019905Y-103126380D01*
X95019905Y-103126380D02*
X95258000Y-103126380D01*
X95258000Y-103126380D02*
X95400857Y-103174000D01*
X95400857Y-103174000D02*
X95496095Y-103269238D01*
X95496095Y-103269238D02*
X95543714Y-103364476D01*
X95543714Y-103364476D02*
X95591333Y-103554952D01*
X95591333Y-103554952D02*
X95591333Y-103697809D01*
X95591333Y-103697809D02*
X95543714Y-103888285D01*
X95543714Y-103888285D02*
X95496095Y-103983523D01*
X95496095Y-103983523D02*
X95400857Y-104078761D01*
X95400857Y-104078761D02*
X95258000Y-104126380D01*
X95258000Y-104126380D02*
X95019905Y-104126380D01*
X95972286Y-103221619D02*
X96019905Y-103174000D01*
X96019905Y-103174000D02*
X96115143Y-103126380D01*
X96115143Y-103126380D02*
X96353238Y-103126380D01*
X96353238Y-103126380D02*
X96448476Y-103174000D01*
X96448476Y-103174000D02*
X96496095Y-103221619D01*
X96496095Y-103221619D02*
X96543714Y-103316857D01*
X96543714Y-103316857D02*
X96543714Y-103412095D01*
X96543714Y-103412095D02*
X96496095Y-103554952D01*
X96496095Y-103554952D02*
X95924667Y-104126380D01*
X95924667Y-104126380D02*
X96543714Y-104126380D01*
%TO.C,P3*%
X82588095Y-113677381D02*
X82588095Y-112677381D01*
X82588095Y-112677381D02*
X82969047Y-112677381D01*
X82969047Y-112677381D02*
X83064285Y-112725001D01*
X83064285Y-112725001D02*
X83111904Y-112772620D01*
X83111904Y-112772620D02*
X83159523Y-112867858D01*
X83159523Y-112867858D02*
X83159523Y-113010715D01*
X83159523Y-113010715D02*
X83111904Y-113105953D01*
X83111904Y-113105953D02*
X83064285Y-113153572D01*
X83064285Y-113153572D02*
X82969047Y-113201191D01*
X82969047Y-113201191D02*
X82588095Y-113201191D01*
X83492857Y-112677381D02*
X84111904Y-112677381D01*
X84111904Y-112677381D02*
X83778571Y-113058334D01*
X83778571Y-113058334D02*
X83921428Y-113058334D01*
X83921428Y-113058334D02*
X84016666Y-113105953D01*
X84016666Y-113105953D02*
X84064285Y-113153572D01*
X84064285Y-113153572D02*
X84111904Y-113248810D01*
X84111904Y-113248810D02*
X84111904Y-113486905D01*
X84111904Y-113486905D02*
X84064285Y-113582143D01*
X84064285Y-113582143D02*
X84016666Y-113629762D01*
X84016666Y-113629762D02*
X83921428Y-113677381D01*
X83921428Y-113677381D02*
X83635714Y-113677381D01*
X83635714Y-113677381D02*
X83540476Y-113629762D01*
X83540476Y-113629762D02*
X83492857Y-113582143D01*
%TO.C,R1*%
X70979380Y-108573866D02*
X70503190Y-108907199D01*
X70979380Y-109145294D02*
X69979380Y-109145294D01*
X69979380Y-109145294D02*
X69979380Y-108764342D01*
X69979380Y-108764342D02*
X70027000Y-108669104D01*
X70027000Y-108669104D02*
X70074619Y-108621485D01*
X70074619Y-108621485D02*
X70169857Y-108573866D01*
X70169857Y-108573866D02*
X70312714Y-108573866D01*
X70312714Y-108573866D02*
X70407952Y-108621485D01*
X70407952Y-108621485D02*
X70455571Y-108669104D01*
X70455571Y-108669104D02*
X70503190Y-108764342D01*
X70503190Y-108764342D02*
X70503190Y-109145294D01*
X70979380Y-107621485D02*
X70979380Y-108192913D01*
X70979380Y-107907199D02*
X69979380Y-107907199D01*
X69979380Y-107907199D02*
X70122238Y-108002437D01*
X70122238Y-108002437D02*
X70217476Y-108097675D01*
X70217476Y-108097675D02*
X70265095Y-108192913D01*
%TO.C,K1*%
X90193905Y-99427380D02*
X90193905Y-98427380D01*
X90765333Y-99427380D02*
X90336762Y-98855952D01*
X90765333Y-98427380D02*
X90193905Y-98998809D01*
X91717714Y-99427380D02*
X91146286Y-99427380D01*
X91432000Y-99427380D02*
X91432000Y-98427380D01*
X91432000Y-98427380D02*
X91336762Y-98570238D01*
X91336762Y-98570238D02*
X91241524Y-98665476D01*
X91241524Y-98665476D02*
X91146286Y-98713095D01*
%TO.C,K2*%
X79017905Y-99427380D02*
X79017905Y-98427380D01*
X79589333Y-99427380D02*
X79160762Y-98855952D01*
X79589333Y-98427380D02*
X79017905Y-98998809D01*
X79970286Y-98522619D02*
X80017905Y-98475000D01*
X80017905Y-98475000D02*
X80113143Y-98427380D01*
X80113143Y-98427380D02*
X80351238Y-98427380D01*
X80351238Y-98427380D02*
X80446476Y-98475000D01*
X80446476Y-98475000D02*
X80494095Y-98522619D01*
X80494095Y-98522619D02*
X80541714Y-98617857D01*
X80541714Y-98617857D02*
X80541714Y-98713095D01*
X80541714Y-98713095D02*
X80494095Y-98855952D01*
X80494095Y-98855952D02*
X79922667Y-99427380D01*
X79922667Y-99427380D02*
X80541714Y-99427380D01*
%TO.C,RV4*%
X72302761Y-111924180D02*
X71969428Y-111447990D01*
X71731333Y-111924180D02*
X71731333Y-110924180D01*
X71731333Y-110924180D02*
X72112285Y-110924180D01*
X72112285Y-110924180D02*
X72207523Y-110971800D01*
X72207523Y-110971800D02*
X72255142Y-111019419D01*
X72255142Y-111019419D02*
X72302761Y-111114657D01*
X72302761Y-111114657D02*
X72302761Y-111257514D01*
X72302761Y-111257514D02*
X72255142Y-111352752D01*
X72255142Y-111352752D02*
X72207523Y-111400371D01*
X72207523Y-111400371D02*
X72112285Y-111447990D01*
X72112285Y-111447990D02*
X71731333Y-111447990D01*
X72588476Y-110924180D02*
X72921809Y-111924180D01*
X72921809Y-111924180D02*
X73255142Y-110924180D01*
X74017047Y-111257514D02*
X74017047Y-111924180D01*
X73778952Y-110876561D02*
X73540857Y-111590847D01*
X73540857Y-111590847D02*
X74159904Y-111590847D01*
%TO.C,P4*%
X63103095Y-80885380D02*
X63103095Y-79885380D01*
X63103095Y-79885380D02*
X63484047Y-79885380D01*
X63484047Y-79885380D02*
X63579285Y-79933000D01*
X63579285Y-79933000D02*
X63626904Y-79980619D01*
X63626904Y-79980619D02*
X63674523Y-80075857D01*
X63674523Y-80075857D02*
X63674523Y-80218714D01*
X63674523Y-80218714D02*
X63626904Y-80313952D01*
X63626904Y-80313952D02*
X63579285Y-80361571D01*
X63579285Y-80361571D02*
X63484047Y-80409190D01*
X63484047Y-80409190D02*
X63103095Y-80409190D01*
X64531666Y-80218714D02*
X64531666Y-80885380D01*
X64293571Y-79837761D02*
X64055476Y-80552047D01*
X64055476Y-80552047D02*
X64674523Y-80552047D01*
%TO.C,K4*%
X56284905Y-99706780D02*
X56284905Y-98706780D01*
X56856333Y-99706780D02*
X56427762Y-99135352D01*
X56856333Y-98706780D02*
X56284905Y-99278209D01*
X57713476Y-99040114D02*
X57713476Y-99706780D01*
X57475381Y-98659161D02*
X57237286Y-99373447D01*
X57237286Y-99373447D02*
X57856333Y-99373447D01*
%TO.C,D7*%
X68197505Y-104685180D02*
X68197505Y-103685180D01*
X68197505Y-103685180D02*
X68435600Y-103685180D01*
X68435600Y-103685180D02*
X68578457Y-103732800D01*
X68578457Y-103732800D02*
X68673695Y-103828038D01*
X68673695Y-103828038D02*
X68721314Y-103923276D01*
X68721314Y-103923276D02*
X68768933Y-104113752D01*
X68768933Y-104113752D02*
X68768933Y-104256609D01*
X68768933Y-104256609D02*
X68721314Y-104447085D01*
X68721314Y-104447085D02*
X68673695Y-104542323D01*
X68673695Y-104542323D02*
X68578457Y-104637561D01*
X68578457Y-104637561D02*
X68435600Y-104685180D01*
X68435600Y-104685180D02*
X68197505Y-104685180D01*
X69102267Y-103685180D02*
X69768933Y-103685180D01*
X69768933Y-103685180D02*
X69340362Y-104685180D01*
%TO.C,P5*%
X64688095Y-113702381D02*
X64688095Y-112702381D01*
X64688095Y-112702381D02*
X65069047Y-112702381D01*
X65069047Y-112702381D02*
X65164285Y-112750001D01*
X65164285Y-112750001D02*
X65211904Y-112797620D01*
X65211904Y-112797620D02*
X65259523Y-112892858D01*
X65259523Y-112892858D02*
X65259523Y-113035715D01*
X65259523Y-113035715D02*
X65211904Y-113130953D01*
X65211904Y-113130953D02*
X65164285Y-113178572D01*
X65164285Y-113178572D02*
X65069047Y-113226191D01*
X65069047Y-113226191D02*
X64688095Y-113226191D01*
X66164285Y-112702381D02*
X65688095Y-112702381D01*
X65688095Y-112702381D02*
X65640476Y-113178572D01*
X65640476Y-113178572D02*
X65688095Y-113130953D01*
X65688095Y-113130953D02*
X65783333Y-113083334D01*
X65783333Y-113083334D02*
X66021428Y-113083334D01*
X66021428Y-113083334D02*
X66116666Y-113130953D01*
X66116666Y-113130953D02*
X66164285Y-113178572D01*
X66164285Y-113178572D02*
X66211904Y-113273810D01*
X66211904Y-113273810D02*
X66211904Y-113511905D01*
X66211904Y-113511905D02*
X66164285Y-113607143D01*
X66164285Y-113607143D02*
X66116666Y-113654762D01*
X66116666Y-113654762D02*
X66021428Y-113702381D01*
X66021428Y-113702381D02*
X65783333Y-113702381D01*
X65783333Y-113702381D02*
X65688095Y-113654762D01*
X65688095Y-113654762D02*
X65640476Y-113607143D01*
%TO.C,D6*%
X59815505Y-106844180D02*
X59815505Y-105844180D01*
X59815505Y-105844180D02*
X60053600Y-105844180D01*
X60053600Y-105844180D02*
X60196457Y-105891800D01*
X60196457Y-105891800D02*
X60291695Y-105987038D01*
X60291695Y-105987038D02*
X60339314Y-106082276D01*
X60339314Y-106082276D02*
X60386933Y-106272752D01*
X60386933Y-106272752D02*
X60386933Y-106415609D01*
X60386933Y-106415609D02*
X60339314Y-106606085D01*
X60339314Y-106606085D02*
X60291695Y-106701323D01*
X60291695Y-106701323D02*
X60196457Y-106796561D01*
X60196457Y-106796561D02*
X60053600Y-106844180D01*
X60053600Y-106844180D02*
X59815505Y-106844180D01*
X61244076Y-105844180D02*
X61053600Y-105844180D01*
X61053600Y-105844180D02*
X60958362Y-105891800D01*
X60958362Y-105891800D02*
X60910743Y-105939419D01*
X60910743Y-105939419D02*
X60815505Y-106082276D01*
X60815505Y-106082276D02*
X60767886Y-106272752D01*
X60767886Y-106272752D02*
X60767886Y-106653704D01*
X60767886Y-106653704D02*
X60815505Y-106748942D01*
X60815505Y-106748942D02*
X60863124Y-106796561D01*
X60863124Y-106796561D02*
X60958362Y-106844180D01*
X60958362Y-106844180D02*
X61148838Y-106844180D01*
X61148838Y-106844180D02*
X61244076Y-106796561D01*
X61244076Y-106796561D02*
X61291695Y-106748942D01*
X61291695Y-106748942D02*
X61339314Y-106653704D01*
X61339314Y-106653704D02*
X61339314Y-106415609D01*
X61339314Y-106415609D02*
X61291695Y-106320371D01*
X61291695Y-106320371D02*
X61244076Y-106272752D01*
X61244076Y-106272752D02*
X61148838Y-106225133D01*
X61148838Y-106225133D02*
X60958362Y-106225133D01*
X60958362Y-106225133D02*
X60863124Y-106272752D01*
X60863124Y-106272752D02*
X60815505Y-106320371D01*
X60815505Y-106320371D02*
X60767886Y-106415609D01*
%TO.C,RV3*%
X75350761Y-111924180D02*
X75017428Y-111447990D01*
X74779333Y-111924180D02*
X74779333Y-110924180D01*
X74779333Y-110924180D02*
X75160285Y-110924180D01*
X75160285Y-110924180D02*
X75255523Y-110971800D01*
X75255523Y-110971800D02*
X75303142Y-111019419D01*
X75303142Y-111019419D02*
X75350761Y-111114657D01*
X75350761Y-111114657D02*
X75350761Y-111257514D01*
X75350761Y-111257514D02*
X75303142Y-111352752D01*
X75303142Y-111352752D02*
X75255523Y-111400371D01*
X75255523Y-111400371D02*
X75160285Y-111447990D01*
X75160285Y-111447990D02*
X74779333Y-111447990D01*
X75636476Y-110924180D02*
X75969809Y-111924180D01*
X75969809Y-111924180D02*
X76303142Y-110924180D01*
X76541238Y-110924180D02*
X77160285Y-110924180D01*
X77160285Y-110924180D02*
X76826952Y-111305133D01*
X76826952Y-111305133D02*
X76969809Y-111305133D01*
X76969809Y-111305133D02*
X77065047Y-111352752D01*
X77065047Y-111352752D02*
X77112666Y-111400371D01*
X77112666Y-111400371D02*
X77160285Y-111495609D01*
X77160285Y-111495609D02*
X77160285Y-111733704D01*
X77160285Y-111733704D02*
X77112666Y-111828942D01*
X77112666Y-111828942D02*
X77065047Y-111876561D01*
X77065047Y-111876561D02*
X76969809Y-111924180D01*
X76969809Y-111924180D02*
X76684095Y-111924180D01*
X76684095Y-111924180D02*
X76588857Y-111876561D01*
X76588857Y-111876561D02*
X76541238Y-111828942D01*
%TO.C,K3*%
X67740305Y-99401980D02*
X67740305Y-98401980D01*
X68311733Y-99401980D02*
X67883162Y-98830552D01*
X68311733Y-98401980D02*
X67740305Y-98973409D01*
X68645067Y-98401980D02*
X69264114Y-98401980D01*
X69264114Y-98401980D02*
X68930781Y-98782933D01*
X68930781Y-98782933D02*
X69073638Y-98782933D01*
X69073638Y-98782933D02*
X69168876Y-98830552D01*
X69168876Y-98830552D02*
X69216495Y-98878171D01*
X69216495Y-98878171D02*
X69264114Y-98973409D01*
X69264114Y-98973409D02*
X69264114Y-99211504D01*
X69264114Y-99211504D02*
X69216495Y-99306742D01*
X69216495Y-99306742D02*
X69168876Y-99354361D01*
X69168876Y-99354361D02*
X69073638Y-99401980D01*
X69073638Y-99401980D02*
X68787924Y-99401980D01*
X68787924Y-99401980D02*
X68692686Y-99354361D01*
X68692686Y-99354361D02*
X68645067Y-99306742D01*
D12*
%TO.C,C1*%
X77633767Y-108910000D02*
X77341233Y-108910000D01*
X77633767Y-107890000D02*
X77341233Y-107890000D01*
%TO.C,D3*%
X89860000Y-105750000D02*
X89860000Y-103750000D01*
X89860000Y-105750000D02*
X85850000Y-105750000D01*
X89860000Y-103750000D02*
X85850000Y-103750000D01*
%TO.C,D4*%
X59135000Y-110427500D02*
X57665000Y-110427500D01*
X57665000Y-110427500D02*
X57665000Y-112887500D01*
X59135000Y-112887500D02*
X59135000Y-110427500D01*
%TO.C,D5*%
X84990000Y-106350000D02*
X84990000Y-109650000D01*
X84990000Y-106350000D02*
X92000000Y-106350000D01*
X84990000Y-109650000D02*
X92000000Y-109650000D01*
D13*
%TO.C,P2*%
X102560000Y-104585000D02*
X102560000Y-111955000D01*
X95960000Y-104585000D02*
X102560000Y-104585000D01*
X102560000Y-111955000D02*
X95960000Y-111955000D01*
X95960000Y-111955000D02*
X95960000Y-104585000D01*
D11*
X98600000Y-112550000D02*
G75*
G03*
X98600000Y-112550000I-100000J0D01*
G01*
D12*
%TO.C,Q1*%
X81420000Y-105440000D02*
X81420000Y-108600000D01*
X81420000Y-105440000D02*
X82350000Y-105440000D01*
X84580000Y-105440000D02*
X84580000Y-106900000D01*
X84580000Y-105440000D02*
X83650000Y-105440000D01*
%TO.C,R2*%
X74321124Y-110579700D02*
X73811676Y-110579700D01*
X74321124Y-109534700D02*
X73811676Y-109534700D01*
%TO.C,R3*%
X71652676Y-106077500D02*
X72162124Y-106077500D01*
X71652676Y-107122500D02*
X72162124Y-107122500D01*
%TO.C,R4*%
X77742224Y-110572500D02*
X77232776Y-110572500D01*
X77742224Y-109527500D02*
X77232776Y-109527500D01*
%TO.C,R5*%
X80922500Y-104832776D02*
X80922500Y-105342224D01*
X79877500Y-104832776D02*
X79877500Y-105342224D01*
%TO.C,R6*%
X79877500Y-108742224D02*
X79877500Y-108232776D01*
X80922500Y-108742224D02*
X80922500Y-108232776D01*
%TO.C,R7*%
X57877500Y-108942224D02*
X57877500Y-108432776D01*
X58922500Y-108942224D02*
X58922500Y-108432776D01*
%TO.C,RV1*%
X91667064Y-113130000D02*
X91212936Y-113130000D01*
X91667064Y-111660000D02*
X91212936Y-111660000D01*
%TO.C,RV2*%
X86587064Y-113130000D02*
X86132936Y-113130000D01*
X86587064Y-111660000D02*
X86132936Y-111660000D01*
%TO.C,U1*%
X76300000Y-107410000D02*
X78100000Y-107410000D01*
X78100000Y-104190000D02*
X75650000Y-104190000D01*
D10*
%TO.C,P1*%
X82350000Y-79820000D02*
X95450000Y-79820000D01*
X82350000Y-86550000D02*
X82350000Y-79820000D01*
X82350000Y-86550000D02*
X95450000Y-86550000D01*
X95450000Y-86550000D02*
X95450000Y-79820000D01*
D14*
X96075000Y-83935000D02*
G75*
G03*
X96075000Y-83935000I-125000J0D01*
G01*
D12*
%TO.C,D1*%
X69750000Y-105040000D02*
X66450000Y-105040000D01*
X69750000Y-105040000D02*
X69750000Y-112050000D01*
X66450000Y-105040000D02*
X66450000Y-112050000D01*
%TO.C,D2*%
X94860000Y-105775000D02*
X94860000Y-103775000D01*
X94860000Y-105775000D02*
X90850000Y-105775000D01*
X94860000Y-103775000D02*
X90850000Y-103775000D01*
D10*
%TO.C,P3*%
X82350000Y-114110000D02*
X95450000Y-114110000D01*
X82350000Y-120840000D02*
X82350000Y-114110000D01*
X82350000Y-120840000D02*
X95450000Y-120840000D01*
X95450000Y-120840000D02*
X95450000Y-114110000D01*
D14*
X96075000Y-118225000D02*
G75*
G03*
X96075000Y-118225000I-125000J0D01*
G01*
D12*
%TO.C,R1*%
X73811676Y-107884700D02*
X74321124Y-107884700D01*
X73811676Y-108929700D02*
X74321124Y-108929700D01*
%TO.C,K1*%
X99890000Y-102890000D02*
X99890000Y-102430000D01*
X99890000Y-102430000D02*
X101010000Y-102430000D01*
X99890000Y-100770000D02*
X101010000Y-100770000D01*
X99890000Y-100770000D02*
X99890000Y-97350000D01*
X99890000Y-88070000D02*
X99890000Y-87610000D01*
X96410000Y-102200000D02*
X96410000Y-101000000D01*
X96410000Y-101400000D02*
X95710000Y-101800000D01*
X96410000Y-101000000D02*
X95710000Y-101000000D01*
X95710000Y-102200000D02*
X96410000Y-102200000D01*
X95710000Y-101000000D02*
X95710000Y-102200000D01*
X92110000Y-102890000D02*
X99890000Y-102890000D01*
X92110000Y-102890000D02*
X92110000Y-102430000D01*
X92110000Y-100770000D02*
X92110000Y-97350000D01*
X92110000Y-88070000D02*
X92110000Y-87610000D01*
X92110000Y-87610000D02*
X99890000Y-87610000D01*
%TO.C,K2*%
X88640000Y-102890000D02*
X88640000Y-102430000D01*
X88640000Y-102430000D02*
X89760000Y-102430000D01*
X88640000Y-100770000D02*
X89760000Y-100770000D01*
X88640000Y-100770000D02*
X88640000Y-97350000D01*
X88640000Y-88070000D02*
X88640000Y-87610000D01*
X85160000Y-102200000D02*
X85160000Y-101000000D01*
X85160000Y-101400000D02*
X84460000Y-101800000D01*
X85160000Y-101000000D02*
X84460000Y-101000000D01*
X84460000Y-102200000D02*
X85160000Y-102200000D01*
X84460000Y-101000000D02*
X84460000Y-102200000D01*
X80860000Y-102890000D02*
X88640000Y-102890000D01*
X80860000Y-102890000D02*
X80860000Y-102430000D01*
X80860000Y-100770000D02*
X80860000Y-97350000D01*
X80860000Y-88070000D02*
X80860000Y-87610000D01*
X80860000Y-87610000D02*
X88640000Y-87610000D01*
%TO.C,RV4*%
X72727064Y-113635000D02*
X72272936Y-113635000D01*
X72727064Y-112165000D02*
X72272936Y-112165000D01*
D10*
%TO.C,P4*%
X64890000Y-79875000D02*
X77990000Y-79875000D01*
X64890000Y-86605000D02*
X64890000Y-79875000D01*
X64890000Y-86605000D02*
X77990000Y-86605000D01*
X77990000Y-86605000D02*
X77990000Y-79875000D01*
D14*
X78615000Y-83990000D02*
G75*
G03*
X78615000Y-83990000I-125000J0D01*
G01*
D12*
%TO.C,K4*%
X66095000Y-102850000D02*
X66095000Y-102390000D01*
X66095000Y-102390000D02*
X67215000Y-102390000D01*
X66095000Y-100730000D02*
X67215000Y-100730000D01*
X66095000Y-100730000D02*
X66095000Y-97310000D01*
X66095000Y-88030000D02*
X66095000Y-87570000D01*
X62615000Y-102160000D02*
X62615000Y-100960000D01*
X62615000Y-101360000D02*
X61915000Y-101760000D01*
X62615000Y-100960000D02*
X61915000Y-100960000D01*
X61915000Y-102160000D02*
X62615000Y-102160000D01*
X61915000Y-100960000D02*
X61915000Y-102160000D01*
X58315000Y-102850000D02*
X66095000Y-102850000D01*
X58315000Y-102850000D02*
X58315000Y-102390000D01*
X58315000Y-100730000D02*
X58315000Y-97310000D01*
X58315000Y-88030000D02*
X58315000Y-87570000D01*
X58315000Y-87570000D02*
X66095000Y-87570000D01*
%TO.C,D7*%
X74660000Y-105200000D02*
X74660000Y-103200000D01*
X74660000Y-105200000D02*
X70650000Y-105200000D01*
X74660000Y-103200000D02*
X70650000Y-103200000D01*
D10*
%TO.C,P5*%
X64450000Y-114135000D02*
X77550000Y-114135000D01*
X64450000Y-120865000D02*
X64450000Y-114135000D01*
X64450000Y-120865000D02*
X77550000Y-120865000D01*
X77550000Y-120865000D02*
X77550000Y-114135000D01*
D14*
X78175000Y-118250000D02*
G75*
G03*
X78175000Y-118250000I-125000J0D01*
G01*
D12*
%TO.C,D6*%
X62360000Y-105500000D02*
X62360000Y-103500000D01*
X62360000Y-105500000D02*
X58350000Y-105500000D01*
X62360000Y-103500000D02*
X58350000Y-103500000D01*
%TO.C,RV3*%
X76727064Y-113635000D02*
X76272936Y-113635000D01*
X76727064Y-112165000D02*
X76272936Y-112165000D01*
%TO.C,K3*%
X77395000Y-102850000D02*
X77395000Y-102390000D01*
X77395000Y-102390000D02*
X78515000Y-102390000D01*
X77395000Y-100730000D02*
X78515000Y-100730000D01*
X77395000Y-100730000D02*
X77395000Y-97310000D01*
X77395000Y-88030000D02*
X77395000Y-87570000D01*
X73915000Y-102160000D02*
X73915000Y-100960000D01*
X73915000Y-101360000D02*
X73215000Y-101760000D01*
X73915000Y-100960000D02*
X73215000Y-100960000D01*
X73215000Y-102160000D02*
X73915000Y-102160000D01*
X73215000Y-100960000D02*
X73215000Y-102160000D01*
X69615000Y-102850000D02*
X77395000Y-102850000D01*
X69615000Y-102850000D02*
X69615000Y-102390000D01*
X69615000Y-100730000D02*
X69615000Y-97310000D01*
X69615000Y-88030000D02*
X69615000Y-87570000D01*
X69615000Y-87570000D02*
X77395000Y-87570000D01*
%TD*%
%LPC*%
D15*
%TO.C,C1*%
X78350000Y-108400000D03*
X76625000Y-108400000D03*
%TD*%
D16*
%TO.C,D3*%
X89150000Y-104750000D03*
X85850000Y-104750000D03*
%TD*%
D17*
%TO.C,D4*%
X58400000Y-111212500D03*
X58400000Y-112962500D03*
%TD*%
D18*
%TO.C,D5*%
X87000000Y-108000000D03*
X92000000Y-108000000D03*
%TD*%
D19*
%TO.C,MH1*%
X59055000Y-80010000D03*
%TD*%
%TO.C,MH2*%
X99695000Y-80010000D03*
%TD*%
%TO.C,MH3*%
X59055000Y-120650000D03*
%TD*%
%TO.C,MH4*%
X99695000Y-120650000D03*
%TD*%
D20*
%TO.C,P2*%
X98500000Y-109540000D03*
D21*
X98500000Y-107000000D03*
%TD*%
D22*
%TO.C,Q1*%
X82050000Y-107700000D03*
X83950000Y-107700000D03*
X83000000Y-104700000D03*
%TD*%
D23*
%TO.C,R2*%
X74978900Y-110057200D03*
X73153900Y-110057200D03*
%TD*%
D24*
%TO.C,R3*%
X70994900Y-106600000D03*
X72819900Y-106600000D03*
%TD*%
D23*
%TO.C,R4*%
X78400000Y-110050000D03*
X76575000Y-110050000D03*
%TD*%
D25*
%TO.C,R5*%
X80400000Y-104175000D03*
X80400000Y-106000000D03*
%TD*%
D26*
%TO.C,R6*%
X80400000Y-109400000D03*
X80400000Y-107575000D03*
%TD*%
%TO.C,R7*%
X58400000Y-109600000D03*
X58400000Y-107775000D03*
%TD*%
D27*
%TO.C,RV1*%
X92440000Y-112395000D03*
X90440000Y-112395000D03*
%TD*%
%TO.C,RV2*%
X87360000Y-112395000D03*
X85360000Y-112395000D03*
%TD*%
D28*
%TO.C,U1*%
X75850000Y-104850000D03*
X75850000Y-105800000D03*
X75850000Y-106750000D03*
X78550000Y-106750000D03*
X78550000Y-104850000D03*
%TD*%
D29*
%TO.C,P1*%
X92710000Y-83945000D03*
D30*
X90170000Y-83945000D03*
X87630000Y-83945000D03*
X85090000Y-83945000D03*
%TD*%
D31*
%TO.C,D1*%
X68100000Y-107050000D03*
X68100000Y-112050000D03*
%TD*%
D16*
%TO.C,D2*%
X94150000Y-104775000D03*
X90850000Y-104775000D03*
%TD*%
D29*
%TO.C,P3*%
X92710000Y-118235000D03*
D30*
X90170000Y-118235000D03*
X87630000Y-118235000D03*
X85090000Y-118235000D03*
%TD*%
D24*
%TO.C,R1*%
X73153900Y-108407200D03*
X74978900Y-108407200D03*
%TD*%
D32*
%TO.C,K1*%
X99645000Y-101600000D03*
X99645000Y-96520000D03*
X99645000Y-93980000D03*
X99645000Y-91440000D03*
X92355000Y-91440000D03*
X92355000Y-93980000D03*
X92355000Y-96520000D03*
X92355000Y-101600000D03*
%TD*%
%TO.C,K2*%
X88395000Y-101600000D03*
X88395000Y-96520000D03*
X88395000Y-93980000D03*
X88395000Y-91440000D03*
X81105000Y-91440000D03*
X81105000Y-93980000D03*
X81105000Y-96520000D03*
X81105000Y-101600000D03*
%TD*%
D27*
%TO.C,RV4*%
X73500000Y-112900000D03*
X71500000Y-112900000D03*
%TD*%
D29*
%TO.C,P4*%
X75250000Y-84000000D03*
D30*
X72710000Y-84000000D03*
X70170000Y-84000000D03*
X67630000Y-84000000D03*
%TD*%
D32*
%TO.C,K4*%
X65850000Y-101560000D03*
X65850000Y-96480000D03*
X65850000Y-93940000D03*
X65850000Y-91400000D03*
X58560000Y-91400000D03*
X58560000Y-93940000D03*
X58560000Y-96480000D03*
X58560000Y-101560000D03*
%TD*%
D16*
%TO.C,D7*%
X73950000Y-104200000D03*
X70650000Y-104200000D03*
%TD*%
D29*
%TO.C,P5*%
X74810000Y-118260000D03*
D30*
X72270000Y-118260000D03*
X69730000Y-118260000D03*
X67190000Y-118260000D03*
%TD*%
D16*
%TO.C,D6*%
X61650000Y-104500000D03*
X58350000Y-104500000D03*
%TD*%
D27*
%TO.C,RV3*%
X77500000Y-112900000D03*
X75500000Y-112900000D03*
%TD*%
D32*
%TO.C,K3*%
X77150000Y-101560000D03*
X77150000Y-96480000D03*
X77150000Y-93940000D03*
X77150000Y-91400000D03*
X69860000Y-91400000D03*
X69860000Y-93940000D03*
X69860000Y-96480000D03*
X69860000Y-101560000D03*
%TD*%
M02*
