M48
; DRILL file {KiCad (7.0.0)} date Mon Mar 20 10:58:24 2023
; FORMAT={-:-/ absolute / metric / decimal}
; #@! TF.CreationDate,2023-03-20T10:58:24+01:00
; #@! TF.GenerationSoftware,Kicad,Pcbnew,(7.0.0)
; #@! TF.FileFunction,Plated,1,2,PTH
FMAT,2
METRIC
; #@! TA.AperFunction,Plated,PTH,ViaDrill
T1C0.600
; #@! TA.AperFunction,Plated,PTH,ComponentDrill
T2C1.090
; #@! TA.AperFunction,Plated,PTH,ComponentDrill
T3C1.170
; #@! TA.AperFunction,Plated,PTH,ComponentDrill
T4C2.500
%
G90
G05
T1
X61.05Y-95.0
X63.4Y-95.0
X66.25Y-112.05
X69.926Y-111.328
X71.857Y-110.057
X72.8Y-95.2
X74.168Y-106.934
X75.296Y-95.221
X82.959Y-95.174
X84.75Y-95.221
X85.4Y-106.2
X93.98Y-95.22
X97.0Y-95.221
T2
X67.19Y-118.26
X67.63Y-84.0
X69.73Y-118.26
X70.17Y-84.0
X72.27Y-118.26
X72.71Y-84.0
X74.81Y-118.26
X75.25Y-84.0
X85.09Y-83.945
X85.09Y-118.235
X87.63Y-83.945
X87.63Y-118.235
X90.17Y-83.945
X90.17Y-118.235
X92.71Y-83.945
X92.71Y-118.235
T3
X98.5Y-107.0
X98.5Y-109.54
T4
X59.055Y-80.01
X59.055Y-120.65
X99.695Y-80.01
X99.695Y-120.65
T0
M30
